<svg id="Layer_1" data-name="Layer 1" xmlns="http://www.w3.org/2000/svg" width="444.6" height="178.5" viewBox="0 0 444.6 178.5"><defs><style>.cls-1{fill:#fff;}.cls-2{fill:#f15a22;}</style></defs><path class="cls-1" d="M0,0H444.6V178.5H0ZM188.2,130a74.3185,74.3185,0,0,1-22-3.4,69.313,69.313,0,0,1-20.1-10.2V89.8h13.1l2.9,19.6a48.37,48.37,0,0,0,12.1,5.3,51.5545,51.5545,0,0,0,14.1,1.9c5.8,0,10.6-.8,14.4-2.6a20.5906,20.5906,0,0,0,9.2-7.3A17.7446,17.7446,0,0,0,215.1,96a17.7372,17.7372,0,0,0-2.7-10,22.8265,22.8265,0,0,0-9-7.6c-4.2-2.2-9.9-4.1-17.1-5.8-8.5-2-15.8-4.6-21.7-8-6-3.4-10.4-7.3-13.4-12.2a29.3875,29.3875,0,0,1-4.6-16.3,31.1092,31.1092,0,0,1,5.1-17.5A35.5,35.5,0,0,1,166.1,6.4C172.2,3.3,179.5,2,187.7,2a64.8544,64.8544,0,0,1,23.1,3.9,52.795,52.795,0,0,1,16.5,9.7v25H214.2l-2.9-17.8a34.886,34.886,0,0,0-9.5-5.1c-3.7-1.4-8.5-2-14.3-2a29.6526,29.6526,0,0,0-12.8,2.6,19.2842,19.2842,0,0,0-11.6,17.9,15.8609,15.8609,0,0,0,2.7,9.4,25.2049,25.2049,0,0,0,9,7.2,89.5607,89.5607,0,0,0,16.8,5.6c13.1,3.2,23.1,8,29.7,14.4a31.5487,31.5487,0,0,1,10.2,23.6,30.2966,30.2966,0,0,1-5.4,17.7A37.1326,37.1326,0,0,1,211,126.2,65.3828,65.3828,0,0,1,188.2,130Zm103.2,0a74.3185,74.3185,0,0,1-22-3.4,69.313,69.313,0,0,1-20.1-10.2V89.8h13.1l2.9,19.6a48.37,48.37,0,0,0,12.1,5.3,51.5545,51.5545,0,0,0,14.1,1.9c5.8,0,10.6-.8,14.4-2.6a20.5906,20.5906,0,0,0,9.2-7.3A17.7446,17.7446,0,0,0,318.3,96a17.7372,17.7372,0,0,0-2.7-10,22.8265,22.8265,0,0,0-9-7.6c-4.2-2.2-9.9-4.1-17.1-5.8-8.5-2-15.8-4.6-21.7-8-6-3.4-10.4-7.3-13.4-12.2a29.3875,29.3875,0,0,1-4.6-16.3,31.1092,31.1092,0,0,1,5.1-17.5A35.5,35.5,0,0,1,269.3,6.4C275.4,3.3,282.7,2,290.9,2A64.8544,64.8544,0,0,1,314,5.9a52.795,52.795,0,0,1,16.5,9.7v25H317.4l-2.9-17.8a34.886,34.886,0,0,0-9.5-5.1c-3.8-1.4-8.5-2-14.3-2a29.6526,29.6526,0,0,0-12.8,2.6,19.2842,19.2842,0,0,0-11.6,17.9,15.8609,15.8609,0,0,0,2.7,9.4,24.1739,24.1739,0,0,0,9,7.2,89.5607,89.5607,0,0,0,16.8,5.6c13.1,3.2,23.1,8,29.7,14.4,6.6,6.5,10.2,14.3,10.2,23.6a30.2966,30.2966,0,0,1-5.4,17.7,37.1326,37.1326,0,0,1-15.1,12.1A65.3838,65.3838,0,0,1,291.4,130Zm58.3-1.9V117.4l14-2.4V16.8l-14-2.4V3.6H442V33.5H428.4l-1.9-17H380.4V57.1h45.9V70.4H380.4v45.2h48.8l1.9-17.1h13.4v29.9ZM1.2,170.6v-1.7l2.2-.4V152.7l-2.2-.4v-1.7H9a9.2906,9.2906,0,0,1,4.6,1.2,8.3331,8.3331,0,0,1,3.1,3.6,12.5466,12.5466,0,0,1,1,5.1v.5a12.8817,12.8817,0,0,1-1,5.1,8.3331,8.3331,0,0,1-3.1,3.6A9.5117,9.5117,0,0,1,9,171.1H1.2v-.5Zm5.1-2H9.2a5.2844,5.2844,0,0,0,3.2-1,10.5178,10.5178,0,0,0,2-2.7,10.361,10.361,0,0,0,.7-3.9v-.5a10.361,10.361,0,0,0-.7-3.9,6.5924,6.5924,0,0,0-2-2.7,4.5515,4.5515,0,0,0-3.2-1H6.3Zm13.6,2v-1.7l2.2-.4V157.8l-2.2-.4v-1.7h4.8l.2,1.9v.4a7.0057,7.0057,0,0,1,1.5-1.9,3.4081,3.4081,0,0,1,2.2-.7h.8c.4,0,.5.2.7.2l-.4,2.6-1.9-.2a4.1362,4.1362,0,0,0-1.9.5,4.4275,4.4275,0,0,0-1.2,1.5v8.5l2.2.4v1.7Zm11.7,0v-1.7l2.2-.4V157.8l-2.2-.4v-1.7h4.9v12.8l2.2.4v1.7Zm2.1-18.3v-2.9h2.9v2.9Zm13.2,18.3-5.3-12.9-1.5-.2v-1.7h6.3v1.7l-2,.2,3.2,8.5.4,1.2h0l.5-1.2,3.1-8.5-2-.4v-1.7h6.3v1.7l-1.5.2-5.2,13-2.3.1Zm16.8.3a6.5285,6.5285,0,0,1-3.6-1,6.7084,6.7084,0,0,1-2.4-2.6,10.4572,10.4572,0,0,1-.8-3.9v-.7a9.9542,9.9542,0,0,1,.8-3.8,6.2944,6.2944,0,0,1,2.4-2.7,5.2844,5.2844,0,0,1,3.2-1,8.0754,8.0754,0,0,1,3.4.8,5.2019,5.2019,0,0,1,2,2.4,8.8883,8.8883,0,0,1,.7,3.6v1.7H59.7a7.5116,7.5116,0,0,0,.5,2.6,3.9068,3.9068,0,0,0,1.4,1.7,3.4081,3.4081,0,0,0,2.2.7,10.0387,10.0387,0,0,0,2.4-.4c.7-.4,1.4-.7,1.9-1l1,1.7a9.0222,9.0222,0,0,1-2,1.4A6.587,6.587,0,0,1,63.7,170.9Zm-4.1-9.1h7v-.4a5.8474,5.8474,0,0,0-.4-1.9,4.0713,4.0713,0,0,0-1.2-1.4,4.1362,4.1362,0,0,0-1.9-.5,3.3711,3.3711,0,0,0-1.7.5,5.2626,5.2626,0,0,0-1.2,1.4,8.6481,8.6481,0,0,1-.6,2.3Zm11.8,8.8v-1.7l2.2-.4V157.8l-2.2-.4v-1.7h4.8l.2,2.2a5.7521,5.7521,0,0,1,1.9-1.9,4.1045,4.1045,0,0,1,2.6-.7,5.7459,5.7459,0,0,1,3.8,1.4,6.4517,6.4517,0,0,1,1.4,4.4v7.3l2.2.4v1.7H81.1v-1.7l2.2-.4v-7.3a3.7676,3.7676,0,0,0-.8-2.7,3.4917,3.4917,0,0,0-2.4-.8,4.5519,4.5519,0,0,0-2,.5,3.3891,3.3891,0,0,0-1.4,1.5v8.8l2.2.4v1.7C78.7,170.6,71.4,170.6,71.4,170.6Zm33.5.3a7.5116,7.5116,0,0,1-2.6-.5,5.1939,5.1939,0,0,1-1.9-1.7l-.2,1.9H97.8V151.2l-2.2-.4v-1.7h4.9v8.3a3.53,3.53,0,0,1,1.7-1.5,4.94,4.94,0,0,1,2.4-.5,6.3293,6.3293,0,0,1,3.2,1,7.2173,7.2173,0,0,1,2,2.9,11.9536,11.9536,0,0,1,.7,4.2v.4a9.8568,9.8568,0,0,1-.7,3.8,8.603,8.603,0,0,1-2,2.6A4.9234,4.9234,0,0,1,104.9,170.9Zm-.5-2a3.4178,3.4178,0,0,0,2.9-1.4c.7-.8.8-2,.8-3.6v-.4a11,11,0,0,0-.4-3.1,3.7383,3.7383,0,0,0-1.2-2,2.928,2.928,0,0,0-2.2-.7,2.8826,2.8826,0,0,0-2,.7,11.5111,11.5111,0,0,0-1.4,1.7v6.5a5.7948,5.7948,0,0,0,1.4,1.7c.5.6,1.2.6,2.1.6Zm11.4,8H115a2.3535,2.3535,0,0,1-.8-.2l.4-2.2h1.2a1.75,1.75,0,0,0,1.4-.7,4.9814,4.9814,0,0,0,1-1.9l.7-1.5-5.3-12.6-1.5-.2v-1.7h6.3v1.7l-1.9.4,2.9,7.5.7,1.9h0l3.4-9.4-1.9-.4v-1.7h6.1v1.7l-1.7.3-6,15.3c-.4.7-.7,1.4-1,1.9a4.6728,4.6728,0,0,1-1.4,1.4A3.9222,3.9222,0,0,1,115.8,176.9Zm29.5-6a8.3909,8.3909,0,0,1-5.1-1.4,7.2769,7.2769,0,0,1-3.1-3.6,12.2008,12.2008,0,0,1-1-5.3v-.3a13.859,13.859,0,0,1,1-5.3,7.2769,7.2769,0,0,1,3.1-3.6,9.2,9.2,0,0,1,8.4-.7,7.201,7.201,0,0,1,2.7,1.5v4.4H149l-.4-3.2a4.6711,4.6711,0,0,0-1-.5,2.8426,2.8426,0,0,0-1.2-.4c-.5,0-1-.2-1.5-.2a5.8875,5.8875,0,0,0-3.4,1,6.5924,6.5924,0,0,0-2,2.7,11.4094,11.4094,0,0,0-.7,4.1v.4a10.0492,10.0492,0,0,0,.7,4.2,5.9524,5.9524,0,0,0,5.8,3.7,6.1538,6.1538,0,0,0,1.9-.2,2.9655,2.9655,0,0,0,1.5-.7l.4-2.7h2.2v4.4a6.2982,6.2982,0,0,1-2.7,1A5.5084,5.5084,0,0,1,145.3,170.9Zm8.7-.3v-1.7l2.2-.4V157.8l-2.2-.4v-1.7h4.8l.2,1.9v.4a7.0057,7.0057,0,0,1,1.5-1.9,3.4081,3.4081,0,0,1,2.2-.7h.8c.4,0,.5.2.7.2l-.4,2.6-2-.2a4.1362,4.1362,0,0,0-1.9.5,4.4275,4.4275,0,0,0-1.2,1.5v8.5l2.2.4v1.7Zm18.4.3a6.5285,6.5285,0,0,1-3.6-1,6.7084,6.7084,0,0,1-2.4-2.6,10.4572,10.4572,0,0,1-.8-3.9v-.7a9.9542,9.9542,0,0,1,.8-3.8,6.2944,6.2944,0,0,1,2.4-2.7,5.2844,5.2844,0,0,1,3.2-1,8.0754,8.0754,0,0,1,3.4.8,5.2019,5.2019,0,0,1,2,2.4,8.8883,8.8883,0,0,1,.7,3.6v1.7h-9.7a7.5116,7.5116,0,0,0,.5,2.6,3.9068,3.9068,0,0,0,1.4,1.7,3.4081,3.4081,0,0,0,2.2.7,10.0387,10.0387,0,0,0,2.4-.4c.7-.4,1.4-.7,1.9-1l1,1.7a9.0222,9.0222,0,0,1-2,1.4A7.8259,7.8259,0,0,1,172.4,170.9Zm-4.1-9.1h7v-.4a5.8474,5.8474,0,0,0-.4-1.9,4.0713,4.0713,0,0,0-1.2-1.4,3.1982,3.1982,0,0,0-1.9-.5,3.3711,3.3711,0,0,0-1.7.5,5.2626,5.2626,0,0,0-1.2,1.4,6.5387,6.5387,0,0,0-.6,2.3Zm16.8,9.1a5.2375,5.2375,0,0,1-3.6-1.2,4.1438,4.1438,0,0,1-1.2-3.2,6.0681,6.0681,0,0,1,.8-2.6,6.2006,6.2006,0,0,1,2.2-1.7,8.9823,8.9823,0,0,1,3.6-.5h2.7v-1.5a3.1758,3.1758,0,0,0-.8-2,3.4148,3.4148,0,0,0-2.4-.7,4.6782,4.6782,0,0,0-1.7.2,7.4586,7.4586,0,0,0-1.2.7l-.4,2h-2v-3.5a8.3172,8.3172,0,0,1,5.3-1.6,5.9518,5.9518,0,0,1,4.2,1.4,4.6409,4.6409,0,0,1,1.5,3.8v8.3l1.5.2v1.7h-3.9a3.553,3.553,0,0,0-.2-1,1.803,1.803,0,0,0-.2-1,5.51,5.51,0,0,1-2,1.7C187,170.9,186.2,170.9,185.1,170.9Zm.4-2a4.8447,4.8447,0,0,0,2.6-.7c.7-.5,1.4-1,1.5-1.5V164h-2.7a6.0263,6.0263,0,0,0-2.9.8,2.61,2.61,0,0,0-1,2,1.4877,1.4877,0,0,0,.7,1.5,2.9957,2.9957,0,0,0,1.8.6Zm15.8,2a3.5414,3.5414,0,0,1-2.6-1,4.4521,4.4521,0,0,1-1-3.1v-9h-2.4v-2h2.4v-3.6h2.7v3.6h3.2v2h-3.2v9a2.1038,2.1038,0,0,0,.5,1.5,1.656,1.656,0,0,0,1.2.5,1.803,1.803,0,0,0,1-.2,1.8839,1.8839,0,0,1,.8-.2l.4,1.7a8.3309,8.3309,0,0,1-1.5.4A2.0259,2.0259,0,0,1,201.3,170.9Zm4.7-.3v-1.7l2.2-.4V157.8l-2.2-.4v-1.7h4.9v12.8l2.2.4v1.7Zm2.1-18.3v-2.9H211v2.9Zm13.2,18.3L216,157.7l-1.5-.2v-1.7h6.3v1.7l-1.9.4,3.2,8.5.4,1.2h0l.5-1.2,3.1-8.5-2-.4v-1.7h6.3v1.7l-1.5.2-5.1,12.9Zm10.2,0v-1.7l2.2-.4V157.8l-2.2-.4v-1.7h4.9v12.8l2.2.4v1.7Zm2.1-18.3v-2.9h2.9v2.9ZM246,170.9a3.5414,3.5414,0,0,1-2.6-1,4.4521,4.4521,0,0,1-1-3.1v-9H240v-2h2.4v-3.6h2.7v3.6h3.2v2h-3.2v9a2.1038,2.1038,0,0,0,.5,1.5,1.656,1.656,0,0,0,1.2.5,1.803,1.803,0,0,0,1-.2,1.8839,1.8839,0,0,1,.8-.2l.4,1.7a8.3309,8.3309,0,0,1-1.5.4A2.0259,2.0259,0,0,1,246,170.9Zm8,6h-.8a2.3535,2.3535,0,0,1-.8-.2l.4-2.2H254a1.75,1.75,0,0,0,1.4-.7,4.9814,4.9814,0,0,0,1-1.9l.7-1.5-5.3-12.6-1.5-.2v-1.7h6.3v1.7l-1.9.4,2.9,7.5.7,1.9h0l3.4-9.4-1.9-.4v-1.7h6.1v1.7l-1.5.2-6,15.3c-.4.7-.7,1.4-1,1.9a4.6728,4.6728,0,0,1-1.4,1.4A4.5519,4.5519,0,0,1,254,176.9Zm26.8-6a6.7219,6.7219,0,0,1-3.4-.7,7.0325,7.0325,0,0,1-2.2-2,6.0263,6.0263,0,0,1-.8-2.9,5.0783,5.0783,0,0,1,1-2.9,16.614,16.614,0,0,1,2.7-2.6h0a9.7369,9.7369,0,0,1-1.5-2.4,4.1932,4.1932,0,0,1-.5-2.2,5.1892,5.1892,0,0,1,.7-2.7,4.6207,4.6207,0,0,1,1.7-1.7,5.0253,5.0253,0,0,1,2.7-.5,7.5125,7.5125,0,0,1,2.6.5,3.5309,3.5309,0,0,1,1.7,1.5,4.3945,4.3945,0,0,1,.7,2.2,3.9864,3.9864,0,0,1-.7,2.4,7.0325,7.0325,0,0,1-2.2,2l-1.5,1,4.8,5.6a4.957,4.957,0,0,0,.8-2,10.0387,10.0387,0,0,0,.4-2.4h2.4a12.7,12.7,0,0,1-.5,3.4,7.201,7.201,0,0,1-1.5,2.7l2.6,3.1h-3.2l-1.2-1.4a5.45,5.45,0,0,1-2.4,1.2A5.2868,5.2868,0,0,1,280.8,170.9Zm0-2a6.4653,6.4653,0,0,0,2-.4,6.9156,6.9156,0,0,0,1.9-1l-4.9-6-.5.4a5.1939,5.1939,0,0,0-1.7,1.9,2.0259,2.0259,0,0,0-.4,1.5,3.9981,3.9981,0,0,0,1,2.6,3.1878,3.1878,0,0,0,2.6,1Zm-.4-10.5,1.9-1.4a2.94,2.94,0,0,0,1-1.2,2.2959,2.2959,0,0,0,.4-1.4,2.1268,2.1268,0,0,0-.7-1.5,2.1932,2.1932,0,0,0-1.7-.7,2.136,2.136,0,0,0-1.7.8,3.1572,3.1572,0,0,0-.7,1.9,4.1928,4.1928,0,0,0,.4,1.5,3.09,3.09,0,0,0,1.1,2ZM299,170.6v-1.7l2.2-.4V152.7l-2.2-.4v-1.7h7.2v1.7l-2.2.4v15.8l2.2.4v1.7Zm9.4,0v-1.7l2.2-.4V157.8l-2.2-.4v-1.7h4.8l.2,2.2a5.7521,5.7521,0,0,1,1.9-1.9,4.1045,4.1045,0,0,1,2.6-.7,5.7459,5.7459,0,0,1,3.8,1.4,6.4517,6.4517,0,0,1,1.4,4.4v7.3l2.2.4v1.7h-7.2v-1.7l2.2-.4v-7.2a3.7676,3.7676,0,0,0-.8-2.7,3.4917,3.4917,0,0,0-2.4-.8,4.5519,4.5519,0,0,0-2,.5,3.3891,3.3891,0,0,0-1.4,1.5v8.8l2.2.4v1.7A46.95,46.95,0,0,1,308.4,170.6Zm18.7,0v-1.7l2.2-.4V157.8l-2.2-.4v-1.7h4.8l.2,2.2A5.7521,5.7521,0,0,1,334,156a4.1045,4.1045,0,0,1,2.6-.7,5.7459,5.7459,0,0,1,3.8,1.4,6.2956,6.2956,0,0,1,1.4,4.4v7.3l2.2.4v1.7h-7.2v-1.7l2.2-.4v-7.2a3.7676,3.7676,0,0,0-.8-2.7,3.4917,3.4917,0,0,0-2.4-.8,4.5519,4.5519,0,0,0-2,.5,3.3891,3.3891,0,0,0-1.4,1.5v8.8l2.2.4v1.7A46.95,46.95,0,0,1,327.1,170.6Zm25.1.3a6.5285,6.5285,0,0,1-3.6-1,7.8086,7.8086,0,0,1-2.4-2.7,10.4572,10.4572,0,0,1-.8-3.9v-.2a10.4572,10.4572,0,0,1,.8-3.9,6.2944,6.2944,0,0,1,2.4-2.7,5.7994,5.7994,0,0,1,3.6-1,6.5285,6.5285,0,0,1,3.6,1,7.8086,7.8086,0,0,1,2.4,2.7,10.4572,10.4572,0,0,1,.8,3.9v.4a10.4572,10.4572,0,0,1-.8,3.9,6.2944,6.2944,0,0,1-2.4,2.7A7.577,7.577,0,0,1,352.2,170.9Zm0-2a3.4081,3.4081,0,0,0,2.2-.7,13.3041,13.3041,0,0,0,1.4-1.9,5.7587,5.7587,0,0,0,.5-2.9v-.2a9.2908,9.2908,0,0,0-.5-2.9,4.5031,4.5031,0,0,0-1.4-1.9,3.8071,3.8071,0,0,0-4.4,0,13.3041,13.3041,0,0,0-1.4,1.9,5.7587,5.7587,0,0,0-.5,2.9v.4a9.2908,9.2908,0,0,0,.5,2.9,4.5031,4.5031,0,0,0,1.4,1.9,5.45,5.45,0,0,0,2.2.5Zm14.5,1.7-5.3-12.9-1.5-.2v-1.7h6.3v1.7l-1.9.4,3.2,8.5.4,1.2h0l.5-1.2,3.1-8.5-2-.4v-1.7h6.3v1.7l-1.5.2-5.1,12.9Zm15.1.3a5.2375,5.2375,0,0,1-3.6-1.2,4.1438,4.1438,0,0,1-1.2-3.2,6.0681,6.0681,0,0,1,.8-2.6,6.2006,6.2006,0,0,1,2.2-1.7,8.9823,8.9823,0,0,1,3.6-.5h2.7v-1.5a3.1758,3.1758,0,0,0-.8-2,3.4148,3.4148,0,0,0-2.4-.7,4.6782,4.6782,0,0,0-1.7.2,7.4586,7.4586,0,0,0-1.2.7l-.4,2h-2v-3.5a5.45,5.45,0,0,1,2.4-1.2,13.5235,13.5235,0,0,1,2.9-.4,5.9518,5.9518,0,0,1,4.2,1.4,4.6409,4.6409,0,0,1,1.5,3.8v8.3l1.5.2v1.7h-3.9a3.553,3.553,0,0,0-.2-1,1.803,1.803,0,0,0-.2-1,5.51,5.51,0,0,1-2,1.7A3.4241,3.4241,0,0,1,381.8,170.9Zm.2-2a4.8447,4.8447,0,0,0,2.6-.7c.7-.5,1.4-1,1.5-1.5V164h-2.7a6.0263,6.0263,0,0,0-2.9.8,2.61,2.61,0,0,0-1,2,1.4877,1.4877,0,0,0,.7,1.5,2.7919,2.7919,0,0,0,1.8.6Zm15.6,2a3.5414,3.5414,0,0,1-2.6-1,4.4521,4.4521,0,0,1-1-3.1v-9h-2.4v-2H394v-3.6h2.7v3.6h3.2v2h-3.2v9a2.1038,2.1038,0,0,0,.5,1.5,1.656,1.656,0,0,0,1.2.5,1.803,1.803,0,0,0,1-.2,2.3535,2.3535,0,0,0,.8-.2l.4,1.7a8.3309,8.3309,0,0,1-1.5.4C398.8,170.9,398.1,170.9,397.6,170.9Zm4.8-.3v-1.7l2.2-.4V157.8l-2.2-.4v-1.7h4.9v12.8l2.2.4v1.7Zm2-18.3v-2.9h2.9v2.9Zm13.8,18.6a6.5285,6.5285,0,0,1-3.6-1,7.8086,7.8086,0,0,1-2.4-2.7,10.4572,10.4572,0,0,1-.8-3.9v-.2a10.4572,10.4572,0,0,1,.8-3.9,6.2944,6.2944,0,0,1,2.4-2.7,5.7994,5.7994,0,0,1,3.6-1,6.5285,6.5285,0,0,1,3.6,1,7.8086,7.8086,0,0,1,2.4,2.7,10.4572,10.4572,0,0,1,.8,3.9v.4a10.4572,10.4572,0,0,1-.8,3.9,6.2944,6.2944,0,0,1-2.4,2.7A6.5615,6.5615,0,0,1,418.2,170.9Zm0-2a3.4081,3.4081,0,0,0,2.2-.7,13.3041,13.3041,0,0,0,1.4-1.9,5.7587,5.7587,0,0,0,.5-2.9v-.2a9.2908,9.2908,0,0,0-.5-2.9,4.5031,4.5031,0,0,0-1.4-1.9,3.8071,3.8071,0,0,0-4.4,0,13.3041,13.3041,0,0,0-1.4,1.9,5.7587,5.7587,0,0,0-.5,2.9v.4a9.2908,9.2908,0,0,0,.5,2.9,4.5031,4.5031,0,0,0,1.4,1.9,5.45,5.45,0,0,0,2.2.5Zm9,1.7v-1.7l2.2-.4V157.8l-2.2-.4v-1.7H432l.2,2.2a5.7521,5.7521,0,0,1,1.9-1.9,4.1045,4.1045,0,0,1,2.6-.7,5.7459,5.7459,0,0,1,3.8,1.4,6.4517,6.4517,0,0,1,1.4,4.4v7.3l2.2.4v1.7h-7.3v-1.7l2.2-.4v-7.2a3.7676,3.7676,0,0,0-.8-2.7,3.4917,3.4917,0,0,0-2.4-.8,4.5519,4.5519,0,0,0-2,.5,3.3891,3.3891,0,0,0-1.4,1.5v8.8l2.2.4v1.7A45.7037,45.7037,0,0,1,427.2,170.6Z"/><path class="cls-2" d="M110.7,23.1C73.3,27.7,27.2,54,27.2,67.5c0,13.6,43,7.8,43,7.8s1.5-.2,1.7.7c.4,1.4-.7,1.7-.7,1.7s-58,19.2-58-10.6c0-29.4,88.6-62.4,91.5-63.4H0V126.1l11.7-19.6C49.1,101.7,95.2,75.6,95.2,62s-42.8-8-42.8-8-1.5.2-1.7-.7c-.4-1.4.7-1.7.7-1.7s58-19,58,10.9c0,29.4-88.6,62.4-91.5,63.4H122.6V3.4Z"/></svg>