<?xml version="1.0" encoding="utf-8"?>
<!-- Generator: Adobe Illustrator 25.4.1, SVG Export Plug-In . SVG Version: 6.00 Build 0)  -->
<!DOCTYPE svg PUBLIC "-//W3C//DTD SVG 1.1//EN" "http://www.w3.org/Graphics/SVG/1.1/DTD/svg11.dtd">
<svg version="1.1" id="Layer_1" xmlns="http://www.w3.org/2000/svg" xmlns:xlink="http://www.w3.org/1999/xlink" x="0px" y="0px"
	 width="444.562px" height="178.4847px" viewBox="0 0 444.6 178.5" style="enable-background:new 0 0 444.6 178.5;" xml:space="preserve">
<style type="text/css">
	.st0{fill:none;}
	.st1{fill:#FFFFFF;}
</style>
<rect class="st0" width="444.6" height="178.5"/>
<path class="st1" d="M188.2,130.1c-7.6,0-15-1.2-22-3.4s-13.7-5.6-20.1-10.2V89.8h13.1l2.9,19.6c3.8,2.2,7.6,4.1,12.1,5.3
	s9,1.9,14.1,1.9c5.8,0,10.6-0.8,14.4-2.6c3.9-1.7,7-4.1,9.2-7.3s3.2-6.6,3.2-10.7c0-3.8-0.8-7.2-2.7-10c-1.9-2.9-4.8-5.4-9-7.6
	c-4.2-2.2-9.9-4.1-17.1-5.8c-8.5-2-15.8-4.6-21.7-8c-6-3.4-10.4-7.3-13.4-12.2c-3.1-4.9-4.6-10.2-4.6-16.3c0-6.5,1.7-12.4,5.1-17.5
	c3.4-5.1,8.3-9.2,14.4-12.2c6.1-3.1,13.4-4.4,21.6-4.4c8.7,0,16.5,1.4,23.1,3.9s12.2,5.8,16.5,9.7v25h-13.1l-2.9-17.8
	c-2.6-2-5.8-3.8-9.5-5.1c-3.7-1.4-8.5-2-14.3-2c-4.8,0-9,0.8-12.8,2.6c-3.6,1.7-6.5,4.1-8.5,7.2s-3.1,6.6-3.1,10.7
	c0,3.6,0.8,6.8,2.7,9.4c1.9,2.6,4.9,5.1,9,7.2c4.2,2,9.9,3.9,16.8,5.6c13.1,3.2,23.1,8,29.7,14.4c6.6,6.4,10.2,14.3,10.2,23.6
	c0,6.6-1.9,12.6-5.4,17.7c-3.6,5.1-8.7,9.2-15.1,12.1C204.7,128.5,197,130.1,188.2,130.1z"/>
<path class="st1" d="M291.4,130.1c-7.6,0-15-1.2-22-3.4c-7-2.2-13.7-5.6-20.1-10.2V89.8h13.1l2.9,19.6c3.8,2.2,7.6,4.1,12.1,5.3
	c4.4,1.2,9,1.9,14.1,1.9c5.8,0,10.6-0.8,14.4-2.6c3.9-1.7,7-4.1,9.2-7.3c2.2-3.2,3.2-6.6,3.2-10.7c0-3.8-0.8-7.2-2.7-10
	c-1.9-2.9-4.8-5.4-9-7.6c-4.2-2.2-9.9-4.1-17.1-5.8c-8.5-2-15.8-4.6-21.7-8c-6-3.4-10.4-7.3-13.4-12.2c-3.1-4.8-4.6-10.2-4.6-16.3
	c0-6.5,1.7-12.4,5.1-17.5s8.3-9.2,14.4-12.2c6.1-3.1,13.4-4.4,21.6-4.4c8.7,0,16.5,1.4,23.1,3.9c6.6,2.5,12.2,5.8,16.5,9.7v25h-13.1
	l-2.9-17.8c-2.6-2-5.8-3.8-9.5-5.1c-3.8-1.4-8.5-2-14.3-2c-4.8,0-9,0.8-12.8,2.6c-3.6,1.7-6.5,4.1-8.5,7.2c-2,3.1-3.1,6.6-3.1,10.7
	c0,3.6,0.8,6.8,2.7,9.4c1.9,2.7,4.9,5.1,9,7.2c4.2,2,9.9,3.9,16.8,5.6c13.1,3.2,23.1,8,29.7,14.4c6.6,6.5,10.2,14.3,10.2,23.6
	c0,6.6-1.9,12.6-5.4,17.7c-3.6,5.1-8.7,9.2-15.1,12.1C307.9,128.5,300.2,130.1,291.4,130.1z"/>
<path class="st1" d="M349.7,128.2v-10.7l14-2.4V16.8l-14-2.4V3.6H442v29.9h-13.6l-1.9-17h-46.1v40.6h45.9v13.3h-45.9v45.2h48.8
	l1.9-17.1h13.4v29.9L349.7,128.2L349.7,128.2z"/>
<path class="st1" d="M110.7,23.1C73.3,27.7,27.2,54,27.2,67.5c0,13.6,43,7.8,43,7.8s1.5-0.2,1.7,0.7c0.4,1.4-0.7,1.7-0.7,1.7
	s-58,19.2-58-10.6c0-29.4,88.6-62.4,91.5-63.4H0v122.4l11.7-19.6c37.4-4.8,83.5-30.9,83.5-44.5s-42.8-8-42.8-8s-1.5,0.2-1.7-0.7
	c-0.4-1.4,0.7-1.7,0.7-1.7s58-19,58,10.9c0,29.4-88.6,62.4-91.5,63.4h104.7V3.4L110.7,23.1z"/>
<path class="st1" d="M1.2,170.7V169l2.2-0.4v-15.8l-2.2-0.4v-1.7h2.2H9c1.7,0,3.4,0.4,4.6,1.2c1.2,0.8,2.4,2,3.1,3.6
	c0.7,1.5,1,3.2,1,5.1v0.5c0,1.9-0.4,3.6-1,5.1c-0.7,1.5-1.7,2.7-3.1,3.6c-1.4,0.8-2.9,1.4-4.6,1.4H1.2V170.7L1.2,170.7z M6.3,168.7
	h2.9c1.2,0,2.4-0.4,3.2-1c0.8-0.7,1.5-1.7,2-2.7c0.5-1.2,0.7-2.4,0.7-3.9v-0.5c0-1.5-0.2-2.7-0.7-3.9c-0.5-1.2-1.2-2-2-2.7
	c-0.8-0.7-2-1-3.2-1H6.3V168.7z"/>
<path class="st1" d="M19.9,170.7V169l2.2-0.4v-10.7l-2.2-0.4v-1.7h4.8l0.2,1.9v0.4c0.4-0.8,1-1.4,1.5-1.9c0.7-0.5,1.4-0.7,2.2-0.7
	c0.4,0,0.5,0,0.8,0c0.4,0,0.5,0.2,0.7,0.2l-0.4,2.6l-1.9-0.2c-0.7,0-1.4,0.2-1.9,0.5c-0.5,0.4-0.8,0.8-1.2,1.5v8.5l2.2,0.4v1.7
	L19.9,170.7L19.9,170.7z"/>
<path class="st1" d="M31.6,170.7V169l2.2-0.4v-10.7l-2.2-0.4v-1.7h4.9v12.8l2.2,0.4v1.7L31.6,170.7L31.6,170.7z M33.7,152.4v-2.9
	h2.9v2.9H33.7z"/>
<path class="st1" d="M46.9,170.7l-5.3-12.9l-1.5-0.2v-1.7h6.3v1.7l-2,0.2l3.2,8.5l0.4,1.2l0,0l0.5-1.2l3.1-8.5l-2-0.4v-1.7h6.3v1.7
	l-1.5,0.2l-5.2,13L46.9,170.7L46.9,170.7z"/>
<path class="st1" d="M63.7,171c-1.4,0-2.6-0.4-3.6-1c-1-0.7-1.9-1.5-2.4-2.6c-0.5-1.2-0.8-2.4-0.8-3.9v-0.7c0-1.4,0.4-2.7,0.8-3.8
	c0.5-1.2,1.4-2,2.4-2.7c1-0.7,2-1,3.2-1c1.4,0,2.6,0.4,3.4,0.8c0.8,0.5,1.5,1.4,2,2.4c0.5,1,0.7,2.2,0.7,3.6v1.7h-9.7l0,0
	c0,1,0.2,1.9,0.5,2.6s0.8,1.4,1.4,1.7c0.5,0.4,1.4,0.7,2.2,0.7c0.8,0,1.7-0.2,2.4-0.4c0.7-0.4,1.4-0.7,1.9-1l1,1.7
	c-0.5,0.5-1.2,1-2,1.4C66,171,65.1,171,63.7,171z M59.6,161.9h7v-0.4c0-0.7-0.2-1.4-0.4-1.9c-0.2-0.5-0.7-1-1.2-1.4
	c-0.5-0.3-1.2-0.5-1.9-0.5s-1.2,0.2-1.7,0.5c-0.5,0.4-0.8,0.8-1.2,1.4C60,160.2,60,161.2,59.6,161.9L59.6,161.9z"/>
<path class="st1" d="M71.4,170.7V169l2.2-0.4v-10.7l-2.2-0.4v-1.7h4.8l0.2,2.2c0.5-0.8,1.2-1.4,1.9-1.9c0.7-0.5,1.5-0.7,2.6-0.7
	c1.5,0,2.9,0.5,3.8,1.4c0.8,1,1.4,2.4,1.4,4.4v7.3l2.2,0.4v1.7h-7.2v-1.7l2.2-0.4v-7.3c0-1.4-0.4-2.2-0.8-2.7
	c-0.5-0.5-1.4-0.8-2.4-0.8c-0.8,0-1.5,0.2-2,0.5c-0.7,0.4-1,0.8-1.4,1.5v8.8l2.2,0.4v1.7C78.7,170.7,71.4,170.7,71.4,170.7z"/>
<path class="st1" d="M104.9,171c-1,0-1.9-0.2-2.6-0.5c-0.7-0.4-1.4-0.8-1.9-1.7l-0.2,1.9h-2.4v-19.4l-2.2-0.4v-1.7h4.9v8.3
	c0.5-0.7,1-1.2,1.7-1.5c0.7-0.4,1.5-0.5,2.4-0.5c1.2,0,2.2,0.4,3.2,1c0.8,0.7,1.5,1.5,2,2.9c0.5,1.4,0.7,2.6,0.7,4.2v0.4
	c0,1.4-0.2,2.7-0.7,3.8c-0.5,1-1.2,1.9-2,2.6C107.3,170.7,106.4,171,104.9,171z M104.4,169c1.4,0,2.2-0.5,2.9-1.4
	c0.7-0.8,0.8-2,0.8-3.6v-0.4c0-1.2-0.2-2.2-0.4-3.1c-0.2-0.8-0.7-1.5-1.2-2c-0.5-0.5-1.2-0.7-2.2-0.7c-0.8,0-1.5,0.2-2,0.7
	s-1,1-1.4,1.7v6.5c0.4,0.7,0.8,1.2,1.4,1.7C102.8,169,103.5,169,104.4,169z"/>
<path class="st1" d="M115.8,177c-0.2,0-0.5,0-0.8,0c-0.4,0-0.7-0.2-0.8-0.2l0.4-2.2c0.2,0,0.4,0,0.7,0c0.4,0,0.5,0,0.5,0
	c0.5,0,1-0.2,1.4-0.7s0.7-1,1-1.9l0.7-1.5l-5.3-12.6l-1.5-0.2V156h6.3v1.7l-1.9,0.4l2.9,7.5l0.7,1.9l0,0l3.4-9.4l-1.9-0.4V156h6.1
	v1.7L126,158l-6,15.3c-0.4,0.7-0.7,1.4-1,1.9c-0.3,0.5-0.8,1-1.4,1.4C117.2,176.7,116.6,177,115.8,177z"/>
<path class="st1" d="M145.3,171c-2,0-3.8-0.5-5.1-1.4c-1.4-0.8-2.4-2-3.1-3.6s-1-3.2-1-5.3v-0.3c0-2,0.4-3.8,1-5.3
	c0.6-1.5,1.7-2.7,3.1-3.6c1.4-0.8,2.9-1.4,4.8-1.4c1.4,0,2.6,0.2,3.6,0.7c1,0.4,2,0.8,2.7,1.5v4.4H149l-0.4-3.2
	c-0.4-0.2-0.7-0.4-1-0.5c-0.4-0.2-0.8-0.4-1.2-0.4c-0.5,0-1-0.2-1.5-0.2c-1.4,0-2.4,0.4-3.4,1c-0.8,0.7-1.5,1.5-2,2.7
	c-0.5,1.2-0.7,2.6-0.7,4.1v0.4c0,1.7,0.2,3.1,0.7,4.2c0.5,1.2,1.2,2,2.2,2.7c1,0.7,2.2,1,3.6,1c0.7,0,1.2,0,1.9-0.2
	c0.7-0.2,1.2-0.4,1.5-0.7l0.4-2.7h2.2v4.4c-0.7,0.5-1.7,0.8-2.7,1C147.6,170.9,146.4,171,145.3,171z"/>
<path class="st1" d="M154,170.7V169l2.2-0.4v-10.7l-2.2-0.4v-1.7h4.8l0.2,1.9v0.4c0.4-0.8,1-1.4,1.5-1.9c0.7-0.5,1.4-0.7,2.2-0.7
	c0.4,0,0.5,0,0.8,0c0.4,0,0.5,0.2,0.7,0.2l-0.4,2.6l-2-0.2c-0.7,0-1.4,0.2-1.9,0.5c-0.5,0.4-0.8,0.8-1.2,1.5v8.5l2.2,0.4v1.7
	L154,170.7L154,170.7z"/>
<path class="st1" d="M172.4,171c-1.4,0-2.6-0.4-3.6-1c-1-0.7-1.9-1.5-2.4-2.6c-0.5-1.2-0.8-2.4-0.8-3.9v-0.7c0-1.4,0.4-2.7,0.8-3.8
	c0.5-1.2,1.4-2,2.4-2.7c1-0.7,2-1,3.2-1c1.4,0,2.6,0.4,3.4,0.8c0.8,0.5,1.5,1.4,2,2.4c0.5,1,0.7,2.2,0.7,3.6v1.7h-9.7l0,0
	c0,1,0.2,1.9,0.5,2.6c0.4,0.7,0.8,1.4,1.4,1.7c0.5,0.4,1.4,0.7,2.2,0.7c0.8,0,1.7-0.2,2.4-0.4c0.7-0.4,1.4-0.7,1.9-1l1,1.7
	c-0.5,0.5-1.2,1-2,1.4C174.4,171,173.4,171,172.4,171z M168.3,161.9h7v-0.4c0-0.7-0.2-1.4-0.4-1.9s-0.7-1-1.2-1.4s-1.2-0.5-1.9-0.5
	s-1.2,0.2-1.7,0.5c-0.5,0.4-0.8,0.8-1.2,1.4C168.6,160.2,168.3,161.2,168.3,161.9L168.3,161.9z"/>
<path class="st1" d="M185.1,171c-1.5,0-2.7-0.4-3.6-1.2c-0.8-0.7-1.2-1.9-1.2-3.2c0-1,0.4-1.7,0.8-2.6c0.5-0.7,1.2-1.2,2.2-1.7
	c1-0.4,2.2-0.5,3.6-0.5h2.7v-1.5c0-0.8-0.4-1.5-0.8-2c-0.5-0.5-1.4-0.7-2.4-0.7c-0.7,0-1.2,0-1.7,0.2c-0.5,0.2-0.8,0.4-1.2,0.7
	l-0.4,2h-2V157c0.7-0.5,1.5-1,2.4-1.2c0.8-0.4,1.9-0.4,2.9-0.4c1.9,0,3.2,0.5,4.2,1.4c1,0.8,1.5,2,1.5,3.8v7.3c0,0.2,0,0.4,0,0.5
	c0,0.2,0,0.4,0,0.5l1.5,0.2v1.7h-3.9c0-0.4-0.2-0.8-0.2-1c0-0.4,0-0.7-0.2-1c-0.5,0.7-1.2,1.2-2,1.7C187,171,186.2,171,185.1,171z
	 M185.5,169c0.8,0,1.7-0.2,2.6-0.7c0.7-0.5,1.4-1,1.5-1.5v-2.7h-2.7c-1.2,0-2.2,0.4-2.9,0.8c-0.7,0.7-1,1.2-1,2
	c0,0.7,0.2,1.2,0.7,1.5C184.3,168.7,184.6,169,185.5,169z"/>
<path class="st1" d="M201.3,171c-1,0-2-0.4-2.6-1c-0.6-0.6-1-1.7-1-3.1v-9h-2.4v-2h2.4v-3.6h2.7v3.6h3.2v2h-3.2v9
	c0,0.7,0.2,1.2,0.5,1.5c0.4,0.4,0.7,0.5,1.2,0.5c0.4,0,0.7,0,1-0.2c0.4-0.2,0.7-0.2,0.8-0.2l0.4,1.7c-0.4,0.2-0.8,0.2-1.5,0.4
	C202.2,171,201.8,171,201.3,171z"/>
<path class="st1" d="M206,170.7V169l2.2-0.4v-10.7l-2.2-0.4v-1.7h4.9v12.8l2.2,0.4v1.7L206,170.7L206,170.7z M208.1,152.4v-2.9h2.9
	v2.9H208.1z"/>
<path class="st1" d="M221.3,170.7l-5.3-12.9l-1.5-0.2v-1.7h6.3v1.7l-1.9,0.4l3.2,8.5l0.4,1.2l0,0l0.5-1.2l3.1-8.5l-2-0.4v-1.7h6.3
	v1.7l-1.5,0.2l-5.1,12.9H221.3z"/>
<path class="st1" d="M231.5,170.7V169l2.2-0.4v-10.7l-2.2-0.4v-1.7h4.9v12.8l2.2,0.4v1.7L231.5,170.7L231.5,170.7z M233.6,152.4
	v-2.9h2.9v2.9H233.6z"/>
<path class="st1" d="M246,171c-1.2,0-2-0.4-2.6-1c-0.7-0.7-1-1.7-1-3.1v-9H240v-2h2.4v-3.6h2.7v3.6h3.2v2h-3.2v9
	c0,0.7,0.2,1.2,0.5,1.5c0.4,0.4,0.7,0.5,1.2,0.5c0.4,0,0.7,0,1-0.2c0.4-0.2,0.7-0.2,0.8-0.2l0.4,1.7c-0.4,0.2-0.8,0.2-1.5,0.4
	C246.9,171,246.3,171,246,171z"/>
<path class="st1" d="M254,177c-0.2,0-0.5,0-0.8,0c-0.3,0-0.7-0.2-0.8-0.2l0.4-2.2c0.2,0,0.4,0,0.7,0s0.5,0,0.5,0
	c0.5,0,1-0.2,1.4-0.7c0.4-0.5,0.7-1,1-1.9l0.7-1.5l-5.3-12.6l-1.5-0.2V156h6.3v1.7l-1.9,0.4l2.9,7.5l0.7,1.9l0,0l3.4-9.4l-1.9-0.4
	V156h6.1v1.7l-1.5,0.2l-6,15.3c-0.4,0.7-0.7,1.4-1,1.9s-0.8,1-1.4,1.4C255.2,176.7,254.8,177,254,177z"/>
<path class="st1" d="M280.8,171c-1.4,0-2.6-0.2-3.4-0.7s-1.7-1.2-2.2-2c-0.5-0.8-0.8-1.9-0.8-2.9c0-1,0.4-2,1-2.9
	c0.7-0.8,1.5-1.7,2.7-2.6l0,0l0,0c-0.7-0.8-1.2-1.7-1.5-2.4c-0.4-0.7-0.5-1.5-0.5-2.2c0-1,0.2-1.9,0.7-2.7c0.5-0.8,1-1.2,1.7-1.7
	c0.7-0.4,1.7-0.5,2.7-0.5c1,0,1.9,0.2,2.6,0.5c0.7,0.4,1.4,0.8,1.7,1.5c0.4,0.7,0.7,1.4,0.7,2.2s-0.2,1.7-0.7,2.4
	c-0.5,0.7-1.2,1.4-2.2,2l-1.5,1l4.8,5.6c0.4-0.7,0.7-1.2,0.8-2c0.2-0.7,0.4-1.5,0.4-2.4h2.4c0,1.2-0.2,2.4-0.5,3.4
	c-0.4,1-0.8,2-1.5,2.7l2.6,3.1l0,0h-3.2l-1.2-1.4c-0.7,0.5-1.5,1-2.4,1.2C282.6,171,281.7,171,280.8,171z M280.8,169
	c0.7,0,1.4-0.2,2-0.4c0.6-0.2,1.2-0.5,1.9-1l-4.9-6l-0.5,0.4c-0.8,0.7-1.4,1.2-1.7,1.9c-0.4,0.5-0.4,1-0.4,1.5c0,1,0.4,1.9,1,2.6
	C279,168.7,279.5,169,280.8,169z M280.4,158.5l1.9-1.4c0.5-0.4,0.8-0.7,1-1.2c0.2-0.4,0.4-0.8,0.4-1.4c0-0.6-0.2-1-0.7-1.5
	c-0.5-0.5-1-0.7-1.7-0.7s-1.4,0.4-1.7,0.8c-0.4,0.5-0.7,1.2-0.7,1.9c0,0.5,0.2,1,0.4,1.5C279.3,157.1,279.8,158,280.4,158.5z"/>
<path class="st1" d="M299,170.7V169l2.2-0.4v-15.8l-2.2-0.4v-1.7h7.2v1.7l-2.2,0.4v15.8l2.2,0.4v1.7H299z"/>
<path class="st1" d="M308.4,170.7V169l2.2-0.4v-10.7l-2.2-0.4v-1.7h4.8l0.2,2.2c0.5-0.8,1.2-1.4,1.9-1.9c0.7-0.5,1.5-0.7,2.6-0.7
	c1.5,0,2.9,0.5,3.8,1.4c0.8,1,1.4,2.4,1.4,4.4v7.3l2.2,0.4v1.7h-7.2v-1.7l2.2-0.4v-7.2c0-1.4-0.4-2.2-0.8-2.7
	c-0.5-0.5-1.4-0.8-2.4-0.8c-0.8,0-1.5,0.2-2,0.5c-0.7,0.4-1,0.8-1.4,1.5v8.8l2.2,0.4v1.7C315.9,170.9,308.4,170.9,308.4,170.7z"/>
<path class="st1" d="M327.1,170.7V169l2.2-0.4v-10.7l-2.2-0.4v-1.7h4.8l0.2,2.2c0.5-0.8,1.2-1.4,1.9-1.9c0.7-0.5,1.5-0.7,2.6-0.7
	c1.5,0,2.9,0.5,3.8,1.4c0.8,0.8,1.4,2.4,1.4,4.4v7.3l2.2,0.4v1.7h-7.2v-1.7l2.2-0.4v-7.2c0-1.4-0.4-2.2-0.8-2.7
	c-0.5-0.5-1.4-0.8-2.4-0.8c-0.8,0-1.5,0.2-2,0.5c-0.7,0.4-1,0.8-1.4,1.5v8.8l2.2,0.4v1.7C334.4,170.9,327.1,170.9,327.1,170.7z"/>
<path class="st1" d="M352.2,171c-1.4,0-2.6-0.4-3.6-1c-1-0.7-1.7-1.5-2.4-2.7c-0.5-1.2-0.8-2.4-0.8-3.9v-0.2c0-1.5,0.4-2.7,0.8-3.9
	c0.5-1.2,1.4-2,2.4-2.7c1-0.7,2.2-1,3.6-1c1.4,0,2.6,0.4,3.6,1c1,0.7,1.7,1.5,2.4,2.7c0.5,1.2,0.8,2.4,0.8,3.9v0.4
	c0,1.5-0.4,2.7-0.8,3.9c-0.5,1.2-1.4,2-2.4,2.7C354.8,170.7,353.4,171,352.2,171z M352.2,169c0.8,0,1.5-0.2,2.2-0.7
	c0.5-0.5,1-1.2,1.4-1.9c0.4-0.7,0.5-1.7,0.5-2.9v-0.2c0-1-0.2-2-0.5-2.9c-0.4-0.8-0.7-1.5-1.4-1.9c-0.5-0.5-1.4-0.7-2.2-0.7
	s-1.5,0.2-2.2,0.7c-0.5,0.5-1,1.2-1.4,1.9c-0.4,0.8-0.5,1.7-0.5,2.9v0.4c0,1,0.2,2,0.5,2.9c0.4,0.8,0.7,1.5,1.4,1.9
	C350.6,168.7,351.4,169,352.2,169z"/>
<path class="st1" d="M366.7,170.7l-5.3-12.9l-1.5-0.2v-1.7h6.3v1.7l-1.9,0.4l3.2,8.5l0.4,1.2l0,0l0.5-1.2l3.1-8.5l-2-0.4v-1.7h6.3
	v1.7l-1.5,0.2l-5.1,12.9H366.7z"/>
<path class="st1" d="M381.8,171c-1.5,0-2.7-0.4-3.6-1.2c-0.8-0.7-1.2-1.9-1.2-3.2c0-1,0.4-1.7,0.8-2.6c0.5-0.7,1.2-1.2,2.2-1.7
	c1-0.4,2.2-0.5,3.6-0.5h2.7v-1.5c0-0.8-0.4-1.5-0.8-2c-0.5-0.5-1.4-0.7-2.4-0.7c-0.7,0-1.2,0-1.7,0.2c-0.5,0.2-0.8,0.4-1.2,0.7
	l-0.4,2h-2V157c0.7-0.5,1.5-1,2.4-1.2c0.9-0.2,1.9-0.4,2.9-0.4c1.9,0,3.2,0.5,4.2,1.4c1,0.8,1.5,2,1.5,3.8v7.3c0,0.2,0,0.4,0,0.5
	c0,0.2,0,0.4,0,0.5l1.5,0.2v1.7h-3.9c0-0.4-0.2-0.8-0.2-1c0-0.4,0-0.7-0.2-1c-0.5,0.7-1.2,1.2-2,1.7
	C383.3,170.9,382.5,171,381.8,171z M382,169c0.8,0,1.7-0.2,2.6-0.7c0.7-0.5,1.4-1,1.5-1.5v-2.7h-2.7c-1.2,0-2.2,0.4-2.9,0.8
	c-0.7,0.7-1,1.2-1,2c0,0.7,0.2,1.2,0.7,1.5C380.6,168.7,381.2,169,382,169z"/>
<path class="st1" d="M397.6,171c-1,0-2-0.4-2.6-1c-0.6-0.6-1-1.7-1-3.1v-9h-2.4v-2h2.4v-3.6h2.7v3.6h3.2v2h-3.2v9
	c0,0.7,0.2,1.2,0.5,1.5c0.4,0.4,0.7,0.5,1.2,0.5c0.4,0,0.7,0,1-0.2c0.4,0,0.7-0.2,0.8-0.2l0.4,1.7c-0.4,0.2-0.8,0.2-1.5,0.4
	C398.8,171,398.1,171,397.6,171z"/>
<path class="st1" d="M402.4,170.7V169l2.2-0.4v-10.7l-2.2-0.4v-1.7h4.9v12.8l2.2,0.4v1.7L402.4,170.7L402.4,170.7L402.4,170.7z
	 M404.4,152.4v-2.9h2.9v2.9H404.4z"/>
<path class="st1" d="M418.2,171c-1.4,0-2.6-0.4-3.6-1c-1-0.7-1.7-1.5-2.4-2.7c-0.5-1.2-0.8-2.4-0.8-3.9v-0.2c0-1.5,0.4-2.7,0.8-3.9
	c0.5-1.2,1.4-2,2.4-2.7s2.2-1,3.6-1s2.6,0.4,3.6,1c1,0.7,1.7,1.5,2.4,2.7c0.5,1.2,0.8,2.4,0.8,3.9v0.4c0,1.5-0.4,2.7-0.8,3.9
	c-0.5,1.2-1.4,2-2.4,2.7C420.9,170.7,419.6,171,418.2,171z M418.2,169c0.8,0,1.5-0.2,2.2-0.7c0.5-0.5,1-1.2,1.4-1.9s0.5-1.7,0.5-2.9
	v-0.2c0-1-0.2-2-0.5-2.9c-0.4-0.8-0.7-1.5-1.4-1.9c-0.5-0.5-1.4-0.7-2.2-0.7s-1.5,0.2-2.2,0.7c-0.5,0.5-1,1.2-1.4,1.9
	c-0.4,0.8-0.5,1.7-0.5,2.9v0.4c0,1,0.2,2,0.5,2.9c0.4,0.8,0.7,1.5,1.4,1.9C416.9,168.7,417.5,169,418.2,169z"/>
<path class="st1" d="M427.2,170.7V169l2.2-0.4v-10.7l-2.2-0.4v-1.7h4.8l0.2,2.2c0.5-0.8,1.2-1.4,1.9-1.9c0.7-0.5,1.5-0.7,2.6-0.7
	c1.5,0,2.9,0.5,3.8,1.4c0.8,1,1.4,2.4,1.4,4.4v7.3l2.2,0.4v1.7h-7.3v-1.7l2.2-0.4v-7.2c0-1.4-0.4-2.2-0.8-2.7
	c-0.5-0.5-1.4-0.8-2.4-0.8c-0.8,0-1.5,0.2-2,0.5c-0.7,0.4-1,0.8-1.4,1.5v8.8l2.2,0.4v1.7C434.5,170.9,427.2,170.9,427.2,170.7z"/>
</svg>
