<svg id="Layer_1" data-name="Layer 1" xmlns="http://www.w3.org/2000/svg" viewBox="0 0 444.56 178.48"><defs><style>.cls-1{fill:none;}.cls-2{fill:#fff;}</style></defs><rect class="cls-1" width="444.56" height="178.48"/><path class="cls-2" d="M188.18,130.09a73.26,73.26,0,0,1-22-3.4,70.65,70.65,0,0,1-20.1-10.2V89.79h13.1l2.9,19.6a48.82,48.82,0,0,0,12.1,5.3,53.23,53.23,0,0,0,14.09,1.9c5.8,0,10.6-.8,14.4-2.6a21,21,0,0,0,9.2-7.3,18,18,0,0,0,3.2-10.7,17.44,17.44,0,0,0-2.7-10,23.14,23.14,0,0,0-9-7.6c-4.2-2.2-9.9-4.1-17.1-5.8-8.5-2-15.79-4.6-21.69-8s-10.4-7.29-13.4-12.19a29.51,29.51,0,0,1-4.6-16.3,31,31,0,0,1,5.1-17.5,36.07,36.07,0,0,1,14.4-12.2c6.1-3.1,13.39-4.4,21.59-4.4a65.34,65.34,0,0,1,23.1,3.9,51.79,51.79,0,0,1,16.5,9.7v25h-13.1l-2.9-17.8a34.23,34.23,0,0,0-9.5-5.1c-3.7-1.4-8.5-2-14.3-2a29.23,29.23,0,0,0-12.79,2.6,20.06,20.06,0,0,0-8.5,7.2,19.21,19.21,0,0,0-3.1,10.7,15.54,15.54,0,0,0,2.7,9.4,25.22,25.22,0,0,0,9,7.2,90.65,90.65,0,0,0,16.79,5.6c13.1,3.19,23.1,8,29.7,14.39a31.92,31.92,0,0,1,10.2,23.6,30.86,30.86,0,0,1-5.4,17.7,36.61,36.61,0,0,1-15.1,12.1A66.54,66.54,0,0,1,188.18,130.09Z"/><path class="cls-2" d="M291.38,130.09a73.32,73.32,0,0,1-22-3.4,70.65,70.65,0,0,1-20.1-10.2V89.79h13.1l2.9,19.6a48.82,48.82,0,0,0,12.1,5.3,52.8,52.8,0,0,0,14.1,1.9c5.79,0,10.59-.8,14.39-2.6a21,21,0,0,0,9.2-7.3,18,18,0,0,0,3.2-10.7,17.44,17.44,0,0,0-2.7-10,23.14,23.14,0,0,0-9-7.6c-4.2-2.2-9.9-4.1-17.09-5.8-8.5-2-15.8-4.6-21.7-8s-10.4-7.29-13.4-12.19a29.27,29.27,0,0,1-4.6-16.3,31,31,0,0,1,5.1-17.5,36.07,36.07,0,0,1,14.4-12.2c6.1-3.1,13.4-4.4,21.6-4.4A65.33,65.33,0,0,1,314,5.9a51.79,51.79,0,0,1,16.5,9.7v25h-13.1l-2.9-17.8a34.23,34.23,0,0,0-9.5-5.1c-3.8-1.4-8.5-2-14.29-2a29.3,29.3,0,0,0-12.8,2.6,20.06,20.06,0,0,0-8.5,7.2,19.21,19.21,0,0,0-3.1,10.7,15.54,15.54,0,0,0,2.7,9.4,24.2,24.2,0,0,0,9,7.2,91.17,91.17,0,0,0,16.79,5.6c13.1,3.19,23.1,8,29.7,14.39s10.2,14.3,10.2,23.6a30.86,30.86,0,0,1-5.4,17.7,36.61,36.61,0,0,1-15.1,12.1A66.53,66.53,0,0,1,291.38,130.09Z"/><path class="cls-2" d="M349.67,128.19v-10.7l14-2.4V16.8l-14-2.4V3.6H442V33.5h-13.6l-1.9-17H380.37V57.1h45.89V70.39H380.37v45.2h48.79l1.9-17.1h13.4v29.9l-94.79-.2Z"/><path class="cls-2" d="M110.69,23.1C73.29,27.7,27.2,54,27.2,67.49s43,7.8,43,7.8,1.5-.2,1.7.7c.4,1.4-.7,1.7-.7,1.7s-58,19.2-58-10.6C13.2,37.7,101.79,4.7,104.69,3.7H0V126.09l11.7-19.6c37.4-4.8,83.49-30.9,83.49-44.5S52.4,54,52.4,54s-1.5.2-1.7-.7c-.4-1.4.7-1.7.7-1.7s58-19,58,10.89c0,29.4-88.59,62.4-91.49,63.4H122.59V3.4Z"/><path class="cls-2" d="M1.2,170.69V169l2.2-.4v-15.8l-2.2-.4v-1.7H9a8.52,8.52,0,0,1,4.6,1.2,8.5,8.5,0,0,1,3.1,3.6,11.91,11.91,0,0,1,1,5.1v.5a13.63,13.63,0,0,1-1,5.1,8.33,8.33,0,0,1-3.1,3.6,9.2,9.2,0,0,1-4.6,1.4H1.2v-.5Zm5.1-2H9.2a5.53,5.53,0,0,0,3.2-1,9,9,0,0,0,2-2.7,9.69,9.69,0,0,0,.7-3.9v-.5a9.69,9.69,0,0,0-.7-3.9,7.07,7.07,0,0,0-2-2.7,4.9,4.9,0,0,0-3.2-1H6.3Z"/><path class="cls-2" d="M19.9,170.69V169l2.2-.4v-10.7l-2.2-.4v-1.7h4.8l.2,1.9v.4a7.42,7.42,0,0,1,1.5-1.9,3.6,3.6,0,0,1,2.2-.7h.8c.4,0,.5.2.7.2l-.4,2.6-1.9-.2a3.83,3.83,0,0,0-1.9.5,4.66,4.66,0,0,0-1.2,1.5v8.5l2.2.4v1.7Z"/><path class="cls-2" d="M31.6,170.69V169l2.2-.4v-10.7l-2.2-.4v-1.7h4.9v12.8l2.2.4v1.7Zm2.1-18.3v-2.9h2.9v2.9Z"/><path class="cls-2" d="M46.9,170.69l-5.3-12.9-1.5-.2v-1.7h6.3v1.7l-2,.2,3.2,8.5.4,1.2h0l.5-1.2,3.1-8.5-2-.4v-1.7h6.3v1.7l-1.5.2-5.2,13-2.3.1Z"/><path class="cls-2" d="M63.69,171a6.91,6.91,0,0,1-3.6-1,6.63,6.63,0,0,1-2.39-2.6,9.7,9.7,0,0,1-.8-3.9v-.7a11.16,11.16,0,0,1,.8-3.8,6.27,6.27,0,0,1,2.39-2.7,5.28,5.28,0,0,1,3.2-1,7.73,7.73,0,0,1,3.4.8,6,6,0,0,1,2,2.4,8,8,0,0,1,.7,3.6v1.7h-9.7a6.69,6.69,0,0,0,.5,2.6,3.41,3.41,0,0,0,1.4,1.7,3.84,3.84,0,0,0,2.2.7,9.27,9.27,0,0,0,2.4-.4c.7-.4,1.4-.7,1.9-1l1,1.7a7.84,7.84,0,0,1-2,1.4A7.4,7.4,0,0,1,63.69,171Zm-4.1-9.1h7v-.4a5.33,5.33,0,0,0-.4-1.9,3.92,3.92,0,0,0-1.2-1.4,3.83,3.83,0,0,0-1.9-.5,3.1,3.1,0,0,0-1.7.5,5.53,5.53,0,0,0-1.2,1.4,11.2,11.2,0,0,1-.6,2.3Z"/><path class="cls-2" d="M71.39,170.69V169l2.2-.4v-10.7l-2.2-.4v-1.7h4.8l.2,2.2a6.87,6.87,0,0,1,1.9-1.9,4.21,4.21,0,0,1,2.6-.7,5.38,5.38,0,0,1,3.8,1.4,6.79,6.79,0,0,1,1.4,4.4v7.3l2.2.4v1.7h-7.2v-1.7l2.2-.4v-7.3a4.1,4.1,0,0,0-.8-2.7,3.46,3.46,0,0,0-2.4-.8,3.94,3.94,0,0,0-2,.5,3.39,3.39,0,0,0-1.4,1.5v8.8l2.2.4v1.7C78.69,170.69,71.39,170.69,71.39,170.69Z"/><path class="cls-2" d="M104.89,171a6.69,6.69,0,0,1-2.6-.5,4.36,4.36,0,0,1-1.9-1.7l-.2,1.9h-2.4v-19.4l-2.2-.4v-1.7h4.9v8.3a4,4,0,0,1,1.7-1.5,4.71,4.71,0,0,1,2.4-.5,6,6,0,0,1,3.2,1,6.49,6.49,0,0,1,2,2.9,11.58,11.58,0,0,1,.7,4.2v.4a9.2,9.2,0,0,1-.7,3.8,8.6,8.6,0,0,1-2,2.6A5.67,5.67,0,0,1,104.89,171Zm-.5-2a3.3,3.3,0,0,0,2.9-1.4c.7-.8.8-2,.8-3.6v-.4a13.74,13.74,0,0,0-.4-3.1,4.48,4.48,0,0,0-1.2-2,2.92,2.92,0,0,0-2.2-.7,2.72,2.72,0,0,0-2,.7,7.94,7.94,0,0,0-1.4,1.7v6.5a5.79,5.79,0,0,0,1.4,1.7C102.79,169,103.49,169,104.39,169Z"/><path class="cls-2" d="M115.79,177H115a2.91,2.91,0,0,1-.8-.2l.4-2.19h1.2a1.75,1.75,0,0,0,1.4-.7,5.58,5.58,0,0,0,1-1.9l.7-1.5-5.3-12.6-1.5-.2V156h6.3v1.7l-1.9.4,2.9,7.5.7,1.9h0l3.4-9.4-1.9-.4V156h6.1v1.7l-1.7.3-6,15.3c-.4.7-.7,1.4-1,1.9a4.75,4.75,0,0,1-1.4,1.39A6,6,0,0,1,115.79,177Z"/><path class="cls-2" d="M145.29,171a9,9,0,0,1-5.1-1.4,7.34,7.34,0,0,1-3.1-3.6,12.54,12.54,0,0,1-1-5.3v-.3a14.3,14.3,0,0,1,1-5.3,7.73,7.73,0,0,1,3.1-3.6,9.33,9.33,0,0,1,4.8-1.4,8,8,0,0,1,3.6.7,7.87,7.87,0,0,1,2.7,1.5v4.4H149l-.4-3.2a9.25,9.25,0,0,0-1-.5,2.84,2.84,0,0,0-1.2-.4c-.5,0-1-.2-1.5-.2a6.2,6.2,0,0,0-3.4,1,7.07,7.07,0,0,0-2,2.7,10.7,10.7,0,0,0-.7,4.1v.4a10.24,10.24,0,0,0,.7,4.2,5.88,5.88,0,0,0,2.2,2.7,6.09,6.09,0,0,0,3.6,1,6.15,6.15,0,0,0,1.9-.2,3.49,3.49,0,0,0,1.5-.7l.4-2.7h2.2v4.4a7.23,7.23,0,0,1-2.7,1A6.36,6.36,0,0,1,145.29,171Z"/><path class="cls-2" d="M154,170.69V169l2.2-.4v-10.7l-2.2-.4v-1.7h4.8l.2,1.9v.4a7.42,7.42,0,0,1,1.5-1.9,3.6,3.6,0,0,1,2.2-.7h.8c.4,0,.5.2.7.2l-.4,2.6-2-.2a3.83,3.83,0,0,0-1.9.5,4.66,4.66,0,0,0-1.2,1.5v8.5l2.2.4v1.7Z"/><path class="cls-2" d="M172.39,171a6.91,6.91,0,0,1-3.6-1,6.65,6.65,0,0,1-2.4-2.6,9.7,9.7,0,0,1-.8-3.9v-.7a11.16,11.16,0,0,1,.8-3.8,6.29,6.29,0,0,1,2.4-2.7,5.28,5.28,0,0,1,3.2-1,7.65,7.65,0,0,1,3.39.8,6,6,0,0,1,2,2.4,8,8,0,0,1,.7,3.6v1.7h-9.69a6.69,6.69,0,0,0,.5,2.6,4,4,0,0,0,1.4,1.7,3.84,3.84,0,0,0,2.2.7,9.27,9.27,0,0,0,2.4-.4c.69-.4,1.39-.7,1.89-1l1,1.7a7.84,7.84,0,0,1-2,1.4A8.93,8.93,0,0,1,172.39,171Zm-4.1-9.1h7v-.4a5.33,5.33,0,0,0-.4-1.9,3.92,3.92,0,0,0-1.2-1.4,3,3,0,0,0-1.9-.5,3.1,3.1,0,0,0-1.7.5,5.53,5.53,0,0,0-1.2,1.4,6,6,0,0,0-.6,2.3Z"/><path class="cls-2" d="M185.08,171a5.22,5.22,0,0,1-3.6-1.2,4.22,4.22,0,0,1-1.2-3.2,6.07,6.07,0,0,1,.8-2.6,5.61,5.61,0,0,1,2.2-1.7,9.8,9.8,0,0,1,3.6-.5h2.7v-1.5a3.29,3.29,0,0,0-.8-2,3.44,3.44,0,0,0-2.4-.7,4.42,4.42,0,0,0-1.7.2,4.73,4.73,0,0,0-1.2.7l-.4,2h-2V157a8.63,8.63,0,0,1,5.3-1.6,5.9,5.9,0,0,1,4.2,1.4,4.49,4.49,0,0,1,1.5,3.8v8.3l1.5.2v1.7h-3.9a8.66,8.66,0,0,0-.2-1,1.64,1.64,0,0,0-.2-1,6.68,6.68,0,0,1-2,1.7C187,171,186.18,171,185.08,171Zm.4-2a5.36,5.36,0,0,0,2.6-.7c.7-.5,1.4-1,1.5-1.5v-2.7h-2.7a5.87,5.87,0,0,0-2.9.8,2.6,2.6,0,0,0-1,2,1.58,1.58,0,0,0,.7,1.5A3.22,3.22,0,0,0,185.48,169Z"/><path class="cls-2" d="M201.28,171a3.8,3.8,0,0,1-2.6-1,4.41,4.41,0,0,1-1-3.1v-9h-2.4v-2h2.4v-3.6h2.7v3.6h3.2v2h-3.2v9a2.07,2.07,0,0,0,.5,1.5,1.46,1.46,0,0,0,1.2.5,1.64,1.64,0,0,0,1-.2,1.72,1.72,0,0,1,.8-.2l.4,1.7a10.2,10.2,0,0,1-1.5.4A2.28,2.28,0,0,1,201.28,171Z"/><path class="cls-2" d="M206,170.69V169l2.2-.4v-10.7l-2.2-.4v-1.7h4.9v12.8l2.2.4v1.7Zm2.1-18.3v-2.9H211v2.9Z"/><path class="cls-2" d="M221.28,170.69l-5.3-12.9-1.5-.2v-1.7h6.3v1.7l-1.9.4,3.2,8.5.4,1.2h0l.5-1.2,3.1-8.5-2-.4v-1.7h6.3v1.7l-1.5.2-5.1,12.9Z"/><path class="cls-2" d="M231.48,170.69V169l2.2-.4v-10.7l-2.2-.4v-1.7h4.9v12.8l2.2.4v1.7Zm2.1-18.3v-2.9h2.9v2.9Z"/><path class="cls-2" d="M246,171a3.46,3.46,0,0,1-2.6-1,4.14,4.14,0,0,1-1-3.1v-9H240v-2h2.4v-3.6h2.7v3.6h3.2v2h-3.2v9a2.07,2.07,0,0,0,.5,1.5,1.46,1.46,0,0,0,1.2.5,1.64,1.64,0,0,0,1-.2,1.72,1.72,0,0,1,.8-.2l.4,1.7a10.2,10.2,0,0,1-1.5.4A2.57,2.57,0,0,1,246,171Z"/><path class="cls-2" d="M254,177h-.8a4.54,4.54,0,0,1-.8-.2l.4-2.19H254a1.75,1.75,0,0,0,1.4-.7,5.58,5.58,0,0,0,1-1.9l.7-1.5-5.3-12.6-1.5-.2V156h6.3v1.7l-1.9.4,2.9,7.5.7,1.9h0l3.4-9.4-1.9-.4V156h6.1v1.7l-1.5.2-6,15.3c-.4.7-.7,1.4-1,1.9a4.75,4.75,0,0,1-1.4,1.39A7.34,7.34,0,0,1,254,177Z"/><path class="cls-2" d="M280.78,171a6.62,6.62,0,0,1-3.4-.7,7,7,0,0,1-2.2-2,5.74,5.74,0,0,1-.8-2.9,5.34,5.34,0,0,1,1-2.9,17,17,0,0,1,2.7-2.6h0a9.33,9.33,0,0,1-1.5-2.4,4.42,4.42,0,0,1-.5-2.2,5,5,0,0,1,.7-2.7,5.51,5.51,0,0,1,1.7-1.7,5.67,5.67,0,0,1,2.7-.5,6.69,6.69,0,0,1,2.6.5,3.59,3.59,0,0,1,1.7,1.5,4.39,4.39,0,0,1,.7,2.2,4.2,4.2,0,0,1-.7,2.4,7.22,7.22,0,0,1-2.2,2l-1.5,1,4.8,5.6a5,5,0,0,0,.8-2,8.6,8.6,0,0,0,.4-2.4h2.4a12.13,12.13,0,0,1-.5,3.4,7.87,7.87,0,0,1-1.5,2.7l2.6,3.1h-3.2l-1.2-1.4a6.77,6.77,0,0,1-2.4,1.2A5.53,5.53,0,0,1,280.78,171Zm0-2a6.47,6.47,0,0,0,2-.4,7,7,0,0,0,1.9-1l-4.9-6-.5.4a5.83,5.83,0,0,0-1.7,1.9,2.15,2.15,0,0,0-.4,1.5,4,4,0,0,0,1,2.6A3.25,3.25,0,0,0,280.78,169Zm-.4-10.5,1.9-1.4a2.81,2.81,0,0,0,1-1.2,2.89,2.89,0,0,0,.4-1.4,1.93,1.93,0,0,0-.7-1.5,2.19,2.19,0,0,0-1.7-.7,2.3,2.3,0,0,0-1.7.8,3.16,3.16,0,0,0-.7,1.9,4.19,4.19,0,0,0,.4,1.5A3.12,3.12,0,0,0,280.38,158.49Z"/><path class="cls-2" d="M299,170.69V169l2.2-.4v-15.8l-2.2-.4v-1.7h7.2v1.7l-2.2.4v15.8l2.2.4v1.7Z"/><path class="cls-2" d="M308.37,170.69V169l2.2-.4v-10.7l-2.2-.4v-1.7h4.8l.2,2.2a6.87,6.87,0,0,1,1.9-1.9,4.21,4.21,0,0,1,2.6-.7,5.38,5.38,0,0,1,3.8,1.4,6.79,6.79,0,0,1,1.4,4.4v7.3l2.2.4v1.7h-7.2v-1.7l2.2-.4v-7.2a4.1,4.1,0,0,0-.8-2.7,3.46,3.46,0,0,0-2.4-.8,3.94,3.94,0,0,0-2,.5,3.39,3.39,0,0,0-1.4,1.5v8.8l2.2.4v1.7A47,47,0,0,1,308.37,170.69Z"/><path class="cls-2" d="M327.07,170.69V169l2.2-.4v-10.7l-2.2-.4v-1.7h4.8l.2,2.2a6.87,6.87,0,0,1,1.9-1.9,4.21,4.21,0,0,1,2.6-.7,5.38,5.38,0,0,1,3.8,1.4,6.4,6.4,0,0,1,1.4,4.4v7.3l2.2.4v1.7h-7.2v-1.7l2.2-.4v-7.2a4.1,4.1,0,0,0-.8-2.7,3.46,3.46,0,0,0-2.4-.8,3.94,3.94,0,0,0-2,.5,3.39,3.39,0,0,0-1.4,1.5v8.8l2.2.4v1.7A46.93,46.93,0,0,1,327.07,170.69Z"/><path class="cls-2" d="M352.17,171a6.91,6.91,0,0,1-3.6-1,7.91,7.91,0,0,1-2.4-2.7,9.7,9.7,0,0,1-.8-3.9v-.2a11.75,11.75,0,0,1,.8-3.9,6.29,6.29,0,0,1,2.4-2.7,6.09,6.09,0,0,1,3.6-1,6.91,6.91,0,0,1,3.6,1,7.91,7.91,0,0,1,2.4,2.7,9.7,9.7,0,0,1,.8,3.9v.4a11.75,11.75,0,0,1-.8,3.9,6.29,6.29,0,0,1-2.4,2.7A8.63,8.63,0,0,1,352.17,171Zm0-2a3.6,3.6,0,0,0,2.2-.7,9.35,9.35,0,0,0,1.4-1.9,6,6,0,0,0,.5-2.9v-.2a9.29,9.29,0,0,0-.5-2.9,4,4,0,0,0-1.4-1.9,3.23,3.23,0,0,0-2.2-.7,3.6,3.6,0,0,0-2.2.7,9.35,9.35,0,0,0-1.4,1.9,6.29,6.29,0,0,0-.5,2.9v.4a9.29,9.29,0,0,0,.5,2.9,4,4,0,0,0,1.4,1.9A7.12,7.12,0,0,0,352.17,169Z"/><path class="cls-2" d="M366.67,170.69l-5.3-12.9-1.5-.2v-1.7h6.3v1.7l-1.9.4,3.2,8.5.4,1.2h0l.5-1.2,3.1-8.5-2-.4v-1.7h6.3v1.7l-1.5.2-5.1,12.9Z"/><path class="cls-2" d="M381.77,171a5.22,5.22,0,0,1-3.6-1.2,4.22,4.22,0,0,1-1.2-3.2,6.07,6.07,0,0,1,.8-2.6,5.61,5.61,0,0,1,2.2-1.7,9.8,9.8,0,0,1,3.6-.5h2.7v-1.5a3.29,3.29,0,0,0-.8-2,3.44,3.44,0,0,0-2.4-.7,4.42,4.42,0,0,0-1.7.2,4.73,4.73,0,0,0-1.2.7l-.4,2h-2V157a6.77,6.77,0,0,1,2.4-1.2,13.52,13.52,0,0,1,2.9-.4,5.9,5.9,0,0,1,4.2,1.4,4.49,4.49,0,0,1,1.5,3.8v8.3l1.5.2v1.7h-3.9a8.66,8.66,0,0,0-.2-1,1.64,1.64,0,0,0-.2-1,6.68,6.68,0,0,1-2,1.7A4.42,4.42,0,0,1,381.77,171Zm.2-2a5.36,5.36,0,0,0,2.6-.7c.7-.5,1.4-1,1.5-1.5v-2.7h-2.7a5.87,5.87,0,0,0-2.9.8,2.6,2.6,0,0,0-1,2,1.58,1.58,0,0,0,.7,1.5A3,3,0,0,0,382,169Z"/><path class="cls-2" d="M397.57,171a3.8,3.8,0,0,1-2.6-1,4.41,4.41,0,0,1-1-3.1v-9h-2.4v-2H394v-3.6h2.7v3.6h3.2v2h-3.2v9a2.07,2.07,0,0,0,.5,1.5,1.46,1.46,0,0,0,1.2.5,1.64,1.64,0,0,0,1-.2,2.91,2.91,0,0,0,.8-.2l.4,1.7a10.2,10.2,0,0,1-1.5.4C398.77,171,398.07,171,397.57,171Z"/><path class="cls-2" d="M402.37,170.69V169l2.2-.4v-10.7l-2.2-.4v-1.7h4.9v12.8l2.19.4v1.7Zm2-18.3v-2.9h2.9v2.9Z"/><path class="cls-2" d="M418.16,171a6.91,6.91,0,0,1-3.6-1,7.91,7.91,0,0,1-2.4-2.7,9.7,9.7,0,0,1-.8-3.9v-.2a11.75,11.75,0,0,1,.8-3.9,6.29,6.29,0,0,1,2.4-2.7,6.09,6.09,0,0,1,3.6-1,6.91,6.91,0,0,1,3.6,1,7.91,7.91,0,0,1,2.4,2.7,9.7,9.7,0,0,1,.8,3.9v.4a11.75,11.75,0,0,1-.8,3.9,6.29,6.29,0,0,1-2.4,2.7A7.67,7.67,0,0,1,418.16,171Zm0-2a3.6,3.6,0,0,0,2.2-.7,9.35,9.35,0,0,0,1.4-1.9,6,6,0,0,0,.5-2.9v-.2a9.29,9.29,0,0,0-.5-2.9,4,4,0,0,0-1.4-1.9,3.23,3.23,0,0,0-2.2-.7,3.6,3.6,0,0,0-2.2.7,9.35,9.35,0,0,0-1.4,1.9,6.29,6.29,0,0,0-.5,2.9v.4a9.29,9.29,0,0,0,.5,2.9,4,4,0,0,0,1.4,1.9A11.22,11.22,0,0,0,418.16,169Z"/><path class="cls-2" d="M427.16,170.69V169l2.2-.4v-10.7l-2.2-.4v-1.7H432l.2,2.2a6.87,6.87,0,0,1,1.9-1.9,4.21,4.21,0,0,1,2.6-.7,5.38,5.38,0,0,1,3.8,1.4,6.79,6.79,0,0,1,1.4,4.4v7.3l2.2.4v1.7h-7.3v-1.7l2.2-.4v-7.2a4.1,4.1,0,0,0-.8-2.7,3.46,3.46,0,0,0-2.4-.8,3.94,3.94,0,0,0-2,.5,3.39,3.39,0,0,0-1.4,1.5v8.8l2.2.4v1.7A45.7,45.7,0,0,1,427.16,170.69Z"/></svg>