<?xml version="1.0" encoding="utf-8"?>
<!-- Generator: Adobe Illustrator 25.4.1, SVG Export Plug-In . SVG Version: 6.00 Build 0)  -->
<svg version="1.1" id="Layer_1" xmlns="http://www.w3.org/2000/svg" xmlns:xlink="http://www.w3.org/1999/xlink" x="0px" y="0px"
	 viewBox="0 0 444.6 178.5" style="enable-background:new 0 0 444.6 178.5;" xml:space="preserve">
<style type="text/css">
	.st0{fill:#FFFFFF;}
	.st1{fill:#F15A22;}
</style>
<rect x="0" y="3.4" class="st0" width="122.6" height="122.7"/>
<path class="st0" d="M188.2,130c-7.5,0-14.9-1.2-22-3.4c-7.2-2.3-14-5.7-20.1-10.2V89.8h13.1l2.9,19.6c3.8,2.3,7.8,4.1,12.1,5.3
	c4.6,1.3,9.3,1.9,14.1,1.9c5.8,0,10.6-0.8,14.4-2.6c3.7-1.5,6.9-4,9.2-7.3c2.2-3.1,3.3-6.9,3.2-10.7c0.1-3.5-0.8-7-2.7-10
	c-2.3-3.3-5.4-5.9-9-7.6c-4.2-2.2-9.9-4.1-17.1-5.8c-8.5-2-15.8-4.6-21.7-8c-6-3.4-10.4-7.3-13.4-12.2c-3.1-4.9-4.7-10.5-4.6-16.3
	c-0.1-6.2,1.7-12.3,5.1-17.5c3.6-5.3,8.6-9.5,14.4-12.2c6.1-3.1,13.4-4.4,21.6-4.4c7.9-0.1,15.7,1.2,23.1,3.9
	c6.1,2.2,11.6,5.5,16.5,9.7v25h-13.1l-2.9-17.8c-2.9-2.2-6.1-3.9-9.5-5.1c-3.7-1.4-8.5-2-14.3-2c-4.4-0.1-8.8,0.8-12.8,2.6
	c-3.5,1.5-6.4,4-8.5,7.2s-3.1,6.9-3.1,10.7c-0.1,3.3,0.8,6.6,2.7,9.4c2.4,3.1,5.5,5.5,9,7.2c5.4,2.4,11,4.3,16.8,5.6
	c13.1,3.2,23.1,8,29.7,14.4c6.6,6.1,10.3,14.6,10.2,23.6c0.1,6.3-1.8,12.5-5.4,17.7c-3.9,5.3-9.1,9.5-15.1,12.1
	C203.7,128.8,196,130.1,188.2,130z"/>
<path class="st0" d="M291.4,130c-7.5,0-14.9-1.2-22-3.4c-7.2-2.3-14-5.7-20.1-10.2V89.8h13.1l2.9,19.6c3.8,2.3,7.8,4.1,12.1,5.3
	c4.6,1.3,9.3,1.9,14.1,1.9c5.8,0,10.6-0.8,14.4-2.6c3.7-1.5,6.9-4,9.2-7.3c2.2-3.1,3.3-6.9,3.2-10.7c0.1-3.5-0.8-7-2.7-10
	c-2.3-3.3-5.4-5.9-9-7.6c-4.2-2.2-9.9-4.1-17.1-5.8c-8.5-2-15.8-4.6-21.7-8c-6-3.4-10.4-7.3-13.4-12.2c-3.1-4.9-4.7-10.5-4.6-16.3
	c-0.1-6.2,1.7-12.3,5.1-17.5c3.6-5.3,8.6-9.5,14.4-12.2c6.1-3.1,13.4-4.4,21.6-4.4c7.9-0.1,15.7,1.2,23.1,3.9
	c6.1,2.2,11.6,5.5,16.5,9.7v25h-13.1l-2.9-17.8c-2.9-2.2-6.1-3.9-9.5-5.1c-3.8-1.4-8.5-2-14.3-2c-4.4-0.1-8.8,0.8-12.8,2.6
	c-3.5,1.5-6.4,4-8.5,7.2s-3.1,6.9-3.1,10.7c-0.1,3.3,0.8,6.6,2.7,9.4c2.4,3.1,5.5,5.6,9,7.2c5.4,2.4,11,4.3,16.8,5.6
	c13.1,3.2,23.1,8,29.7,14.4c6.6,6.5,10.2,14.3,10.2,23.6c0.1,6.3-1.8,12.5-5.4,17.7c-3.9,5.3-9.1,9.5-15.1,12.1
	C306.9,128.8,299.2,130.1,291.4,130z"/>
<path class="st0" d="M349.7,128.1v-10.7l14-2.4V16.8l-14-2.4V3.6H442v29.9h-13.6l-1.9-17h-46.1v40.6h45.9v13.3h-45.9v45.2h48.8
	l1.9-17.1h13.4v29.9L349.7,128.1z"/>
<path class="st0" d="M1.2,170.6v-1.7l2.2-0.4v-15.8l-2.2-0.4v-1.7H9c1.6,0,3.2,0.4,4.6,1.2c1.4,0.9,2.4,2.1,3.1,3.6
	c0.7,1.6,1,3.3,1,5.1v0.5c0,1.7-0.3,3.5-1,5.1c-0.7,1.5-1.7,2.7-3.1,3.6c-1.4,0.9-3,1.3-4.6,1.4H1.2V170.6L1.2,170.6z M6.3,168.6
	h2.9c1.1,0,2.3-0.3,3.2-1c0.8-0.8,1.5-1.7,2-2.7c0.5-1.2,0.7-2.6,0.7-3.9v-0.5c0-1.3-0.2-2.7-0.7-3.9c-0.4-1-1.1-2-2-2.7
	s-2-1.1-3.2-1H6.3V168.6z"/>
<path class="st0" d="M19.9,170.6v-1.7l2.2-0.4v-10.7l-2.2-0.4v-1.7h4.8l0.2,1.9v0.4c0.4-0.7,0.9-1.4,1.5-1.9s1.4-0.7,2.2-0.7h0.8
	c0.4,0,0.5,0.2,0.7,0.2l-0.4,2.6l-1.9-0.2c-0.7,0-1.3,0.2-1.9,0.5c-0.5,0.4-0.9,0.9-1.2,1.5v8.5l2.2,0.4v1.7L19.9,170.6z"/>
<polygon class="st0" points="31.6,170.6 31.6,168.9 33.8,168.5 33.8,157.8 31.6,157.4 31.6,155.7 36.5,155.7 36.5,168.5 38.7,168.9 
	38.7,170.6 "/>
<rect x="33.7" y="149.4" class="st0" width="2.9" height="2.9"/>
<path class="st0" d="M46.9,170.6l-5.3-12.9l-1.5-0.2v-1.7h6.3v1.7l-2,0.2l3.2,8.5l0.4,1.2l0,0l0.5-1.2l3.1-8.5l-2-0.4v-1.7h6.3v1.7
	l-1.5,0.2l-5.2,13L46.9,170.6L46.9,170.6z"/>
<path class="st0" d="M63.7,170.9c-1.3,0-2.5-0.3-3.6-1c-1-0.6-1.8-1.5-2.4-2.6c-0.5-1.2-0.8-2.6-0.8-3.9v-0.7c0-1.3,0.3-2.6,0.8-3.8
	c0.5-1.1,1.4-2.1,2.4-2.7c0.9-0.7,2.1-1,3.2-1c1.2,0,2.3,0.3,3.4,0.8c0.9,0.6,1.6,1.4,2,2.4c0.5,1.1,0.7,2.4,0.7,3.6v1.7h-9.7
	c0,0.9,0.2,1.8,0.5,2.6c0.3,0.7,0.8,1.3,1.4,1.7c0.6,0.5,1.4,0.7,2.2,0.7c0.8,0,1.6-0.2,2.4-0.4c0.7-0.4,1.4-0.7,1.9-1l1,1.7
	c-0.6,0.6-1.3,1-2,1.4C66,170.9,64.9,171,63.7,170.9z M59.6,161.8h7v-0.4c0-0.7-0.2-1.3-0.4-1.9c-0.3-0.6-0.7-1-1.2-1.4
	c-0.6-0.3-1.2-0.5-1.9-0.5c-0.6,0-1.2,0.2-1.7,0.5c-0.5,0.4-0.9,0.9-1.2,1.4C60.1,160.3,59.9,161.1,59.6,161.8L59.6,161.8z"/>
<path class="st0" d="M71.4,170.6v-1.7l2.2-0.4v-10.7l-2.2-0.4v-1.7h4.8l0.2,2.2c0.5-0.8,1.1-1.4,1.9-1.9s1.7-0.8,2.6-0.7
	c1.4,0,2.8,0.5,3.8,1.4c1,1.3,1.5,2.8,1.4,4.4v7.3l2.2,0.4v1.7h-7.2v-1.7l2.2-0.4v-7.3c0.1-1-0.2-1.9-0.8-2.7
	c-0.7-0.6-1.5-0.8-2.4-0.8c-0.7,0-1.4,0.2-2,0.5s-1.1,0.9-1.4,1.5v8.8l2.2,0.4v1.7C78.7,170.6,71.4,170.6,71.4,170.6z"/>
<path class="st0" d="M104.9,170.9c-0.9,0-1.8-0.2-2.6-0.5c-0.8-0.4-1.4-1-1.9-1.7l-0.2,1.9h-2.4v-19.4l-2.2-0.4v-1.7h4.9v8.3
	c0.4-0.7,1-1.2,1.7-1.5c0.7-0.4,1.6-0.5,2.4-0.5c1.1,0,2.2,0.4,3.2,1c0.9,0.8,1.6,1.8,2,2.9c0.5,1.3,0.7,2.8,0.7,4.2v0.4
	c0,1.3-0.2,2.6-0.7,3.8c-0.5,1-1.2,1.9-2,2.6C106.9,170.8,105.9,171,104.9,170.9z M104.4,168.9c1.1,0.1,2.2-0.5,2.9-1.4
	c0.7-0.8,0.8-2,0.8-3.6v-0.4c0-1-0.1-2.1-0.4-3.1c-0.2-0.8-0.6-1.5-1.2-2s-1.4-0.8-2.2-0.7c-0.7,0-1.5,0.2-2,0.7s-1,1.1-1.4,1.7v6.5
	c0.4,0.7,0.8,1.2,1.4,1.7C102.8,168.9,103.5,168.9,104.4,168.9L104.4,168.9z"/>
<path class="st0" d="M115.8,176.9H115c-0.3,0-0.5-0.1-0.8-0.2l0.4-2.2h1.2c0.6,0,1.1-0.3,1.4-0.7c0.5-0.6,0.8-1.2,1-1.9l0.7-1.5
	l-5.3-12.6l-1.5-0.2v-1.7h6.3v1.7l-1.9,0.4l2.9,7.5l0.7,1.9l0,0l3.4-9.4l-1.9-0.4v-1.7h6.1v1.7l-1.7,0.3l-6,15.3
	c-0.4,0.7-0.7,1.4-1,1.9c-0.4,0.6-0.8,1-1.4,1.4C117,176.8,116.4,176.9,115.8,176.9z"/>
<path class="st0" d="M145.3,170.9c-1.8,0.1-3.6-0.4-5.1-1.4c-1.4-0.8-2.5-2.1-3.1-3.6c-0.7-1.7-1.1-3.5-1-5.3v-0.3
	c0-1.8,0.3-3.6,1-5.3c0.6-1.5,1.7-2.8,3.1-3.6c1.4-0.9,3.1-1.4,4.8-1.4c1.2,0,2.5,0.2,3.6,0.7c1,0.3,1.9,0.8,2.7,1.5v4.4H149
	l-0.4-3.2c-0.3-0.2-0.7-0.4-1-0.5c-0.4-0.2-0.8-0.4-1.2-0.4c-0.5,0-1-0.2-1.5-0.2c-1.2,0-2.4,0.3-3.4,1c-0.9,0.7-1.6,1.7-2,2.7
	c-0.5,1.3-0.7,2.7-0.7,4.1v0.4c-0.1,1.4,0.2,2.9,0.7,4.2c0.4,1.1,1.2,2,2.2,2.7c1.1,0.7,2.3,1.1,3.6,1c0.6,0,1.3,0,1.9-0.2
	c0.5-0.1,1.1-0.3,1.5-0.7l0.4-2.7h2.2v4.4c-0.8,0.5-1.7,0.9-2.7,1C147.6,170.8,146.4,171,145.3,170.9z"/>
<path class="st0" d="M154,170.6v-1.7l2.2-0.4v-10.7l-2.2-0.4v-1.7h4.8l0.2,1.9v0.4c0.4-0.7,0.9-1.4,1.5-1.9s1.4-0.7,2.2-0.7h0.8
	c0.4,0,0.5,0.2,0.7,0.2l-0.4,2.6l-2-0.2c-0.7,0-1.3,0.2-1.9,0.5c-0.5,0.4-0.9,0.9-1.2,1.5v8.5l2.2,0.4v1.7H154z"/>
<path class="st0" d="M172.4,170.9c-1.3,0-2.5-0.3-3.6-1c-1-0.6-1.8-1.5-2.4-2.6c-0.5-1.2-0.8-2.6-0.8-3.9v-0.7
	c0-1.3,0.3-2.6,0.8-3.8c0.5-1.1,1.4-2.1,2.4-2.7c0.9-0.7,2.1-1,3.2-1c1.2,0,2.3,0.3,3.4,0.8c0.9,0.6,1.6,1.4,2,2.4
	c0.5,1.1,0.7,2.4,0.7,3.6v1.7h-9.7c0,0.9,0.2,1.8,0.5,2.6c0.3,0.7,0.8,1.3,1.4,1.7c0.6,0.5,1.4,0.7,2.2,0.7s1.6-0.2,2.4-0.4
	c0.7-0.4,1.4-0.7,1.9-1l1,1.7c-0.6,0.6-1.3,1-2,1.4C174.7,170.8,173.6,171,172.4,170.9z M168.3,161.8h7v-0.4c0-0.7-0.2-1.3-0.4-1.9
	c-0.3-0.6-0.7-1-1.2-1.4c-0.6-0.4-1.2-0.5-1.9-0.5c-0.6,0-1.2,0.2-1.7,0.5c-0.5,0.4-0.9,0.9-1.2,1.4
	C168.6,160.3,168.3,161,168.3,161.8L168.3,161.8z"/>
<path class="st0" d="M185.1,170.9c-1.3,0.1-2.6-0.4-3.6-1.2c-0.8-0.8-1.3-2-1.2-3.2c0.1-0.9,0.3-1.8,0.8-2.6
	c0.6-0.7,1.3-1.3,2.2-1.7c1.2-0.4,2.4-0.6,3.6-0.5h2.7v-1.5c0-0.7-0.3-1.4-0.8-2c-0.7-0.5-1.5-0.8-2.4-0.7c-0.6,0-1.2,0-1.7,0.2
	c-0.4,0.2-0.8,0.4-1.2,0.7l-0.4,2h-2v-3.5c1.5-1.1,3.4-1.7,5.3-1.6c1.5-0.1,3,0.4,4.2,1.4c1.1,1,1.6,2.4,1.5,3.8v8.3l1.5,0.2v1.7
	h-3.9c0-0.3-0.1-0.7-0.2-1c0-0.3,0-0.7-0.2-1c-0.5,0.7-1.2,1.3-2,1.7C187,170.9,186.2,170.9,185.1,170.9z M185.5,168.9
	c0.9,0,1.8-0.2,2.6-0.7c0.7-0.5,1.4-1,1.5-1.5V164h-2.7c-1,0-2,0.3-2.9,0.8c-0.6,0.5-1,1.2-1,2c-0.1,0.6,0.2,1.2,0.7,1.5
	C184.2,168.7,184.9,168.9,185.5,168.9L185.5,168.9z"/>
<path class="st0" d="M201.3,170.9c-1,0-1.9-0.3-2.6-1c-0.7-0.9-1.1-2-1-3.1v-9h-2.4v-2h2.4v-3.6h2.7v3.6h3.2v2h-3.2v9
	c0,0.5,0.1,1.1,0.5,1.5c0.3,0.3,0.7,0.5,1.2,0.5c0.3,0,0.7,0,1-0.2c0.2-0.1,0.5-0.2,0.8-0.2l0.4,1.7c-0.5,0.2-1,0.3-1.5,0.4
	C202.4,170.8,201.8,171,201.3,170.9z"/>
<polygon class="st0" points="206,170.6 206,168.9 208.2,168.5 208.2,157.8 206,157.4 206,155.7 210.9,155.7 210.9,168.5 
	213.1,168.9 213.1,170.6 "/>
<rect x="208.1" y="149.4" class="st0" width="2.9" height="2.9"/>
<path class="st0" d="M221.3,170.6l-5.3-12.9l-1.5-0.2v-1.7h6.3v1.7l-1.9,0.4l3.2,8.5l0.4,1.2l0,0l0.5-1.2l3.1-8.5l-2-0.4v-1.7h6.3
	v1.7l-1.5,0.2l-5.1,12.9H221.3z"/>
<polygon class="st0" points="231.5,170.6 231.5,168.9 233.7,168.5 233.7,157.8 231.5,157.4 231.5,155.7 236.4,155.7 236.4,168.5 
	238.6,168.9 238.6,170.6 "/>
<rect x="233.6" y="149.4" class="st0" width="2.9" height="2.9"/>
<path class="st0" d="M246,170.9c-1,0-1.9-0.3-2.6-1c-0.7-0.9-1.1-2-1-3.1v-9H240v-2h2.4v-3.6h2.7v3.6h3.2v2h-3.2v9
	c0,0.5,0.1,1.1,0.5,1.5c0.3,0.3,0.7,0.5,1.2,0.5c0.3,0,0.7,0,1-0.2c0.2-0.1,0.5-0.2,0.8-0.2l0.4,1.7c-0.5,0.2-1,0.3-1.5,0.4
	C247.1,170.8,246.5,171,246,170.9z"/>
<path class="st0" d="M254,176.9h-0.8c-0.3,0-0.5-0.1-0.8-0.2l0.4-2.2h1.2c0.6,0,1.1-0.3,1.4-0.7c0.5-0.6,0.8-1.2,1-1.9l0.7-1.5
	l-5.3-12.6l-1.5-0.2v-1.7h6.3v1.7l-1.9,0.4l2.9,7.5l0.7,1.9l0,0l3.4-9.4l-1.9-0.4v-1.7h6.1v1.7l-1.5,0.2l-6,15.3
	c-0.4,0.7-0.7,1.4-1,1.9c-0.4,0.6-0.8,1-1.4,1.4C255.4,176.7,254.7,176.9,254,176.9z"/>
<path class="st0" d="M280.8,170.9c-1.2,0.1-2.3-0.2-3.4-0.7c-0.9-0.5-1.6-1.2-2.2-2c-0.5-0.9-0.8-1.9-0.8-2.9s0.4-2.1,1-2.9
	c0.8-1,1.7-1.8,2.7-2.6l0,0c-0.6-0.7-1.1-1.5-1.5-2.4c-0.4-0.7-0.5-1.4-0.5-2.2c0-0.9,0.2-1.9,0.7-2.7c0.4-0.7,1-1.3,1.7-1.7
	c0.8-0.4,1.8-0.6,2.7-0.5c0.9,0,1.8,0.2,2.6,0.5c0.7,0.3,1.3,0.8,1.7,1.5c0.4,0.7,0.7,1.4,0.7,2.2c0,0.9-0.2,1.7-0.7,2.4
	c-0.6,0.8-1.3,1.5-2.2,2l-1.5,1l4.8,5.6c0.4-0.6,0.7-1.3,0.8-2c0.2-0.8,0.4-1.6,0.4-2.4h2.4c0,1.2-0.2,2.3-0.5,3.4
	c-0.3,1-0.8,1.9-1.5,2.7l2.6,3.1h-3.2l-1.2-1.4c-0.7,0.6-1.5,1-2.4,1.2C283,170.7,281.9,171,280.8,170.9z M280.8,168.9
	c0.7,0,1.4-0.2,2-0.4c0.7-0.2,1.3-0.6,1.9-1l-4.9-6l-0.5,0.4c-0.7,0.5-1.3,1.1-1.7,1.9c-0.3,0.4-0.5,1-0.4,1.5c0,1,0.4,1.9,1,2.6
	C278.9,168.6,279.8,169,280.8,168.9L280.8,168.9z M280.4,158.4l1.9-1.4c0.4-0.3,0.8-0.7,1-1.2c0.3-0.4,0.4-0.9,0.4-1.4
	c0-0.6-0.3-1.1-0.7-1.5c-0.4-0.5-1.1-0.7-1.7-0.7c-0.7,0-1.3,0.3-1.7,0.8c-0.4,0.5-0.7,1.2-0.7,1.9c0,0.5,0.2,1,0.4,1.5
	C279.4,157.2,279.8,157.9,280.4,158.4L280.4,158.4z"/>
<path class="st0" d="M299,170.6v-1.7l2.2-0.4v-15.8l-2.2-0.4v-1.7h7.2v1.7l-2.2,0.4v15.8l2.2,0.4v1.7H299z"/>
<path class="st0" d="M308.4,170.6v-1.7l2.2-0.4v-10.7l-2.2-0.4v-1.7h4.8l0.2,2.2c0.5-0.8,1.1-1.4,1.9-1.9s1.7-0.8,2.6-0.7
	c1.4,0,2.8,0.5,3.8,1.4c1,1.3,1.5,2.8,1.4,4.4v7.3l2.2,0.4v1.7h-7.2v-1.7l2.2-0.4v-7.2c0.1-1-0.2-1.9-0.8-2.7
	c-0.7-0.6-1.5-0.8-2.4-0.8c-0.7,0-1.4,0.2-2,0.5s-1.1,0.9-1.4,1.5v8.8l2.2,0.4v1.7C313.4,170.8,310.9,170.8,308.4,170.6z"/>
<path class="st0" d="M327.1,170.6v-1.7l2.2-0.4v-10.7l-2.2-0.4v-1.7h4.8l0.2,2.2c0.5-0.8,1.1-1.4,1.9-1.9s1.7-0.8,2.6-0.7
	c1.4,0,2.8,0.5,3.8,1.4c1,1.2,1.5,2.8,1.4,4.4v7.3l2.2,0.4v1.7h-7.2v-1.7l2.2-0.4v-7.2c0.1-1-0.2-1.9-0.8-2.7
	c-0.7-0.6-1.5-0.8-2.4-0.8c-0.7,0-1.4,0.2-2,0.5s-1.1,0.9-1.4,1.5v8.8l2.2,0.4v1.7C332.1,170.8,329.6,170.8,327.1,170.6z"/>
<path class="st0" d="M352.2,170.9c-1.3,0-2.5-0.3-3.6-1c-1-0.7-1.8-1.6-2.4-2.7c-0.5-1.2-0.8-2.6-0.8-3.9v-0.2
	c0-1.3,0.3-2.7,0.8-3.9c0.5-1.1,1.4-2.1,2.4-2.7c1.1-0.7,2.3-1.1,3.6-1c1.3,0,2.5,0.3,3.6,1c1,0.7,1.8,1.6,2.4,2.7
	c0.5,1.2,0.8,2.6,0.8,3.9v0.4c0,1.3-0.3,2.7-0.8,3.9c-0.5,1.1-1.4,2.1-2.4,2.7C354.7,170.7,353.4,170.9,352.2,170.9z M352.2,168.9
	c0.8,0,1.6-0.2,2.2-0.7c0.5-0.6,1-1.2,1.4-1.9c0.4-0.9,0.6-1.9,0.5-2.9v-0.2c0-1-0.2-2-0.5-2.9c-0.3-0.8-0.8-1.4-1.4-1.9
	s-1.4-0.7-2.2-0.7c-0.8,0-1.6,0.2-2.2,0.7c-0.5,0.6-1,1.2-1.4,1.9c-0.4,0.9-0.6,1.9-0.5,2.9v0.4c0,1,0.2,2,0.5,2.9
	c0.3,0.8,0.8,1.4,1.4,1.9C350.7,168.7,351.4,168.9,352.2,168.9L352.2,168.9z"/>
<path class="st0" d="M366.7,170.6l-5.3-12.9l-1.5-0.2v-1.7h6.3v1.7l-1.9,0.4l3.2,8.5l0.4,1.2l0,0l0.5-1.2l3.1-8.5l-2-0.4v-1.7h6.3
	v1.7l-1.5,0.2l-5.1,12.9H366.7z"/>
<path class="st0" d="M381.8,170.9c-1.3,0.1-2.6-0.4-3.6-1.2c-0.8-0.8-1.3-2-1.2-3.2c0.1-0.9,0.3-1.8,0.8-2.6
	c0.6-0.7,1.3-1.3,2.2-1.7c1.2-0.4,2.4-0.6,3.6-0.5h2.7v-1.5c0-0.7-0.3-1.4-0.8-2c-0.7-0.5-1.5-0.8-2.4-0.7c-0.6,0-1.2,0-1.7,0.2
	c-0.4,0.2-0.8,0.4-1.2,0.7l-0.4,2h-2v-3.5c0.7-0.6,1.5-1,2.4-1.2s1.9-0.4,2.9-0.4c1.5-0.1,3,0.4,4.2,1.4c1.1,1,1.6,2.4,1.5,3.8v8.3
	l1.5,0.2v1.7h-3.9c0-0.3-0.1-0.7-0.2-1c0-0.3,0-0.7-0.2-1c-0.5,0.7-1.2,1.3-2,1.7C383.3,170.8,382.6,171,381.8,170.9z M382,168.9
	c0.9,0,1.8-0.2,2.6-0.7c0.7-0.5,1.4-1,1.5-1.5V164h-2.7c-1,0-2,0.3-2.9,0.8c-0.6,0.5-1,1.2-1,2c-0.1,0.6,0.2,1.2,0.7,1.5
	C380.7,168.7,381.3,168.9,382,168.9L382,168.9z"/>
<path class="st0" d="M397.6,170.9c-1,0-1.9-0.3-2.6-1c-0.7-0.9-1.1-2-1-3.1v-9h-2.4v-2h2.4v-3.6h2.7v3.6h3.2v2h-3.2v9
	c0,0.5,0.1,1.1,0.5,1.5c0.3,0.3,0.7,0.5,1.2,0.5c0.3,0,0.7,0,1-0.2c0.3,0,0.5-0.1,0.8-0.2l0.4,1.7c-0.5,0.2-1,0.3-1.5,0.4
	C398.8,170.9,398.1,170.9,397.6,170.9z"/>
<polygon class="st0" points="402.4,170.6 402.4,168.9 404.6,168.5 404.6,157.8 402.4,157.4 402.4,155.7 407.3,155.7 407.3,168.5 
	409.5,168.9 409.5,170.6 "/>
<rect x="404.4" y="149.4" class="st0" width="2.9" height="2.9"/>
<path class="st0" d="M418.2,170.9c-1.3,0-2.5-0.3-3.6-1c-1-0.7-1.8-1.6-2.4-2.7c-0.5-1.2-0.8-2.6-0.8-3.9v-0.2
	c0-1.3,0.3-2.7,0.8-3.9c0.5-1.1,1.4-2.1,2.4-2.7c1.1-0.7,2.3-1.1,3.6-1c1.3,0,2.5,0.3,3.6,1c1,0.7,1.8,1.6,2.4,2.7
	c0.5,1.2,0.8,2.6,0.8,3.9v0.4c0,1.3-0.3,2.7-0.8,3.9c-0.5,1.1-1.4,2.1-2.4,2.7C420.7,170.7,419.4,171,418.2,170.9z M418.2,168.9
	c0.8,0,1.6-0.2,2.2-0.7c0.5-0.6,1-1.2,1.4-1.9c0.4-0.9,0.6-1.9,0.5-2.9v-0.2c0-1-0.2-2-0.5-2.9c-0.3-0.8-0.8-1.4-1.4-1.9
	s-1.4-0.7-2.2-0.7c-0.8,0-1.6,0.2-2.2,0.7c-0.5,0.6-1,1.2-1.4,1.9c-0.4,0.9-0.6,1.9-0.5,2.9v0.4c0,1,0.2,2,0.5,2.9
	c0.3,0.8,0.8,1.4,1.4,1.9C416.7,168.7,417.4,168.9,418.2,168.9L418.2,168.9z"/>
<path class="st0" d="M427.2,170.6v-1.7l2.2-0.4v-10.7l-2.2-0.4v-1.7h4.8l0.2,2.2c0.5-0.8,1.1-1.4,1.9-1.9s1.7-0.8,2.6-0.7
	c1.4,0,2.8,0.5,3.8,1.4c1,1.3,1.5,2.8,1.4,4.4v7.3l2.2,0.4v1.7h-7.3v-1.7l2.2-0.4v-7.2c0.1-1-0.2-1.9-0.8-2.7
	c-0.7-0.6-1.5-0.8-2.4-0.8c-0.7,0-1.4,0.2-2,0.5s-1.1,0.9-1.4,1.5v8.8l2.2,0.4v1.7C432.1,170.8,429.6,170.8,427.2,170.6z"/>
<path class="st1" d="M110.7,23.1C73.3,27.7,27.2,54,27.2,67.5c0,13.6,43,7.8,43,7.8s1.5-0.2,1.7,0.7c0.4,1.4-0.7,1.7-0.7,1.7
	s-58,19.2-58-10.6c0-29.4,88.6-62.4,91.5-63.4H0v122.4l11.7-19.6c37.4-4.8,83.5-30.9,83.5-44.5s-42.8-8-42.8-8s-1.5,0.2-1.7-0.7
	c-0.4-1.4,0.7-1.7,0.7-1.7s58-19,58,10.9c0,29.4-88.6,62.4-91.5,63.4h104.7V3.4L110.7,23.1z"/>
</svg>
