<svg id="Layer_1" data-name="Layer 1" xmlns="http://www.w3.org/2000/svg" width="445" height="180" viewBox="0 0 445 180"><defs><style>.cls-1{fill:none;}.cls-2{fill:#fff;}</style></defs><rect class="cls-1" x="0.219" y="0.7577" width="444.562" height="178.4847"/><path class="cls-2" d="M188.4029,130.8465a73.3171,73.3171,0,0,1-21.9981-3.4,70.6431,70.6431,0,0,1-20.0983-10.1991V90.55h13.0989l2.9,19.5983a48.817,48.817,0,0,0,12.099,5.3,53.36,53.36,0,0,0,14.0988,1.9c5.7995,0,10.5991-.8,14.3988-2.6a21.0047,21.0047,0,0,0,9.1992-7.2994,18.0131,18.0131,0,0,0,3.2-10.699,17.4431,17.4431,0,0,0-2.7-9.9992,23.1356,23.1356,0,0,0-8.9992-7.5993c-4.2-2.2-9.8991-4.1-17.0985-5.7995-8.4993-2-15.7987-4.6-21.6982-7.9994-6-3.4-10.3991-7.2993-13.3988-12.1989a29.5049,29.5049,0,0,1-4.6-16.2986,30.9693,30.9693,0,0,1,5.1-17.4985,36.0663,36.0663,0,0,1,14.3988-12.199c6.1-3.1,13.3988-4.4,21.5982-4.4a65.337,65.337,0,0,1,23.098,3.9A51.7852,51.7852,0,0,1,227.5,16.3563V41.3542H214.4007l-2.9-17.7985a34.2273,34.2273,0,0,0-9.4991-5.1c-3.7-1.4-8.4993-2-14.2988-2a29.2972,29.2972,0,0,0-12.7989,2.6,20.0572,20.0572,0,0,0-8.4993,7.1994,19.2067,19.2067,0,0,0-3.1,10.6991,15.5434,15.5434,0,0,0,2.7,9.3992,25.216,25.216,0,0,0,8.9992,7.1993,91.0313,91.0313,0,0,0,16.7986,5.6c13.0989,3.2,23.098,7.9993,29.6975,14.3987a31.9132,31.9132,0,0,1,10.1991,23.598A30.8547,30.8547,0,0,1,226.3,114.8479a36.6042,36.6042,0,0,1-15.0988,12.099A66.5377,66.5377,0,0,1,188.4029,130.8465Z"/><path class="cls-2" d="M291.5941,130.8465a73.3166,73.3166,0,0,1-21.9981-3.4,70.6418,70.6418,0,0,1-20.0983-10.1991V90.55h13.0989l2.9,19.5983a48.817,48.817,0,0,0,12.099,5.3,52.8,52.8,0,0,0,14.0988,1.9c5.8,0,10.5991-.8,14.3987-2.6a21.005,21.005,0,0,0,9.1993-7.2994,18.0131,18.0131,0,0,0,3.2-10.699,17.4431,17.4431,0,0,0-2.7-9.9992,23.1348,23.1348,0,0,0-8.9992-7.5993c-4.2-2.2-9.8992-4.1-17.0985-5.7995-8.4993-2-15.7987-4.6-21.6982-7.9994-6-3.4-10.3991-7.2993-13.3989-12.1989a29.2719,29.2719,0,0,1-4.6-16.2986,30.9694,30.9694,0,0,1,5.1-17.4985A36.0663,36.0663,0,0,1,269.496,7.1571c6.1-3.1,13.3988-4.4,21.5981-4.4a65.3372,65.3372,0,0,1,23.0981,3.9,51.7835,51.7835,0,0,1,16.4985,9.6991V41.3542H317.5919l-2.9-17.7985a34.2279,34.2279,0,0,0-9.4992-5.1c-3.8-1.4-8.4992-2-14.2987-2a29.2972,29.2972,0,0,0-12.7989,2.6,20.0572,20.0572,0,0,0-8.4993,7.1994,19.2067,19.2067,0,0,0-3.1,10.6991,15.5434,15.5434,0,0,0,2.7,9.3992,24.1939,24.1939,0,0,0,8.9993,7.1993,91.0274,91.0274,0,0,0,16.7985,5.6c13.0989,3.2,23.0981,7.9993,29.6975,14.3987C331.2907,80.0509,334.89,87.85,334.89,97.1494a30.8547,30.8547,0,0,1-5.3995,17.6985,36.6045,36.6045,0,0,1-15.0987,12.099A66.5388,66.5388,0,0,1,291.5941,130.8465Z"/><path class="cls-2" d="M349.8891,128.9467V118.2476l13.9988-2.4V17.5562l-13.9988-2.4V4.3573h92.2921V34.2548H428.5824l-1.9-16.9986h-46.096V57.8528h45.896V71.1516h-45.896v45.1962h48.7958l1.9-17.0986H444.681v29.8975l-94.7919-.2Z"/><path class="cls-2" d="M110.91,23.8557c-37.3968,4.6-83.4928,30.8973-83.4928,44.3962,0,13.5988,42.9963,7.7993,42.9963,7.7993s1.5-.2,1.7.7c.4,1.4-.7,1.7-.7,1.7s-57.995,19.1984-57.995-10.5991c0-29.3975,88.5924-62.3947,91.4921-63.3946H.219v122.39l11.699-19.5984c37.3968-4.8,83.4929-30.8973,83.4929-44.4961S52.6145,54.753,52.6145,54.753s-1.5.2-1.7-.7c-.4-1.4.7-1.7.7-1.7S109.61,33.3549,109.61,63.2523c0,29.3975-88.5924,62.3947-91.4921,63.3946h104.691V4.1574Z"/><path class="cls-2" d="M1.4189,171.4431v-1.7l2.2-.4V153.5446l-2.2-.4v-1.7H9.2182a8.519,8.519,0,0,1,4.6,1.2,8.5035,8.5035,0,0,1,3.1,3.6,11.9127,11.9127,0,0,1,1,5.0995v.5a13.6274,13.6274,0,0,1-1,5.1,8.3336,8.3336,0,0,1-3.1,3.6,9.1964,9.1964,0,0,1-4.6,1.4H1.4189v-.5Zm5.1-2h2.9a5.5324,5.5324,0,0,0,3.2-1,9.0426,9.0426,0,0,0,2-2.7,9.6873,9.6873,0,0,0,.7-3.9v-.5a9.6879,9.6879,0,0,0-.7-3.9,7.0694,7.0694,0,0,0-2-2.7,4.8986,4.8986,0,0,0-3.2-1h-2.9Z"/><path class="cls-2" d="M20.1173,171.4431v-1.7l2.2-.4v-10.699l-2.2-.4v-1.7h4.8l.2,1.9v.4a7.4169,7.4169,0,0,1,1.5-1.9,3.6,3.6,0,0,1,2.2-.7h.8c.4,0,.5.2.7.2l-.4,2.6-1.9-.2a3.8288,3.8288,0,0,0-1.9.5,4.6627,4.6627,0,0,0-1.2,1.5v8.4993l2.2.4v1.7Z"/><path class="cls-2" d="M31.8163,171.4431v-1.7l2.2-.4v-10.699l-2.2-.4v-1.7h4.9v12.7989l2.2.4v1.7Zm2.1-18.2985v-2.9h2.9v2.9Z"/><path class="cls-2" d="M47.115,171.4431l-5.3-12.8989-1.5-.2v-1.7H46.615v1.7l-2,.2,3.2,8.4992.4,1.2h0l.5-1.2,3.1-8.4992-2-.4v-1.7h6.2994v1.7l-1.5.2-5.1995,12.9989-2.3.1Z"/><path class="cls-2" d="M63.9136,171.743a6.9055,6.9055,0,0,1-3.6-1,6.6514,6.6514,0,0,1-2.4-2.6,9.6936,9.6936,0,0,1-.8-3.9v-.7a11.1559,11.1559,0,0,1,.8-3.8,6.2928,6.2928,0,0,1,2.4-2.7,5.2841,5.2841,0,0,1,3.2-1,7.733,7.733,0,0,1,3.4.8,6,6,0,0,1,2,2.4,7.9815,7.9815,0,0,1,.7,3.6v1.7H59.9139a6.687,6.687,0,0,0,.5,2.6,3.4128,3.4128,0,0,0,1.4,1.7,3.8416,3.8416,0,0,0,2.2.7,9.2716,9.2716,0,0,0,2.4-.4c.7-.4,1.4-.7,1.9-1l1,1.7a7.8447,7.8447,0,0,1-2,1.4A7.3969,7.3969,0,0,1,63.9136,171.743Zm-4.1-9.0992h6.9994v-.4a5.33,5.33,0,0,0-.4-1.9,3.9152,3.9152,0,0,0-1.2-1.4,3.83,3.83,0,0,0-1.9-.5,3.1,3.1,0,0,0-1.7.5,5.5342,5.5342,0,0,0-1.2,1.4,11.1888,11.1888,0,0,1-.6,2.3Z"/><path class="cls-2" d="M71.6129,171.4431v-1.7l2.2-.4v-10.699l-2.2-.4v-1.7h4.8l.2,2.2a6.87,6.87,0,0,1,1.9-1.9,4.2085,4.2085,0,0,1,2.6-.7,5.3829,5.3829,0,0,1,3.8,1.4,6.7853,6.7853,0,0,1,1.4,4.4v7.2994l2.2.4v1.7H81.3121v-1.7l2.2-.4v-7.2994a4.1,4.1,0,0,0-.8-2.7,3.4638,3.4638,0,0,0-2.4-.8,3.9391,3.9391,0,0,0-2,.5,3.39,3.39,0,0,0-1.4,1.5v8.7993l2.2.4v1.7C78.9123,171.4431,71.6129,171.4431,71.6129,171.4431Z"/><path class="cls-2" d="M105.11,171.743a6.687,6.687,0,0,1-2.6-.5,4.3651,4.3651,0,0,1-1.9-1.7l-.2,1.9h-2.4V152.0447l-2.2-.4v-1.7h4.9v8.2993a4.0394,4.0394,0,0,1,1.7-1.5,4.7089,4.7089,0,0,1,2.4-.5,6.0425,6.0425,0,0,1,3.2,1,6.4935,6.4935,0,0,1,2,2.9,11.58,11.58,0,0,1,.7,4.2v.4a9.2,9.2,0,0,1-.7,3.8,8.6028,8.6028,0,0,1-2,2.6A5.6738,5.6738,0,0,1,105.11,171.743Zm-.5-2a3.3009,3.3009,0,0,0,2.9-1.4c.7-.8.8-2,.8-3.6v-.4a13.741,13.741,0,0,0-.4-3.1,4.4778,4.4778,0,0,0-1.2-2,2.9172,2.9172,0,0,0-2.2-.7,2.7233,2.7233,0,0,0-2,.7,7.9387,7.9387,0,0,0-1.4,1.7v6.4994a5.7938,5.7938,0,0,0,1.4,1.7C103.01,169.7432,103.71,169.7432,104.61,169.7432Z"/><path class="cls-2" d="M116.0091,177.7425h-.8a2.9126,2.9126,0,0,1-.8-.2l.4-2.2h1.2a1.7459,1.7459,0,0,0,1.4-.7,5.5819,5.5819,0,0,0,1-1.9l.7-1.5-5.3-12.5989-1.5-.2v-1.7h6.3v1.7l-1.9.4,2.9,7.4994.7,1.9h0l3.4-9.3992-1.9-.4v-1.7h6.1v1.7l-1.7.3-6,15.2987c-.4.7-.7,1.4-1,1.9a4.6589,4.6589,0,0,1-1.4,1.4A6.0426,6.0426,0,0,1,116.0091,177.7425Z"/><path class="cls-2" d="M145.5066,171.743a9.017,9.017,0,0,1-5.1-1.4,7.3415,7.3415,0,0,1-3.1-3.6,12.5367,12.5367,0,0,1-1-5.3v-.3a14.2984,14.2984,0,0,1,1-5.2995,7.7254,7.7254,0,0,1,3.1-3.6,9.3346,9.3346,0,0,1,4.8-1.4,7.9829,7.9829,0,0,1,3.6.7,7.8671,7.8671,0,0,1,2.7,1.5v4.4h-2.3l-.4-3.2a9.2467,9.2467,0,0,0-1-.5,2.8422,2.8422,0,0,0-1.2-.4c-.5,0-1-.2-1.5-.2a6.1978,6.1978,0,0,0-3.4,1,7.07,7.07,0,0,0-2,2.7,10.6982,10.6982,0,0,0-.7,4.1v.4a10.24,10.24,0,0,0,.7,4.2,5.8777,5.8777,0,0,0,2.2,2.7,6.0908,6.0908,0,0,0,3.6,1,6.1555,6.1555,0,0,0,1.9-.2,3.4922,3.4922,0,0,0,1.5-.7l.4-2.7h2.2v4.4a7.2264,7.2264,0,0,1-2.7,1A6.3558,6.3558,0,0,1,145.5066,171.743Z"/><path class="cls-2" d="M154.2058,171.4431v-1.7l2.2-.4v-10.699l-2.2-.4v-1.7h4.8l.2,1.9v.4a7.4171,7.4171,0,0,1,1.5-1.9,3.6,3.6,0,0,1,2.2-.7h.8c.4,0,.5.2.7.2l-.4,2.6-2-.2a3.8292,3.8292,0,0,0-1.9.5,4.664,4.664,0,0,0-1.2,1.5v8.4993l2.2.4v1.7Z"/><path class="cls-2" d="M172.6043,171.743a6.9055,6.9055,0,0,1-3.6-1,6.6514,6.6514,0,0,1-2.4-2.6,9.6936,9.6936,0,0,1-.8-3.9v-.7a11.1559,11.1559,0,0,1,.8-3.8,6.2928,6.2928,0,0,1,2.4-2.7,5.2841,5.2841,0,0,1,3.2-1,7.733,7.733,0,0,1,3.4.8,6,6,0,0,1,2,2.4,7.9815,7.9815,0,0,1,.7,3.6v1.7h-9.6992a6.6889,6.6889,0,0,0,.5,2.6,4.0182,4.0182,0,0,0,1.4,1.7,3.8416,3.8416,0,0,0,2.2.7,9.2716,9.2716,0,0,0,2.4-.4c.7-.4,1.4-.7,1.9-1l1,1.7a7.8436,7.8436,0,0,1-2,1.4A9.0078,9.0078,0,0,1,172.6043,171.743Zm-4.1-9.0992h6.9994v-.4a5.3318,5.3318,0,0,0-.4-1.9,3.9172,3.9172,0,0,0-1.2-1.4,3.0184,3.0184,0,0,0-1.9-.5,3.0991,3.0991,0,0,0-1.7.5,5.53,5.53,0,0,0-1.2,1.4,6.0272,6.0272,0,0,0-.6,2.3Z"/><path class="cls-2" d="M185.3032,171.743a5.2183,5.2183,0,0,1-3.6-1.2,4.2218,4.2218,0,0,1-1.2-3.2,6.0676,6.0676,0,0,1,.8-2.6,5.6108,5.6108,0,0,1,2.2-1.7,9.794,9.794,0,0,1,3.6-.5h2.7v-1.5a3.288,3.288,0,0,0-.8-2,3.444,3.444,0,0,0-2.4-.7,4.4151,4.4151,0,0,0-1.7.2,4.7257,4.7257,0,0,0-1.2.7l-.4,2h-2v-3.5a8.6273,8.6273,0,0,1,5.3-1.6,5.902,5.902,0,0,1,4.2,1.4,4.49,4.49,0,0,1,1.5,3.8v8.2993l1.5.2v1.7h-3.9a8.6621,8.6621,0,0,0-.2-1,1.6444,1.6444,0,0,0-.2-1,6.6834,6.6834,0,0,1-2,1.7C187.203,171.743,186.4031,171.743,185.3032,171.743Zm.4-2a5.3555,5.3555,0,0,0,2.6-.7c.7-.5,1.4-1,1.5-1.5v-2.7h-2.7a5.8641,5.8641,0,0,0-2.9.8,2.5972,2.5972,0,0,0-1,2,1.5787,1.5787,0,0,0,.7,1.5A3.2165,3.2165,0,0,0,185.7031,169.7432Z"/><path class="cls-2" d="M201.5018,171.743a3.8017,3.8017,0,0,1-2.6-1,4.4124,4.4124,0,0,1-1-3.1v-8.9993h-2.4v-2h2.4v-3.6h2.7v3.6h3.2v2h-3.2v8.9993a2.07,2.07,0,0,0,.5,1.5,1.4568,1.4568,0,0,0,1.2.5,1.6441,1.6441,0,0,0,1-.2,1.7183,1.7183,0,0,1,.8-.2l.4,1.7a10.2,10.2,0,0,1-1.5.4A2.2753,2.2753,0,0,1,201.5018,171.743Z"/><path class="cls-2" d="M206.2014,171.4431v-1.7l2.2-.4v-10.699l-2.2-.4v-1.7h4.9v12.7989l2.2.4v1.7Zm2.1-18.2985v-2.9h2.9v2.9Z"/><path class="cls-2" d="M221.5,171.4431l-5.3-12.8989-1.5-.2v-1.7H221v1.7l-1.9.4,3.2,8.4993.4,1.2h0l.5-1.2,3.1-8.4993-2-.4v-1.7h6.2995v1.7l-1.5.2L224,171.4431Z"/><path class="cls-2" d="M231.6992,171.4431v-1.7l2.2-.4v-10.699l-2.2-.4v-1.7h4.9v12.7989l2.2.4v1.7Zm2.1-18.2985v-2.9h2.9v2.9Z"/><path class="cls-2" d="M246.198,171.743a3.4545,3.4545,0,0,1-2.6-1,4.1389,4.1389,0,0,1-1-3.1v-8.9993h-2.4v-2h2.4v-3.6h2.7v3.6h3.2v2h-3.2v8.9993a2.07,2.07,0,0,0,.5,1.5,1.4567,1.4567,0,0,0,1.2.5,1.6442,1.6442,0,0,0,1-.2,1.718,1.718,0,0,1,.8-.2l.4,1.7a10.2019,10.2019,0,0,1-1.5.4A2.5667,2.5667,0,0,1,246.198,171.743Z"/><path class="cls-2" d="M254.1973,177.7425h-.8a4.537,4.537,0,0,1-.8-.2l.4-2.2h1.2a1.7457,1.7457,0,0,0,1.4-.7,5.5784,5.5784,0,0,0,1-1.9l.7-1.5-5.3-12.5989-1.5-.2v-1.7h6.2994v1.7l-1.9.4,2.9,7.4994.7,1.9h0l3.4-9.3992-1.9-.4v-1.7h6.0995v1.7l-1.5.2-6,15.2987c-.4.7-.7,1.4-1,1.9a4.66,4.66,0,0,1-1.4,1.4A7.3375,7.3375,0,0,1,254.1973,177.7425Z"/><path class="cls-2" d="M280.995,171.743a6.62,6.62,0,0,1-3.4-.7,7.0324,7.0324,0,0,1-2.2-2,5.7354,5.7354,0,0,1-.8-2.9,5.3378,5.3378,0,0,1,1-2.9,16.9617,16.9617,0,0,1,2.7-2.6h0a9.3237,9.3237,0,0,1-1.5-2.4,4.4186,4.4186,0,0,1-.5-2.2,4.9528,4.9528,0,0,1,.7-2.7,5.5119,5.5119,0,0,1,1.7-1.7,5.6742,5.6742,0,0,1,2.7-.5,6.6879,6.6879,0,0,1,2.6.5,3.5874,3.5874,0,0,1,1.7,1.5,4.395,4.395,0,0,1,.7,2.2,4.1953,4.1953,0,0,1-.7,2.4,7.2177,7.2177,0,0,1-2.2,2l-1.5,1,4.8,5.6a4.9576,4.9576,0,0,0,.8-2,8.5938,8.5938,0,0,0,.4-2.4h2.4a12.1245,12.1245,0,0,1-.5,3.4,7.8652,7.8652,0,0,1-1.5,2.7l2.6,3.1h-3.2l-1.2-1.4a6.7715,6.7715,0,0,1-2.4,1.2A5.5345,5.5345,0,0,1,280.995,171.743Zm0-2a6.4641,6.4641,0,0,0,2-.4,7.0112,7.0112,0,0,0,1.9-1l-4.9-6-.5.4a5.83,5.83,0,0,0-1.7,1.9,2.1463,2.1463,0,0,0-.4,1.5,3.9977,3.9977,0,0,0,1,2.6A3.2526,3.2526,0,0,0,280.995,169.7432Zm-.4-10.4991,1.9-1.4a2.8086,2.8086,0,0,0,1-1.2,2.89,2.89,0,0,0,.4-1.4,1.9315,1.9315,0,0,0-.7-1.5,2.1929,2.1929,0,0,0-1.7-.7,2.2986,2.2986,0,0,0-1.7.8,3.1571,3.1571,0,0,0-.7,1.9,4.19,4.19,0,0,0,.4,1.5A3.1213,3.1213,0,0,0,280.595,159.2441Z"/><path class="cls-2" d="M299.1934,171.4431v-1.7l2.2-.4V153.5446l-2.2-.4v-1.7h7.1994v1.7l-2.2.4v15.7986l2.2.4v1.7Z"/><path class="cls-2" d="M308.5926,171.4431v-1.7l2.2-.4v-10.699l-2.2-.4v-1.7h4.8l.2,2.2a6.8711,6.8711,0,0,1,1.9-1.9,4.2087,4.2087,0,0,1,2.6-.7,5.3827,5.3827,0,0,1,3.8,1.4,6.7853,6.7853,0,0,1,1.4,4.4v7.2994l2.2.4v1.7h-7.1994v-1.7l2.2-.4v-7.1994a4.1,4.1,0,0,0-.8-2.7,3.4642,3.4642,0,0,0-2.4-.8,3.9388,3.9388,0,0,0-2,.5,3.3891,3.3891,0,0,0-1.4,1.5v8.7993l2.2.4v1.7A46.9659,46.9659,0,0,1,308.5926,171.4431Z"/><path class="cls-2" d="M327.291,171.4431v-1.7l2.2-.4v-10.699l-2.2-.4v-1.7h4.8l.2,2.2a6.8711,6.8711,0,0,1,1.9-1.9,4.2087,4.2087,0,0,1,2.6-.7,5.3827,5.3827,0,0,1,3.8,1.4,6.3949,6.3949,0,0,1,1.4,4.4v7.2994l2.2.4v1.7H336.99v-1.7l2.2-.4v-7.1994a4.1,4.1,0,0,0-.8-2.7,3.4642,3.4642,0,0,0-2.4-.8,3.9388,3.9388,0,0,0-2,.5,3.3891,3.3891,0,0,0-1.4,1.5v8.7993l2.2.4v1.7A46.9472,46.9472,0,0,1,327.291,171.4431Z"/><path class="cls-2" d="M352.3889,171.743a6.9055,6.9055,0,0,1-3.6-1,7.9117,7.9117,0,0,1-2.4-2.7,9.6954,9.6954,0,0,1-.8-3.9v-.2a11.7513,11.7513,0,0,1,.8-3.9,6.2941,6.2941,0,0,1,2.4-2.7,6.0908,6.0908,0,0,1,3.6-1,6.9055,6.9055,0,0,1,3.6,1,7.9112,7.9112,0,0,1,2.4,2.7,9.6929,9.6929,0,0,1,.8,3.9v.4a11.75,11.75,0,0,1-.8,3.9,6.2941,6.2941,0,0,1-2.4,2.7A8.6253,8.6253,0,0,1,352.3889,171.743Zm0-2a3.6,3.6,0,0,0,2.2-.7,9.35,9.35,0,0,0,1.4-1.9,6.0447,6.0447,0,0,0,.5-2.9v-.2a9.2889,9.2889,0,0,0-.5-2.9,3.9593,3.9593,0,0,0-1.4-1.9,3.2317,3.2317,0,0,0-2.2-.7,3.6,3.6,0,0,0-2.2.7,9.35,9.35,0,0,0-1.4,1.9,6.29,6.29,0,0,0-.5,2.9v.4a9.2889,9.2889,0,0,0,.5,2.9,3.9592,3.9592,0,0,0,1.4,1.9A7.1146,7.1146,0,0,0,352.3889,169.7432Z"/><path class="cls-2" d="M366.8877,171.4431l-5.3-12.8989-1.5-.2v-1.7h6.2994v1.7l-1.9.4,3.2,8.4993.4,1.2h0l.5-1.2,3.1-8.4993-2-.4v-1.7h6.2995v1.7l-1.5.2-5.1,12.8989Z"/><path class="cls-2" d="M381.9864,171.743a5.2183,5.2183,0,0,1-3.6-1.2,4.2218,4.2218,0,0,1-1.2-3.2,6.0677,6.0677,0,0,1,.8-2.6,5.61,5.61,0,0,1,2.2-1.7,9.794,9.794,0,0,1,3.6-.5h2.7v-1.5a3.2875,3.2875,0,0,0-.8-2,3.4435,3.4435,0,0,0-2.4-.7,4.4148,4.4148,0,0,0-1.7.2,4.724,4.724,0,0,0-1.2.7l-.4,2h-2v-3.5a6.7748,6.7748,0,0,1,2.4-1.2,13.527,13.527,0,0,1,2.9-.4,5.9021,5.9021,0,0,1,4.2,1.4,4.49,4.49,0,0,1,1.5,3.8v8.2993l1.5.2v1.7h-3.9a8.6621,8.6621,0,0,0-.2-1,1.6444,1.6444,0,0,0-.2-1,6.6838,6.6838,0,0,1-2,1.7A4.4192,4.4192,0,0,1,381.9864,171.743Zm.2-2a5.3555,5.3555,0,0,0,2.6-.7c.7-.5,1.4-1,1.5-1.5v-2.7h-2.7a5.8641,5.8641,0,0,0-2.9.8,2.5972,2.5972,0,0,0-1,2,1.5787,1.5787,0,0,0,.7,1.5A2.9613,2.9613,0,0,0,382.1863,169.7432Z"/><path class="cls-2" d="M397.785,171.743a3.8017,3.8017,0,0,1-2.6-1,4.4124,4.4124,0,0,1-1-3.1v-8.9993h-2.4v-2h2.4v-3.6h2.7v3.6h3.2v2h-3.2v8.9993a2.07,2.07,0,0,0,.5,1.5,1.4565,1.4565,0,0,0,1.2.5,1.6444,1.6444,0,0,0,1-.2,2.9127,2.9127,0,0,0,.8-.2l.4,1.7a10.2054,10.2054,0,0,1-1.5.4C398.9849,171.743,398.285,171.743,397.785,171.743Z"/><path class="cls-2" d="M402.5846,171.4431v-1.7l2.2-.4v-10.699l-2.2-.4v-1.7h4.9v12.7989l2.2.4v1.7Zm2-18.2985v-2.9h2.9v2.9Z"/><path class="cls-2" d="M418.3833,171.743a6.9055,6.9055,0,0,1-3.6-1,7.9117,7.9117,0,0,1-2.4-2.7,9.6938,9.6938,0,0,1-.8-3.9v-.2a11.7488,11.7488,0,0,1,.8-3.9,6.2934,6.2934,0,0,1,2.4-2.7,6.0908,6.0908,0,0,1,3.6-1,6.9061,6.9061,0,0,1,3.6,1,7.9122,7.9122,0,0,1,2.4,2.7,9.6946,9.6946,0,0,1,.8,3.9v.4a11.7524,11.7524,0,0,1-.8,3.9,6.2941,6.2941,0,0,1-2.4,2.7A7.6664,7.6664,0,0,1,418.3833,171.743Zm0-2a3.6,3.6,0,0,0,2.2-.7,9.3535,9.3535,0,0,0,1.4-1.9,6.046,6.046,0,0,0,.5-2.9v-.2a9.2918,9.2918,0,0,0-.5-2.9,3.96,3.96,0,0,0-1.4-1.9,3.232,3.232,0,0,0-2.2-.7,3.6,3.6,0,0,0-2.2.7,9.35,9.35,0,0,0-1.4,1.9,6.29,6.29,0,0,0-.5,2.9v.4a9.2889,9.2889,0,0,0,.5,2.9,3.9584,3.9584,0,0,0,1.4,1.9A11.2149,11.2149,0,0,0,418.3833,169.7432Z"/><path class="cls-2" d="M427.3825,171.4431v-1.7l2.2-.4v-10.699l-2.2-.4v-1.7h4.8l.2,2.2a6.87,6.87,0,0,1,1.9-1.9,4.2087,4.2087,0,0,1,2.6-.7,5.3825,5.3825,0,0,1,3.8,1.4,6.7847,6.7847,0,0,1,1.4,4.4v7.2994l2.2.4v1.7h-7.2993v-1.7l2.2-.4v-7.1994a4.1,4.1,0,0,0-.8-2.7,3.4642,3.4642,0,0,0-2.4-.8,3.9388,3.9388,0,0,0-2,.5,3.3891,3.3891,0,0,0-1.4,1.5v8.7993l2.2.4v1.7A45.719,45.719,0,0,1,427.3825,171.4431Z"/></svg>