<?xml version="1.0" encoding="utf-8"?>
<!-- Generator: Adobe Illustrator 25.4.1, SVG Export Plug-In . SVG Version: 6.00 Build 0)  -->
<svg version="1.1" id="Layer_1" xmlns="http://www.w3.org/2000/svg" xmlns:xlink="http://www.w3.org/1999/xlink" x="0px" y="0px"
	 viewBox="0 0 445 180" style="enable-background:new 0 0 445 180;" xml:space="preserve">
<style type="text/css">
	.st0{fill:#F15A22;}
	.st1{fill:none;}
</style>
<path class="st0" d="M110.9,23.9c-37.4,4.6-83.5,30.9-83.5,44.4c0,13.6,43,7.8,43,7.8s1.5-0.2,1.7,0.7c0.4,1.4-0.7,1.7-0.7,1.7
	s-58,19.2-58-10.6c0-29.4,88.6-62.4,91.5-63.4H0.2v122.4l11.7-19.6c37.4-4.8,83.5-30.9,83.5-44.5s-42.8-8-42.8-8s-1.5,0.2-1.7-0.7
	c-0.4-1.4,0.7-1.7,0.7-1.7s58-19,58,10.9c0,29.4-88.6,62.4-91.5,63.4h104.7V4.2L110.9,23.9z"/>
<path class="st1" d="M0.2,0.8h444.6v178.5H0.2V0.8z M188.4,130.8c-7.5,0-14.9-1.2-22-3.4c-7.2-2.3-14-5.7-20.1-10.2V90.6h13.1
	l2.9,19.6c3.8,2.3,7.8,4.1,12.1,5.3c4.6,1.3,9.3,1.9,14.1,1.9c5.8,0,10.6-0.8,14.4-2.6c3.7-1.5,6.9-4,9.2-7.3
	c2.2-3.1,3.3-6.9,3.2-10.7c0.1-3.5-0.8-7-2.7-10c-2.3-3.3-5.4-5.9-9-7.6c-4.2-2.2-9.9-4.1-17.1-5.8c-8.5-2-15.8-4.6-21.7-8
	c-6-3.4-10.4-7.3-13.4-12.2c-3.1-4.9-4.7-10.5-4.6-16.3c-0.1-6.2,1.7-12.3,5.1-17.5c3.6-5.3,8.6-9.5,14.4-12.2
	c6.1-3.1,13.4-4.4,21.6-4.4c7.9-0.1,15.7,1.2,23.1,3.9c6.1,2.2,11.6,5.5,16.5,9.7v25h-13.1l-2.9-17.8c-2.9-2.2-6.1-3.9-9.5-5.1
	c-3.7-1.4-8.5-2-14.3-2c-4.4-0.1-8.8,0.8-12.8,2.6c-3.5,1.5-6.4,4-8.5,7.2s-3.1,6.9-3.1,10.7c-0.1,3.3,0.8,6.6,2.7,9.4
	c2.4,3.1,5.5,5.5,9,7.2c5.4,2.4,11,4.3,16.8,5.6c13.1,3.2,23.1,8,29.7,14.4c6.6,6.1,10.3,14.6,10.2,23.6c0.1,6.3-1.8,12.5-5.4,17.7
	c-3.9,5.3-9.1,9.5-15.1,12.1C203.9,129.6,196.2,130.9,188.4,130.8z M291.6,130.8c-7.5,0-14.9-1.2-22-3.4c-7.2-2.3-14-5.7-20.1-10.2
	V90.6h13.1l2.9,19.6c3.8,2.3,7.8,4.1,12.1,5.3c4.6,1.3,9.3,1.9,14.1,1.9c5.8,0,10.6-0.8,14.4-2.6c3.7-1.5,6.9-4,9.2-7.3
	c2.2-3.1,3.3-6.9,3.2-10.7c0.1-3.5-0.8-7-2.7-10c-2.3-3.3-5.4-5.9-9-7.6c-4.2-2.2-9.9-4.1-17.1-5.8c-8.5-2-15.8-4.6-21.7-8
	c-6-3.4-10.4-7.3-13.4-12.2c-3.1-4.9-4.7-10.5-4.6-16.3c-0.1-6.2,1.7-12.3,5.1-17.5c3.6-5.3,8.6-9.5,14.4-12.2
	c6.1-3.1,13.4-4.4,21.6-4.4c7.9-0.1,15.7,1.2,23.1,3.9c6.1,2.2,11.6,5.5,16.5,9.7v25h-13.1l-2.9-17.8c-2.9-2.2-6.1-3.9-9.5-5.1
	c-3.8-1.4-8.5-2-14.3-2c-4.4-0.1-8.8,0.8-12.8,2.6c-3.5,1.5-6.4,4-8.5,7.2s-3.1,6.9-3.1,10.7c-0.1,3.3,0.8,6.6,2.7,9.4
	c2.4,3.1,5.5,5.6,9,7.2c5.4,2.4,11,4.3,16.8,5.6c13.1,3.2,23.1,8,29.7,14.4c6.6,6.5,10.2,14.3,10.2,23.6c0.1,6.3-1.8,12.5-5.4,17.7
	c-3.9,5.3-9.1,9.5-15.1,12.1C307.1,129.6,299.4,130.9,291.6,130.8z M349.9,128.9v-10.7l14-2.4V17.6l-14-2.4V4.4h92.3v29.9h-13.6
	l-1.9-17h-46.1v40.6h45.9v13.3h-45.9v45.2h48.8l1.9-17.1h13.4v29.9L349.9,128.9z M1.4,171.4v-1.7l2.2-0.4v-15.8l-2.2-0.4v-1.7h7.8
	c1.6,0,3.2,0.4,4.6,1.2c1.4,0.9,2.4,2.1,3.1,3.6c0.7,1.6,1,3.3,1,5.1v0.5c0,1.7-0.3,3.5-1,5.1c-0.7,1.5-1.7,2.7-3.1,3.6
	c-1.4,0.9-3,1.3-4.6,1.4H1.4V171.4L1.4,171.4z M6.5,169.4h2.9c1.1,0,2.3-0.3,3.2-1c0.8-0.8,1.5-1.7,2-2.7c0.5-1.2,0.7-2.6,0.7-3.9
	v-0.5c0-1.3-0.2-2.7-0.7-3.9c-0.4-1-1.1-2-2-2.7s-2-1.1-3.2-1H6.5V169.4z M20.1,171.4v-1.7l2.2-0.4v-10.7l-2.2-0.4v-1.7h4.8l0.2,1.9
	v0.4c0.4-0.7,0.9-1.4,1.5-1.9s1.4-0.7,2.2-0.7h0.8c0.4,0,0.5,0.2,0.7,0.2l-0.4,2.6l-1.9-0.2c-0.7,0-1.3,0.2-1.9,0.5
	c-0.5,0.4-0.9,0.9-1.2,1.5v8.5l2.2,0.4v1.7L20.1,171.4z M31.8,171.4v-1.7l2.2-0.4v-10.7l-2.2-0.4v-1.7h4.9v12.8l2.2,0.4v1.7
	L31.8,171.4z M33.9,153.1v-2.9h2.9v2.9H33.9z M47.1,171.4l-5.3-12.9l-1.5-0.2v-1.7h6.3v1.7l-2,0.2l3.2,8.5l0.4,1.2l0,0l0.5-1.2
	l3.1-8.5l-2-0.4v-1.7h6.3v1.7l-1.5,0.2l-5.2,13L47.1,171.4L47.1,171.4z M63.9,171.7c-1.3,0-2.5-0.3-3.6-1c-1-0.6-1.8-1.5-2.4-2.6
	c-0.5-1.2-0.8-2.6-0.8-3.9v-0.7c0-1.3,0.3-2.6,0.8-3.8c0.5-1.1,1.4-2.1,2.4-2.7c0.9-0.7,2.1-1,3.2-1c1.2,0,2.3,0.3,3.4,0.8
	c0.9,0.6,1.6,1.4,2,2.4c0.5,1.1,0.7,2.4,0.7,3.6v1.7h-9.7c0,0.9,0.2,1.8,0.5,2.6c0.3,0.7,0.8,1.3,1.4,1.7c0.6,0.5,1.4,0.7,2.2,0.7
	c0.8,0,1.6-0.2,2.4-0.4c0.7-0.4,1.4-0.7,1.9-1l1,1.7c-0.6,0.6-1.3,1-2,1.4C66.2,171.7,65.1,171.8,63.9,171.7z M59.8,162.6h7v-0.4
	c0-0.7-0.2-1.3-0.4-1.9c-0.3-0.6-0.7-1-1.2-1.4c-0.6-0.3-1.2-0.5-1.9-0.5c-0.6,0-1.2,0.2-1.7,0.5c-0.5,0.4-0.9,0.9-1.2,1.4
	C60.3,161.1,60.1,161.9,59.8,162.6L59.8,162.6z M71.6,171.4v-1.7l2.2-0.4v-10.7l-2.2-0.4v-1.7h4.8l0.2,2.2c0.5-0.8,1.1-1.4,1.9-1.9
	s1.7-0.8,2.6-0.7c1.4,0,2.8,0.5,3.8,1.4c1,1.3,1.5,2.8,1.4,4.4v7.3l2.2,0.4v1.7h-7.2v-1.7l2.2-0.4v-7.3c0.1-1-0.2-1.9-0.8-2.7
	c-0.7-0.6-1.5-0.8-2.4-0.8c-0.7,0-1.4,0.2-2,0.5s-1.1,0.9-1.4,1.5v8.8l2.2,0.4v1.7C78.9,171.4,71.6,171.4,71.6,171.4z M105.1,171.7
	c-0.9,0-1.8-0.2-2.6-0.5c-0.8-0.4-1.4-1-1.9-1.7l-0.2,1.9H98V152l-2.2-0.4v-1.7h4.9v8.3c0.4-0.7,1-1.2,1.7-1.5
	c0.7-0.4,1.6-0.5,2.4-0.5c1.1,0,2.2,0.4,3.2,1c0.9,0.8,1.6,1.8,2,2.9c0.5,1.3,0.7,2.8,0.7,4.2v0.4c0,1.3-0.2,2.6-0.7,3.8
	c-0.5,1-1.2,1.9-2,2.6C107.1,171.6,106.1,171.8,105.1,171.7z M104.6,169.7c1.1,0.1,2.2-0.5,2.9-1.4c0.7-0.8,0.8-2,0.8-3.6v-0.4
	c0-1-0.1-2.1-0.4-3.1c-0.2-0.8-0.6-1.5-1.2-2s-1.4-0.8-2.2-0.7c-0.7,0-1.5,0.2-2,0.7s-1,1.1-1.4,1.7v6.5c0.4,0.7,0.8,1.2,1.4,1.7
	C103,169.7,103.7,169.7,104.6,169.7L104.6,169.7z M116,177.7h-0.8c-0.3,0-0.5-0.1-0.8-0.2l0.4-2.2h1.2c0.6,0,1.1-0.3,1.4-0.7
	c0.5-0.6,0.8-1.2,1-1.9l0.7-1.5l-5.3-12.6l-1.5-0.2v-1.7h6.3v1.7l-1.9,0.4l2.9,7.5l0.7,1.9l0,0l3.4-9.4l-1.9-0.4v-1.7h6.1v1.7
	l-1.7,0.3l-6,15.3c-0.4,0.7-0.7,1.4-1,1.9c-0.4,0.6-0.8,1-1.4,1.4C117.2,177.6,116.6,177.7,116,177.7z M145.5,171.7
	c-1.8,0.1-3.6-0.4-5.1-1.4c-1.4-0.8-2.5-2.1-3.1-3.6c-0.7-1.7-1.1-3.5-1-5.3v-0.3c0-1.8,0.3-3.6,1-5.3c0.6-1.5,1.7-2.8,3.1-3.6
	c1.4-0.9,3.1-1.4,4.8-1.4c1.2,0,2.5,0.2,3.6,0.7c1,0.3,1.9,0.8,2.7,1.5v4.4h-2.3l-0.4-3.2c-0.3-0.2-0.7-0.4-1-0.5
	c-0.4-0.2-0.8-0.4-1.2-0.4c-0.5,0-1-0.2-1.5-0.2c-1.2,0-2.4,0.3-3.4,1c-0.9,0.7-1.6,1.7-2,2.7c-0.5,1.3-0.7,2.7-0.7,4.1v0.4
	c-0.1,1.4,0.2,2.9,0.7,4.2c0.4,1.1,1.2,2,2.2,2.7c1.1,0.7,2.3,1.1,3.6,1c0.6,0,1.3,0,1.9-0.2c0.5-0.1,1.1-0.3,1.5-0.7l0.4-2.7h2.2
	v4.4c-0.8,0.5-1.7,0.9-2.7,1C147.8,171.6,146.6,171.8,145.5,171.7z M154.2,171.4v-1.7l2.2-0.4v-10.7l-2.2-0.4v-1.7h4.8l0.2,1.9v0.4
	c0.4-0.7,0.9-1.4,1.5-1.9s1.4-0.7,2.2-0.7h0.8c0.4,0,0.5,0.2,0.7,0.2L164,159l-2-0.2c-0.7,0-1.3,0.2-1.9,0.5
	c-0.5,0.4-0.9,0.9-1.2,1.5v8.5l2.2,0.4v1.7H154.2z M172.6,171.7c-1.3,0-2.5-0.3-3.6-1c-1-0.6-1.8-1.5-2.4-2.6
	c-0.5-1.2-0.8-2.6-0.8-3.9v-0.7c0-1.3,0.3-2.6,0.8-3.8c0.5-1.1,1.4-2.1,2.4-2.7c0.9-0.7,2.1-1,3.2-1c1.2,0,2.3,0.3,3.4,0.8
	c0.9,0.6,1.6,1.4,2,2.4c0.5,1.1,0.7,2.4,0.7,3.6v1.7h-9.7c0,0.9,0.2,1.8,0.5,2.6c0.3,0.7,0.8,1.3,1.4,1.7c0.6,0.5,1.4,0.7,2.2,0.7
	s1.6-0.2,2.4-0.4c0.7-0.4,1.4-0.7,1.9-1l1,1.7c-0.6,0.6-1.3,1-2,1.4C174.9,171.6,173.8,171.8,172.6,171.7z M168.5,162.6h7v-0.4
	c0-0.7-0.2-1.3-0.4-1.9c-0.3-0.6-0.7-1-1.2-1.4c-0.6-0.4-1.2-0.5-1.9-0.5c-0.6,0-1.2,0.2-1.7,0.5c-0.5,0.4-0.9,0.9-1.2,1.4
	C168.8,161.1,168.5,161.8,168.5,162.6L168.5,162.6z M185.3,171.7c-1.3,0.1-2.6-0.4-3.6-1.2c-0.8-0.8-1.3-2-1.2-3.2
	c0.1-0.9,0.3-1.8,0.8-2.6c0.6-0.7,1.3-1.3,2.2-1.7c1.2-0.4,2.4-0.6,3.6-0.5h2.7V161c0-0.7-0.3-1.4-0.8-2c-0.7-0.5-1.5-0.8-2.4-0.7
	c-0.6,0-1.2,0-1.7,0.2c-0.4,0.2-0.8,0.4-1.2,0.7l-0.4,2h-2v-3.5c1.5-1.1,3.4-1.7,5.3-1.6c1.5-0.1,3,0.4,4.2,1.4
	c1.1,1,1.6,2.4,1.5,3.8v8.3l1.5,0.2v1.7h-3.9c0-0.3-0.1-0.7-0.2-1c0-0.3,0-0.7-0.2-1c-0.5,0.7-1.2,1.3-2,1.7
	C187.2,171.7,186.4,171.7,185.3,171.7z M185.7,169.7c0.9,0,1.8-0.2,2.6-0.7c0.7-0.5,1.4-1,1.5-1.5v-2.7h-2.7c-1,0-2,0.3-2.9,0.8
	c-0.6,0.5-1,1.2-1,2c-0.1,0.6,0.2,1.2,0.7,1.5C184.4,169.5,185.1,169.7,185.7,169.7L185.7,169.7z M201.5,171.7c-1,0-1.9-0.3-2.6-1
	c-0.7-0.9-1.1-2-1-3.1v-9h-2.4v-2h2.4V153h2.7v3.6h3.2v2h-3.2v9c0,0.5,0.1,1.1,0.5,1.5c0.3,0.3,0.7,0.5,1.2,0.5c0.3,0,0.7,0,1-0.2
	c0.2-0.1,0.5-0.2,0.8-0.2l0.4,1.7c-0.5,0.2-1,0.3-1.5,0.4C202.6,171.6,202,171.8,201.5,171.7z M206.2,171.4v-1.7l2.2-0.4v-10.7
	l-2.2-0.4v-1.7h4.9v12.8l2.2,0.4v1.7L206.2,171.4z M208.3,153.1v-2.9h2.9v2.9H208.3z M221.5,171.4l-5.3-12.9l-1.5-0.2v-1.7h6.3v1.7
	l-1.9,0.4l3.2,8.5l0.4,1.2l0,0l0.5-1.2l3.1-8.5l-2-0.4v-1.7h6.3v1.7l-1.5,0.2l-5.1,12.9H221.5z M231.7,171.4v-1.7l2.2-0.4v-10.7
	l-2.2-0.4v-1.7h4.9v12.8l2.2,0.4v1.7L231.7,171.4z M233.8,153.1v-2.9h2.9v2.9H233.8z M246.2,171.7c-1,0-1.9-0.3-2.6-1
	c-0.7-0.9-1.1-2-1-3.1v-9h-2.4v-2h2.4V153h2.7v3.6h3.2v2h-3.2v9c0,0.5,0.1,1.1,0.5,1.5c0.3,0.3,0.7,0.5,1.2,0.5c0.3,0,0.7,0,1-0.2
	c0.2-0.1,0.5-0.2,0.8-0.2l0.4,1.7c-0.5,0.2-1,0.3-1.5,0.4C247.3,171.6,246.7,171.8,246.2,171.7z M254.2,177.7h-0.8
	c-0.3,0-0.5-0.1-0.8-0.2l0.4-2.2h1.2c0.6,0,1.1-0.3,1.4-0.7c0.5-0.6,0.8-1.2,1-1.9l0.7-1.5l-5.3-12.6l-1.5-0.2v-1.7h6.3v1.7
	l-1.9,0.4l2.9,7.5l0.7,1.9l0,0l3.4-9.4l-1.9-0.4v-1.7h6.1v1.7l-1.5,0.2l-6,15.3c-0.4,0.7-0.7,1.4-1,1.9c-0.4,0.6-0.8,1-1.4,1.4
	C255.6,177.5,254.9,177.7,254.2,177.7z M281,171.7c-1.2,0.1-2.3-0.2-3.4-0.7c-0.9-0.5-1.6-1.2-2.2-2c-0.5-0.9-0.8-1.9-0.8-2.9
	s0.4-2.1,1-2.9c0.8-1,1.7-1.8,2.7-2.6l0,0c-0.6-0.7-1.1-1.5-1.5-2.4c-0.4-0.7-0.5-1.4-0.5-2.2c0-0.9,0.2-1.9,0.7-2.7
	c0.4-0.7,1-1.3,1.7-1.7c0.8-0.4,1.8-0.6,2.7-0.5c0.9,0,1.8,0.2,2.6,0.5c0.7,0.3,1.3,0.8,1.7,1.5c0.4,0.7,0.7,1.4,0.7,2.2
	c0,0.9-0.2,1.7-0.7,2.4c-0.6,0.8-1.3,1.5-2.2,2l-1.5,1l4.8,5.6c0.4-0.6,0.7-1.3,0.8-2c0.2-0.8,0.4-1.6,0.4-2.4h2.4
	c0,1.2-0.2,2.3-0.5,3.4c-0.3,1-0.8,1.9-1.5,2.7l2.6,3.1h-3.2l-1.2-1.4c-0.7,0.6-1.5,1-2.4,1.2C283.2,171.5,282.1,171.8,281,171.7z
	 M281,169.7c0.7,0,1.4-0.2,2-0.4c0.7-0.2,1.3-0.6,1.9-1l-4.9-6l-0.5,0.4c-0.7,0.5-1.3,1.1-1.7,1.9c-0.3,0.4-0.5,1-0.4,1.5
	c0,1,0.4,1.9,1,2.6C279.1,169.4,280,169.8,281,169.7L281,169.7z M280.6,159.2l1.9-1.4c0.4-0.3,0.8-0.7,1-1.2
	c0.3-0.4,0.4-0.9,0.4-1.4c0-0.6-0.3-1.1-0.7-1.5c-0.4-0.5-1.1-0.7-1.7-0.7c-0.7,0-1.3,0.3-1.7,0.8c-0.4,0.5-0.7,1.2-0.7,1.9
	c0,0.5,0.2,1,0.4,1.5C279.6,158,280,158.7,280.6,159.2L280.6,159.2z M299.2,171.4v-1.7l2.2-0.4v-15.8l-2.2-0.4v-1.7h7.2v1.7
	l-2.2,0.4v15.8l2.2,0.4v1.7H299.2z M308.6,171.4v-1.7l2.2-0.4v-10.7l-2.2-0.4v-1.7h4.8l0.2,2.2c0.5-0.8,1.1-1.4,1.9-1.9
	s1.7-0.8,2.6-0.7c1.4,0,2.8,0.5,3.8,1.4c1,1.3,1.5,2.8,1.4,4.4v7.3l2.2,0.4v1.7h-7.2v-1.7l2.2-0.4V162c0.1-1-0.2-1.9-0.8-2.7
	c-0.7-0.6-1.5-0.8-2.4-0.8c-0.7,0-1.4,0.2-2,0.5s-1.1,0.9-1.4,1.5v8.8l2.2,0.4v1.7C313.6,171.6,311.1,171.6,308.6,171.4z
	 M327.3,171.4v-1.7l2.2-0.4v-10.7l-2.2-0.4v-1.7h4.8l0.2,2.2c0.5-0.8,1.1-1.4,1.9-1.9s1.7-0.8,2.6-0.7c1.4,0,2.8,0.5,3.8,1.4
	c1,1.2,1.5,2.8,1.4,4.4v7.3l2.2,0.4v1.7H337v-1.7l2.2-0.4V162c0.1-1-0.2-1.9-0.8-2.7c-0.7-0.6-1.5-0.8-2.4-0.8c-0.7,0-1.4,0.2-2,0.5
	s-1.1,0.9-1.4,1.5v8.8l2.2,0.4v1.7C332.3,171.6,329.8,171.6,327.3,171.4z M352.4,171.7c-1.3,0-2.5-0.3-3.6-1c-1-0.7-1.8-1.6-2.4-2.7
	c-0.5-1.2-0.8-2.6-0.8-3.9v-0.2c0-1.3,0.3-2.7,0.8-3.9c0.5-1.1,1.4-2.1,2.4-2.7c1.1-0.7,2.3-1.1,3.6-1c1.3,0,2.5,0.3,3.6,1
	c1,0.7,1.8,1.6,2.4,2.7c0.5,1.2,0.8,2.6,0.8,3.9v0.4c0,1.3-0.3,2.7-0.8,3.9c-0.5,1.1-1.4,2.1-2.4,2.7
	C354.9,171.5,353.6,171.7,352.4,171.7z M352.4,169.7c0.8,0,1.6-0.2,2.2-0.7c0.5-0.6,1-1.2,1.4-1.9c0.4-0.9,0.6-1.9,0.5-2.9V164
	c0-1-0.2-2-0.5-2.9c-0.3-0.8-0.8-1.4-1.4-1.9s-1.4-0.7-2.2-0.7c-0.8,0-1.6,0.2-2.2,0.7c-0.5,0.6-1,1.2-1.4,1.9
	c-0.4,0.9-0.6,1.9-0.5,2.9v0.4c0,1,0.2,2,0.5,2.9c0.3,0.8,0.8,1.4,1.4,1.9C350.9,169.5,351.6,169.7,352.4,169.7L352.4,169.7z
	 M366.9,171.4l-5.3-12.9l-1.5-0.2v-1.7h6.3v1.7l-1.9,0.4l3.2,8.5l0.4,1.2l0,0l0.5-1.2l3.1-8.5l-2-0.4v-1.7h6.3v1.7l-1.5,0.2
	l-5.1,12.9H366.9z M382,171.7c-1.3,0.1-2.6-0.4-3.6-1.2c-0.8-0.8-1.3-2-1.2-3.2c0.1-0.9,0.3-1.8,0.8-2.6c0.6-0.7,1.3-1.3,2.2-1.7
	c1.2-0.4,2.4-0.6,3.6-0.5h2.7V161c0-0.7-0.3-1.4-0.8-2c-0.7-0.5-1.5-0.8-2.4-0.7c-0.6,0-1.2,0-1.7,0.2c-0.4,0.2-0.8,0.4-1.2,0.7
	l-0.4,2h-2v-3.5c0.7-0.6,1.5-1,2.4-1.2s1.9-0.4,2.9-0.4c1.5-0.1,3,0.4,4.2,1.4c1.1,1,1.6,2.4,1.5,3.8v8.3l1.5,0.2v1.7h-3.9
	c0-0.3-0.1-0.7-0.2-1c0-0.3,0-0.7-0.2-1c-0.5,0.7-1.2,1.3-2,1.7C383.5,171.6,382.8,171.8,382,171.7z M382.2,169.7
	c0.9,0,1.8-0.2,2.6-0.7c0.7-0.5,1.4-1,1.5-1.5v-2.7h-2.7c-1,0-2,0.3-2.9,0.8c-0.6,0.5-1,1.2-1,2c-0.1,0.6,0.2,1.2,0.7,1.5
	C380.9,169.5,381.5,169.7,382.2,169.7L382.2,169.7z M397.8,171.7c-1,0-1.9-0.3-2.6-1c-0.7-0.9-1.1-2-1-3.1v-9h-2.4v-2h2.4V153h2.7
	v3.6h3.2v2h-3.2v9c0,0.5,0.1,1.1,0.5,1.5c0.3,0.3,0.7,0.5,1.2,0.5c0.3,0,0.7,0,1-0.2c0.3,0,0.5-0.1,0.8-0.2l0.4,1.7
	c-0.5,0.2-1,0.3-1.5,0.4C399,171.7,398.3,171.7,397.8,171.7z M402.6,171.4v-1.7l2.2-0.4v-10.7l-2.2-0.4v-1.7h4.9v12.8l2.2,0.4v1.7
	L402.6,171.4z M404.6,153.1v-2.9h2.9v2.9H404.6z M418.4,171.7c-1.3,0-2.5-0.3-3.6-1c-1-0.7-1.8-1.6-2.4-2.7
	c-0.5-1.2-0.8-2.6-0.8-3.9v-0.2c0-1.3,0.3-2.7,0.8-3.9c0.5-1.1,1.4-2.1,2.4-2.7c1.1-0.7,2.3-1.1,3.6-1c1.3,0,2.5,0.3,3.6,1
	c1,0.7,1.8,1.6,2.4,2.7c0.5,1.2,0.8,2.6,0.8,3.9v0.4c0,1.3-0.3,2.7-0.8,3.9c-0.5,1.1-1.4,2.1-2.4,2.7
	C420.9,171.5,419.6,171.8,418.4,171.7z M418.4,169.7c0.8,0,1.6-0.2,2.2-0.7c0.5-0.6,1-1.2,1.4-1.9c0.4-0.9,0.6-1.9,0.5-2.9V164
	c0-1-0.2-2-0.5-2.9c-0.3-0.8-0.8-1.4-1.4-1.9s-1.4-0.7-2.2-0.7c-0.8,0-1.6,0.2-2.2,0.7c-0.5,0.6-1,1.2-1.4,1.9
	c-0.4,0.9-0.6,1.9-0.5,2.9v0.4c0,1,0.2,2,0.5,2.9c0.3,0.8,0.8,1.4,1.4,1.9C416.9,169.5,417.6,169.7,418.4,169.7L418.4,169.7z
	 M427.4,171.4v-1.7l2.2-0.4v-10.7l-2.2-0.4v-1.7h4.8l0.2,2.2c0.5-0.8,1.1-1.4,1.9-1.9s1.7-0.8,2.6-0.7c1.4,0,2.8,0.5,3.8,1.4
	c1,1.3,1.5,2.8,1.4,4.4v7.3l2.2,0.4v1.7H437v-1.7l2.2-0.4V162c0.1-1-0.2-1.9-0.8-2.7c-0.7-0.6-1.5-0.8-2.4-0.8c-0.7,0-1.4,0.2-2,0.5
	s-1.1,0.9-1.4,1.5v8.8l2.2,0.4v1.7C432.3,171.6,429.8,171.6,427.4,171.4z"/>
</svg>
