<?xml version="1.0" encoding="utf-8"?>
<!-- Generator: Adobe Illustrator 26.0.1, SVG Export Plug-In . SVG Version: 6.00 Build 0)  -->
<svg version="1.1" id="Layer_1" xmlns="http://www.w3.org/2000/svg" xmlns:xlink="http://www.w3.org/1999/xlink" x="0px" y="0px"
	 viewBox="0 0 290 130" style="enable-background:new 0 0 290 130;" xml:space="preserve">
<style type="text/css">
	.st0{fill:#FFFFFF;}
	.st1{fill:#FF4E24;}
	.st2{enable-background:new    ;}
	.st3{fill:none;}
</style>
<g>
	<path class="st0" d="M124.9,88.5c-4.5,0-8.8-0.7-12.9-2s-8.1-3.3-11.8-6V64.8h7.7l1.7,11.5c2.2,1.3,4.5,2.4,7.1,3.1
		c2.6,0.7,5.3,1.1,8.3,1.1c3.4,0,6.2-0.5,8.5-1.5c2.3-1,4.1-2.4,5.4-4.3s1.9-3.9,1.9-6.3c0-2.2-0.5-4.2-1.6-5.9
		c-1.1-1.7-2.8-3.2-5.3-4.5c-2.5-1.3-5.8-2.4-10.1-3.4c-5-1.2-9.3-2.7-12.8-4.7c-3.5-2-6.1-4.3-7.9-7.2s-2.7-6-2.7-9.6
		c0-3.8,1-7.3,3-10.3s4.9-5.4,8.5-7.2s7.9-2.6,12.7-2.6c5.1,0,9.7,0.8,13.6,2.3s7.2,3.4,9.7,5.7v14.7h-7.7l-1.7-10.5
		c-1.5-1.2-3.4-2.2-5.6-3c-2.2-0.8-5-1.2-8.4-1.2c-2.8,0-5.3,0.5-7.5,1.5c-2.1,1-3.8,2.4-5,4.2s-1.8,3.9-1.8,6.3
		c0,2.1,0.5,4,1.6,5.5s2.9,3,5.3,4.2c2.5,1.2,5.8,2.3,9.9,3.3c7.7,1.9,13.6,4.7,17.5,8.5s6,8.4,6,13.9c0,3.9-1.1,7.4-3.2,10.4
		s-5.1,5.4-8.9,7.1S130.1,88.5,124.9,88.5z"/>
	<path class="st0" d="M185.6,88.5c-4.5,0-8.8-0.7-12.9-2s-8.1-3.3-11.8-6V64.8h7.7l1.7,11.5c2.2,1.3,4.5,2.4,7.1,3.1
		c2.6,0.7,5.3,1.1,8.3,1.1c3.4,0,6.2-0.5,8.5-1.5s4.1-2.4,5.4-4.3s1.9-3.9,1.9-6.3c0-2.2-0.5-4.2-1.6-5.9c-1.1-1.7-2.8-3.2-5.3-4.5
		c-2.5-1.3-5.8-2.4-10.1-3.4c-5-1.2-9.3-2.7-12.8-4.7c-3.5-2-6.1-4.3-7.9-7.2c-1.8-2.8-2.7-6-2.7-9.6c0-3.8,1-7.3,3-10.3
		s4.9-5.4,8.5-7.2s7.9-2.6,12.7-2.6c5.1,0,9.7,0.8,13.6,2.3s7.2,3.4,9.7,5.7v14.7h-7.7l-1.7-10.5c-1.5-1.2-3.4-2.2-5.6-3
		c-2.2-0.8-5-1.2-8.4-1.2c-2.8,0-5.3,0.5-7.5,1.5c-2.1,1-3.8,2.4-5,4.2s-1.8,3.9-1.8,6.3c0,2.1,0.5,4,1.6,5.5c1.1,1.6,2.9,3,5.3,4.2
		c2.5,1.2,5.8,2.3,9.9,3.3c7.7,1.9,13.6,4.7,17.5,8.5s6,8.4,6,13.9c0,3.9-1.1,7.4-3.2,10.4c-2.1,3-5.1,5.4-8.9,7.1
		C195.3,87.6,190.8,88.5,185.6,88.5z"/>
	<path class="st0" d="M219.9,87.4v-6.3l8.2-1.4V21.9l-8.2-1.4v-6.4h54.3v17.6h-8l-1.1-10H238v23.9h27v7.8h-27V80h28.7l1.1-10.1h7.9
		v17.6H219.9z"/>
</g>
<rect x="14.2" y="14.2" class="st0" width="72" height="72"/>
<path class="st1" d="M79.3,25.6c-22,2.7-49.1,18.2-49.1,26.1c0,8,25.3,4.6,25.3,4.6s0.9-0.1,1,0.4c0.2,0.8-0.4,1-0.4,1
	S22,69.1,22,51.5c0-17.3,52.1-36.7,53.8-37.3H14.2v72l6.9-11.5c22-2.8,49.1-18.2,49.1-26.2S45,43.8,45,43.8s-0.9,0.1-1-0.4
	c-0.2-0.8,0.4-1,0.4-1s34.1-11.2,34.1,6.4c0,17.3-52.1,36.7-53.8,37.3h61.6v-72L79.3,25.6z"/>
<g class="st2">
	<path class="st0" d="M14.9,112.4v-1l1.3-0.2v-9.3l-1.3-0.2v-1h1.3h3.3c1,0,2,0.2,2.7,0.7s1.4,1.2,1.8,2.1c0.4,0.9,0.6,1.9,0.6,3
		v0.3c0,1.1-0.2,2.1-0.6,3c-0.4,0.9-1,1.6-1.8,2.1s-1.7,0.8-2.7,0.8h-4.6V112.4z M17.9,111.2h1.7c0.7,0,1.4-0.2,1.9-0.6
		c0.5-0.4,0.9-1,1.2-1.6c0.3-0.7,0.4-1.4,0.4-2.3v-0.3c0-0.9-0.1-1.6-0.4-2.3c-0.3-0.7-0.7-1.2-1.2-1.6c-0.5-0.4-1.2-0.6-1.9-0.6
		h-1.7V111.2z"/>
	<path class="st0" d="M25.9,112.4v-1l1.3-0.2v-6.3l-1.3-0.2v-1h2.8l0.1,1.1v0.2c0.2-0.5,0.6-0.8,0.9-1.1c0.4-0.3,0.8-0.4,1.3-0.4
		c0.2,0,0.3,0,0.5,0s0.3,0.1,0.4,0.1l-0.2,1.5l-1.1-0.1c-0.4,0-0.8,0.1-1.1,0.3c-0.3,0.2-0.5,0.5-0.7,0.9v5l1.3,0.2v1H25.9z"/>
	<path class="st0" d="M32.8,112.4v-1l1.3-0.2v-6.3l-1.3-0.2v-1h2.9v7.5l1.3,0.2v1H32.8z M34,101.6v-1.7h1.7v1.7H34z"/>
	<path class="st0" d="M41.8,112.4l-3.1-7.6l-0.9-0.1v-1h3.7v1l-1.2,0.1l1.9,5l0.2,0.7l0,0l0.3-0.7l1.8-5l-1.2-0.2v-1h3.7v1l-0.9,0.1
		l-3,7.6L41.8,112.4L41.8,112.4z"/>
	<path class="st0" d="M51.7,112.6c-0.8,0-1.5-0.2-2.1-0.6c-0.6-0.4-1.1-0.9-1.4-1.5c-0.3-0.7-0.5-1.4-0.5-2.3v-0.4
		c0-0.8,0.2-1.6,0.5-2.2c0.3-0.7,0.8-1.2,1.4-1.6c0.6-0.4,1.2-0.6,1.9-0.6c0.8,0,1.5,0.2,2,0.5s0.9,0.8,1.2,1.4
		c0.3,0.6,0.4,1.3,0.4,2.1v1h-5.7l0,0c0,0.6,0.1,1.1,0.3,1.5c0.2,0.4,0.5,0.8,0.8,1s0.8,0.4,1.3,0.4s1-0.1,1.4-0.2
		c0.4-0.2,0.8-0.4,1.1-0.6l0.6,1c-0.3,0.3-0.7,0.6-1.2,0.8C53,112.6,52.5,112.6,51.7,112.6z M49.3,107.2h4.1v-0.2
		c0-0.4-0.1-0.8-0.2-1.1c-0.1-0.3-0.4-0.6-0.7-0.8c-0.3-0.2-0.7-0.3-1.1-0.3c-0.4,0-0.7,0.1-1,0.3s-0.5,0.5-0.7,0.8
		S49.5,106.8,49.3,107.2L49.3,107.2z"/>
	<path class="st0" d="M56.2,112.4v-1l1.3-0.2v-6.3l-1.3-0.2v-1H59l0.1,1.3c0.3-0.5,0.7-0.8,1.1-1.1c0.4-0.3,0.9-0.4,1.5-0.4
		c0.9,0,1.7,0.3,2.2,0.8c0.5,0.6,0.8,1.4,0.8,2.6v4.3l1.3,0.2v1h-4.2v-1l1.3-0.2v-4.3c0-0.8-0.2-1.3-0.5-1.6
		c-0.3-0.3-0.8-0.5-1.4-0.5c-0.5,0-0.9,0.1-1.2,0.3c-0.4,0.2-0.6,0.5-0.8,0.9v5.2l1.3,0.2v1H56.2z"/>
	<path class="st0" d="M75.9,112.6c-0.6,0-1.1-0.1-1.5-0.3c-0.4-0.2-0.8-0.5-1.1-1l-0.1,1.1h-1.4v-11.4l-1.3-0.2v-1h2.9v4.9
		c0.3-0.4,0.6-0.7,1-0.9c0.4-0.2,0.9-0.3,1.4-0.3c0.7,0,1.3,0.2,1.9,0.6c0.5,0.4,0.9,0.9,1.2,1.7c0.3,0.8,0.4,1.5,0.4,2.5v0.2
		c0,0.8-0.1,1.6-0.4,2.2c-0.3,0.6-0.7,1.1-1.2,1.5C77.3,112.4,76.8,112.6,75.9,112.6z M75.6,111.4c0.8,0,1.3-0.3,1.7-0.8
		s0.5-1.2,0.5-2.1v-0.2c0-0.7-0.1-1.3-0.2-1.8c-0.1-0.5-0.4-0.9-0.7-1.2s-0.7-0.4-1.3-0.4c-0.5,0-0.9,0.1-1.2,0.4s-0.6,0.6-0.8,1
		v3.8c0.2,0.4,0.5,0.7,0.8,1S75.1,111.4,75.6,111.4z"/>
	<path class="st0" d="M82.3,116.1c-0.1,0-0.3,0-0.5,0s-0.4-0.1-0.5-0.1l0.2-1.3c0.1,0,0.2,0,0.4,0c0.2,0,0.3,0,0.3,0
		c0.3,0,0.6-0.1,0.8-0.4c0.2-0.3,0.4-0.6,0.6-1.1l0.4-0.9l-3.1-7.4l-0.9-0.1v-1h3.7v1l-1.1,0.2l1.7,4.4l0.4,1.1l0,0l2-5.5l-1.1-0.2
		v-1h3.6v1l-0.9,0.1l-3.5,9c-0.2,0.4-0.4,0.8-0.6,1.1c-0.2,0.3-0.5,0.6-0.8,0.8C83.1,115.9,82.8,116.1,82.3,116.1z"/>
	<path class="st0" d="M99.7,112.6c-1.2,0-2.2-0.3-3-0.8s-1.4-1.2-1.8-2.1c-0.4-0.9-0.6-1.9-0.6-3.1v-0.2c0-1.2,0.2-2.2,0.6-3.1
		c0.4-0.9,1-1.6,1.8-2.1s1.7-0.8,2.8-0.8c0.8,0,1.5,0.1,2.1,0.4c0.6,0.2,1.2,0.5,1.6,0.9v2.6h-1.3l-0.2-1.9
		c-0.2-0.1-0.4-0.2-0.6-0.3c-0.2-0.1-0.5-0.2-0.7-0.2c-0.3,0-0.6-0.1-0.9-0.1c-0.8,0-1.4,0.2-2,0.6c-0.5,0.4-0.9,0.9-1.2,1.6
		c-0.3,0.7-0.4,1.5-0.4,2.4v0.2c0,1,0.1,1.8,0.4,2.5s0.7,1.2,1.3,1.6c0.6,0.4,1.3,0.6,2.1,0.6c0.4,0,0.7,0,1.1-0.1
		c0.4-0.1,0.7-0.2,0.9-0.4l0.2-1.6h1.3v2.6c-0.4,0.3-1,0.5-1.6,0.6C101,112.5,100.3,112.6,99.7,112.6z"/>
	<path class="st0" d="M104.8,112.4v-1l1.3-0.2v-6.3l-1.3-0.2v-1h2.8l0.1,1.1v0.2c0.2-0.5,0.6-0.8,0.9-1.1c0.4-0.3,0.8-0.4,1.3-0.4
		c0.2,0,0.3,0,0.5,0s0.3,0.1,0.4,0.1l-0.2,1.5l-1.2-0.1c-0.4,0-0.8,0.1-1.1,0.3c-0.3,0.2-0.5,0.5-0.7,0.9v5l1.3,0.2v1H104.8z"/>
	<path class="st0" d="M115.6,112.6c-0.8,0-1.5-0.2-2.1-0.6c-0.6-0.4-1.1-0.9-1.4-1.5c-0.3-0.7-0.5-1.4-0.5-2.3v-0.4
		c0-0.8,0.2-1.6,0.5-2.2c0.3-0.7,0.8-1.2,1.4-1.6c0.6-0.4,1.2-0.6,1.9-0.6c0.8,0,1.5,0.2,2,0.5s0.9,0.8,1.2,1.4
		c0.3,0.6,0.4,1.3,0.4,2.1v1h-5.7l0,0c0,0.6,0.1,1.1,0.3,1.5c0.2,0.4,0.5,0.8,0.8,1s0.8,0.4,1.3,0.4s1-0.1,1.4-0.2
		c0.4-0.2,0.8-0.4,1.1-0.6l0.6,1c-0.3,0.3-0.7,0.6-1.2,0.8C116.8,112.6,116.2,112.6,115.6,112.6z M113.2,107.2h4.1v-0.2
		c0-0.4-0.1-0.8-0.2-1.1s-0.4-0.6-0.7-0.8c-0.3-0.2-0.7-0.3-1.1-0.3s-0.7,0.1-1,0.3s-0.5,0.5-0.7,0.8S113.2,106.8,113.2,107.2
		L113.2,107.2z"/>
	<path class="st0" d="M123.1,112.6c-0.9,0-1.6-0.2-2.1-0.7c-0.5-0.4-0.7-1.1-0.7-1.9c0-0.6,0.2-1,0.5-1.5c0.3-0.4,0.7-0.7,1.3-1
		c0.6-0.2,1.3-0.3,2.1-0.3h1.6v-0.9c0-0.5-0.2-0.9-0.5-1.2s-0.8-0.4-1.4-0.4c-0.4,0-0.7,0-1,0.1c-0.3,0.1-0.5,0.2-0.7,0.4l-0.2,1.2
		h-1.2v-2c0.4-0.3,0.9-0.6,1.4-0.7c0.5-0.2,1.1-0.2,1.7-0.2c1.1,0,1.9,0.3,2.5,0.8s0.9,1.2,0.9,2.2v4.2c0,0.1,0,0.2,0,0.3
		c0,0.1,0,0.2,0,0.3l0.9,0.1v1h-2.3c0-0.2-0.1-0.5-0.1-0.6c0-0.2,0-0.4-0.1-0.6c-0.3,0.4-0.7,0.7-1.2,1
		C124.2,112.6,123.7,112.6,123.1,112.6z M123.3,111.4c0.5,0,1-0.1,1.5-0.4c0.4-0.3,0.8-0.6,0.9-0.9v-1.6h-1.6
		c-0.7,0-1.3,0.2-1.7,0.5c-0.4,0.4-0.6,0.7-0.6,1.2c0,0.4,0.1,0.7,0.4,0.9C122.6,111.2,122.8,111.4,123.3,111.4z"/>
	<path class="st0" d="M132.6,112.6c-0.6,0-1.2-0.2-1.5-0.6c-0.3-0.4-0.6-1-0.6-1.8v-5.3h-1.4v-1.2h1.4v-2.1h1.6v2.1h1.9v1.2h-1.9
		v5.3c0,0.4,0.1,0.7,0.3,0.9c0.2,0.2,0.4,0.3,0.7,0.3c0.2,0,0.4,0,0.6-0.1c0.2-0.1,0.4-0.1,0.5-0.1l0.2,1c-0.2,0.1-0.5,0.1-0.9,0.2
		C133.1,112.6,132.9,112.6,132.6,112.6z"/>
	<path class="st0" d="M135.4,112.4v-1l1.3-0.2v-6.3l-1.3-0.2v-1h2.9v7.5l1.3,0.2v1H135.4z M136.6,101.6v-1.7h1.7v1.7H136.6z"/>
	<path class="st0" d="M144.4,112.4l-3.1-7.6l-0.9-0.1v-1h3.7v1l-1.1,0.2l1.9,5l0.2,0.7l0,0l0.3-0.7l1.8-5l-1.2-0.2v-1h3.7v1
		l-0.9,0.1l-3,7.6H144.4z"/>
	<path class="st0" d="M150.4,112.4v-1l1.3-0.2v-6.3l-1.3-0.2v-1h2.9v7.5l1.3,0.2v1H150.4z M151.6,101.6v-1.7h1.7v1.7H151.6z"/>
	<path class="st0" d="M158.9,112.6c-0.7,0-1.2-0.2-1.5-0.6c-0.4-0.4-0.6-1-0.6-1.8v-5.3h-1.4v-1.2h1.4v-2.1h1.6v2.1h1.9v1.2h-1.9
		v5.3c0,0.4,0.1,0.7,0.3,0.9s0.4,0.3,0.7,0.3c0.2,0,0.4,0,0.6-0.1c0.2-0.1,0.4-0.1,0.5-0.1l0.2,1c-0.2,0.1-0.5,0.1-0.9,0.2
		C159.4,112.6,159.1,112.6,158.9,112.6z"/>
	<path class="st0" d="M163.6,116.1c-0.1,0-0.3,0-0.5,0s-0.4-0.1-0.5-0.1l0.2-1.3c0.1,0,0.2,0,0.4,0s0.3,0,0.3,0
		c0.3,0,0.6-0.1,0.8-0.4s0.4-0.6,0.6-1.1l0.4-0.9l-3.1-7.4l-0.9-0.1v-1h3.7v1l-1.1,0.2l1.7,4.4l0.4,1.1l0,0l2-5.5l-1.1-0.2v-1h3.6v1
		l-0.9,0.1l-3.5,9c-0.2,0.4-0.4,0.8-0.6,1.1c-0.2,0.3-0.5,0.6-0.8,0.8C164.3,115.9,164.1,116.1,163.6,116.1z"/>
	<path class="st0" d="M179.4,112.6c-0.8,0-1.5-0.1-2-0.4s-1-0.7-1.3-1.2s-0.5-1.1-0.5-1.7c0-0.6,0.2-1.2,0.6-1.7s0.9-1,1.6-1.5l0,0
		l0,0c-0.4-0.5-0.7-1-0.9-1.4c-0.2-0.4-0.3-0.9-0.3-1.3c0-0.6,0.1-1.1,0.4-1.6s0.6-0.7,1-1c0.4-0.2,1-0.3,1.6-0.3s1.1,0.1,1.5,0.3
		c0.4,0.2,0.8,0.5,1,0.9c0.2,0.4,0.4,0.8,0.4,1.3s-0.1,1-0.4,1.4c-0.3,0.4-0.7,0.8-1.3,1.2l-0.9,0.6l2.8,3.3
		c0.2-0.4,0.4-0.7,0.5-1.2c0.1-0.4,0.2-0.9,0.2-1.4h1.4c0,0.7-0.1,1.4-0.3,2c-0.2,0.6-0.5,1.2-0.9,1.6l1.5,1.8l0,0h-1.9l-0.7-0.8
		c-0.4,0.3-0.9,0.6-1.4,0.7C180.4,112.6,179.9,112.6,179.4,112.6z M179.4,111.4c0.4,0,0.8-0.1,1.2-0.2c0.4-0.1,0.7-0.3,1.1-0.6
		l-2.9-3.5l-0.3,0.2c-0.5,0.4-0.8,0.7-1,1.1c-0.2,0.3-0.2,0.6-0.2,0.9c0,0.6,0.2,1.1,0.6,1.5C178.3,111.2,178.6,111.4,179.4,111.4z
		 M179.1,105.2l1.1-0.8c0.3-0.2,0.5-0.4,0.6-0.7c0.1-0.2,0.2-0.5,0.2-0.8s-0.1-0.6-0.4-0.9s-0.6-0.4-1-0.4s-0.8,0.2-1,0.5
		s-0.4,0.7-0.4,1.1c0,0.3,0.1,0.6,0.2,0.9S178.8,104.9,179.1,105.2z"/>
	<path class="st0" d="M190.1,112.4v-1l1.3-0.2v-9.3l-1.3-0.2v-1h4.2v1l-1.3,0.2v9.3l1.3,0.2v1H190.1z"/>
	<path class="st0" d="M195.6,112.4v-1l1.3-0.2v-6.3l-1.3-0.2v-1h2.8l0.1,1.3c0.3-0.5,0.7-0.8,1.1-1.1c0.4-0.3,0.9-0.4,1.5-0.4
		c0.9,0,1.7,0.3,2.2,0.8c0.5,0.6,0.8,1.4,0.8,2.6v4.3l1.3,0.2v1h-4.2v-1l1.3-0.2V107c0-0.8-0.2-1.3-0.5-1.6s-0.8-0.5-1.4-0.5
		c-0.5,0-0.9,0.1-1.2,0.3c-0.4,0.2-0.6,0.5-0.8,0.9v5.2l1.3,0.2v1C200,112.5,195.6,112.5,195.6,112.4z"/>
	<path class="st0" d="M206.6,112.4v-1l1.3-0.2v-6.3l-1.3-0.2v-1h2.8l0.1,1.3c0.3-0.5,0.7-0.8,1.1-1.1c0.4-0.3,0.9-0.4,1.5-0.4
		c0.9,0,1.7,0.3,2.2,0.8s0.8,1.4,0.8,2.6v4.3l1.3,0.2v1h-4.2v-1l1.3-0.2V107c0-0.8-0.2-1.3-0.5-1.6s-0.8-0.5-1.4-0.5
		c-0.5,0-0.9,0.1-1.2,0.3c-0.4,0.2-0.6,0.5-0.8,0.9v5.2l1.3,0.2v1C210.9,112.5,206.6,112.5,206.6,112.4z"/>
	<path class="st0" d="M221.4,112.6c-0.8,0-1.5-0.2-2.1-0.6c-0.6-0.4-1-0.9-1.4-1.6c-0.3-0.7-0.5-1.4-0.5-2.3v-0.1
		c0-0.9,0.2-1.6,0.5-2.3c0.3-0.7,0.8-1.2,1.4-1.6c0.6-0.4,1.3-0.6,2.1-0.6s1.5,0.2,2.1,0.6c0.6,0.4,1,0.9,1.4,1.6
		c0.3,0.7,0.5,1.4,0.5,2.3v0.2c0,0.9-0.2,1.6-0.5,2.3c-0.3,0.7-0.8,1.2-1.4,1.6C222.9,112.4,222.1,112.6,221.4,112.6z M221.4,111.4
		c0.5,0,0.9-0.1,1.3-0.4c0.3-0.3,0.6-0.7,0.8-1.1c0.2-0.4,0.3-1,0.3-1.7v-0.1c0-0.6-0.1-1.2-0.3-1.7s-0.4-0.9-0.8-1.1
		c-0.3-0.3-0.8-0.4-1.3-0.4s-0.9,0.1-1.3,0.4c-0.3,0.3-0.6,0.7-0.8,1.1c-0.2,0.5-0.3,1-0.3,1.7v0.2c0,0.6,0.1,1.2,0.3,1.7
		s0.4,0.9,0.8,1.1C220.4,111.2,220.9,111.4,221.4,111.4z"/>
	<path class="st0" d="M229.9,112.4l-3.1-7.6l-0.9-0.1v-1h3.7v1l-1.1,0.2l1.9,5l0.2,0.7l0,0l0.3-0.7l1.8-5l-1.2-0.2v-1h3.7v1
		l-0.9,0.1l-3,7.6H229.9z"/>
	<path class="st0" d="M238.8,112.6c-0.9,0-1.6-0.2-2.1-0.7c-0.5-0.4-0.7-1.1-0.7-1.9c0-0.6,0.2-1,0.5-1.5c0.3-0.4,0.7-0.7,1.3-1
		c0.6-0.2,1.3-0.3,2.1-0.3h1.6v-0.9c0-0.5-0.2-0.9-0.5-1.2s-0.8-0.4-1.4-0.4c-0.4,0-0.7,0-1,0.1c-0.3,0.1-0.5,0.2-0.7,0.4l-0.2,1.2
		h-1.2v-2c0.4-0.3,0.9-0.6,1.4-0.7c0.5-0.1,1.1-0.2,1.7-0.2c1.1,0,1.9,0.3,2.5,0.8s0.9,1.2,0.9,2.2v4.2c0,0.1,0,0.2,0,0.3
		c0,0.1,0,0.2,0,0.3l0.9,0.1v1h-2.3c0-0.2-0.1-0.5-0.1-0.6c0-0.2,0-0.4-0.1-0.6c-0.3,0.4-0.7,0.7-1.2,1S239.2,112.6,238.8,112.6z
		 M238.9,111.4c0.5,0,1-0.1,1.5-0.4c0.4-0.3,0.8-0.6,0.9-0.9v-1.6h-1.6c-0.7,0-1.3,0.2-1.7,0.5c-0.4,0.4-0.6,0.7-0.6,1.2
		c0,0.4,0.1,0.7,0.4,0.9C238.1,111.2,238.4,111.4,238.9,111.4z"/>
	<path class="st0" d="M248.1,112.6c-0.6,0-1.2-0.2-1.5-0.6c-0.3-0.4-0.6-1-0.6-1.8v-5.3h-1.4v-1.2h1.4v-2.1h1.6v2.1h1.9v1.2h-1.9
		v5.3c0,0.4,0.1,0.7,0.3,0.9c0.2,0.2,0.4,0.3,0.7,0.3c0.2,0,0.4,0,0.6-0.1c0.2,0,0.4-0.1,0.5-0.1l0.2,1c-0.2,0.1-0.5,0.1-0.9,0.2
		C248.8,112.6,248.4,112.6,248.1,112.6z"/>
	<path class="st0" d="M250.9,112.4v-1l1.3-0.2v-6.3l-1.3-0.2v-1h2.9v7.5l1.3,0.2v1H250.9z M252.1,101.6v-1.7h1.7v1.7H252.1z"/>
	<path class="st0" d="M260.2,112.6c-0.8,0-1.5-0.2-2.1-0.6c-0.6-0.4-1-0.9-1.4-1.6c-0.3-0.7-0.5-1.4-0.5-2.3v-0.1
		c0-0.9,0.2-1.6,0.5-2.3s0.8-1.2,1.4-1.6c0.6-0.4,1.3-0.6,2.1-0.6s1.5,0.2,2.1,0.6c0.6,0.4,1,0.9,1.4,1.6c0.3,0.7,0.5,1.4,0.5,2.3
		v0.2c0,0.9-0.2,1.6-0.5,2.3c-0.3,0.7-0.8,1.2-1.4,1.6C261.8,112.4,261,112.6,260.2,112.6z M260.2,111.4c0.5,0,0.9-0.1,1.3-0.4
		c0.3-0.3,0.6-0.7,0.8-1.1c0.2-0.4,0.3-1,0.3-1.7v-0.1c0-0.6-0.1-1.2-0.3-1.7s-0.4-0.9-0.8-1.1c-0.3-0.3-0.8-0.4-1.3-0.4
		s-0.9,0.1-1.3,0.4c-0.3,0.3-0.6,0.7-0.8,1.1c-0.2,0.5-0.3,1-0.3,1.7v0.2c0,0.6,0.1,1.2,0.3,1.7s0.4,0.9,0.8,1.1
		C259.4,111.2,259.8,111.4,260.2,111.4z"/>
	<path class="st0" d="M265.5,112.4v-1l1.3-0.2v-6.3l-1.3-0.2v-1h2.8l0.1,1.3c0.3-0.5,0.7-0.8,1.1-1.1c0.4-0.3,0.9-0.4,1.5-0.4
		c0.9,0,1.7,0.3,2.2,0.8c0.5,0.6,0.8,1.4,0.8,2.6v4.3l1.3,0.2v1H271v-1l1.3-0.2V107c0-0.8-0.2-1.3-0.5-1.6s-0.8-0.5-1.4-0.5
		c-0.5,0-0.9,0.1-1.2,0.3c-0.4,0.2-0.6,0.5-0.8,0.9v5.2l1.3,0.2v1C269.8,112.5,265.5,112.5,265.5,112.4z"/>
</g>
<rect class="st3" width="290" height="130"/>
<text transform="matrix(1 0 0 1 162.25 -64.4114)" style="font-family:'RobotoSlab-Regular'; font-size:12px;">SSE</text>
</svg>
