<?xml version="1.0" encoding="utf-8"?>
<!-- Generator: Adobe Illustrator 25.4.1, SVG Export Plug-In . SVG Version: 6.00 Build 0)  -->
<svg version="1.1" id="Layer_1" xmlns="http://www.w3.org/2000/svg" xmlns:xlink="http://www.w3.org/1999/xlink" x="0px" y="0px"
	 viewBox="0 0 261.5 105" style="enable-background:new 0 0 261.5 105;" xml:space="preserve">
<style type="text/css">
	.st0{fill:#FFFFFF;}
	.st1{fill:#FF4E24;}
	.st2{enable-background:new    ;}
</style>
<g>
	<g>
		<path class="st0" d="M110.7,76.5c-4.5,0-8.8-0.7-12.9-2s-8.1-3.3-11.8-6V52.8h7.7l1.7,11.5c2.2,1.3,4.5,2.4,7.1,3.1
			s5.3,1.1,8.3,1.1c3.4,0,6.2-0.5,8.5-1.5s4.1-2.4,5.4-4.3c1.3-1.9,1.9-3.9,1.9-6.3c0-2.2-0.5-4.2-1.6-5.9s-2.8-3.2-5.3-4.5
			s-5.8-2.4-10.1-3.4c-5-1.2-9.3-2.7-12.8-4.7s-6.1-4.3-7.9-7.2s-2.7-6-2.7-9.6c0-3.8,1-7.3,3-10.3s4.9-5.4,8.5-7.2S105.6,1,110.4,1
			c5.1,0,9.7,0.8,13.6,2.3s7.2,3.4,9.7,5.7v14.7H126l-1.7-10.5c-1.5-1.2-3.4-2.2-5.6-3s-5-1.2-8.4-1.2c-2.8,0-5.3,0.5-7.5,1.5
			c-2.1,1-3.8,2.4-5,4.2S96,18.6,96,21c0,2.1,0.5,4,1.6,5.5s2.9,3,5.3,4.2c2.5,1.2,5.8,2.3,9.9,3.3c7.7,1.9,13.6,4.7,17.5,8.5
			c3.9,3.8,6,8.4,6,13.9c0,3.9-1.1,7.4-3.2,10.4c-2.1,3-5.1,5.4-8.9,7.1S115.9,76.5,110.7,76.5z"/>
		<path class="st0" d="M171.4,76.5c-4.5,0-8.8-0.7-12.9-2s-8.1-3.3-11.8-6V52.8h7.7l1.7,11.5c2.2,1.3,4.5,2.4,7.1,3.1
			s5.3,1.1,8.3,1.1c3.4,0,6.2-0.5,8.5-1.5s4.1-2.4,5.4-4.3c1.3-1.9,1.9-3.9,1.9-6.3c0-2.2-0.5-4.2-1.6-5.9s-2.8-3.2-5.3-4.5
			s-5.8-2.4-10.1-3.4c-5-1.2-9.3-2.7-12.8-4.7s-6.1-4.3-7.9-7.2c-1.8-2.8-2.7-6-2.7-9.6c0-3.8,1-7.3,3-10.3s4.9-5.4,8.5-7.2
			S166.3,1,171.1,1c5.1,0,9.7,0.8,13.6,2.3s7.2,3.4,9.7,5.7v14.7h-7.7L185,13.2c-1.5-1.2-3.4-2.2-5.6-3c-2.2-0.8-5-1.2-8.4-1.2
			c-2.8,0-5.3,0.5-7.5,1.5c-2.1,1-3.8,2.4-5,4.2s-1.8,3.9-1.8,6.3c0,2.1,0.5,4,1.6,5.5c1.1,1.6,2.9,3,5.3,4.2
			c2.5,1.2,5.8,2.3,9.9,3.3c7.7,1.9,13.6,4.7,17.5,8.5s6,8.4,6,13.9c0,3.9-1.1,7.4-3.2,10.4c-2.1,3-5.1,5.4-8.9,7.1
			C181.1,75.6,176.6,76.5,171.4,76.5z"/>
		<path class="st0" d="M205.7,75.4v-6.3l8.2-1.4V9.9l-8.2-1.4V2.1H260v17.6h-8l-1.1-10h-27.1v23.9h27v7.8h-27V68h28.7l1.1-10.1h7.9
			v17.6L205.7,75.4L205.7,75.4z"/>
	</g>
	<rect y="2.2" class="st0" width="72" height="72"/>
	<path class="st1" d="M65.1,13.6C43.1,16.3,16,31.8,16,39.7c0,8,25.3,4.6,25.3,4.6s0.9-0.1,1,0.4c0.2,0.8-0.4,1-0.4,1
		S7.8,57,7.8,39.5c0-17.3,52.1-36.7,53.8-37.3H0v72l6.9-11.5C28.9,59.9,56,44.5,56,36.5s-25.2-4.7-25.2-4.7s-0.9,0.1-1-0.4
		c-0.2-0.8,0.4-1,0.4-1s34.1-11.2,34.1,6.4c0,17.3-52.1,36.7-53.8,37.3h61.6V2L65.1,13.6z"/>
	<g class="st2">
		<path class="st0" d="M0.7,100.4v-1L2,99.2v-9.3l-1.3-0.2v-1H2h3.3c1,0,2,0.2,2.7,0.7s1.4,1.2,1.8,2.1s0.6,1.9,0.6,3v0.3
			c0,1.1-0.2,2.1-0.6,3s-1,1.6-1.8,2.1s-1.7,0.8-2.7,0.8H0.7V100.4z M3.7,99.2h1.7c0.7,0,1.4-0.2,1.9-0.6s0.9-1,1.2-1.6
			c0.3-0.7,0.4-1.4,0.4-2.3v-0.3c0-0.9-0.1-1.6-0.4-2.3c-0.3-0.7-0.7-1.2-1.2-1.6s-1.2-0.6-1.9-0.6H3.7V99.2z"/>
		<path class="st0" d="M11.7,100.4v-1l1.3-0.2v-6.3l-1.3-0.2v-1h2.8l0.1,1.1V93c0.2-0.5,0.6-0.8,0.9-1.1c0.4-0.3,0.8-0.4,1.3-0.4
			c0.2,0,0.3,0,0.5,0s0.3,0.1,0.4,0.1l-0.2,1.5L16.4,93c-0.4,0-0.8,0.1-1.1,0.3c-0.3,0.2-0.5,0.5-0.7,0.9v5l1.3,0.2v1H11.7z"/>
		<path class="st0" d="M18.6,100.4v-1l1.3-0.2v-6.3l-1.3-0.2v-1h2.9v7.5l1.3,0.2v1H18.6z M19.8,89.6v-1.7h1.7v1.7H19.8z"/>
		<path class="st0" d="M27.6,100.4l-3.1-7.6l-0.9-0.1v-1h3.7v1l-1.2,0.1l1.9,5l0.2,0.7l0,0l0.3-0.7l1.8-5l-1.2-0.2v-1h3.7v1
			l-0.9,0.1l-3,7.6L27.6,100.4L27.6,100.4z"/>
		<path class="st0" d="M37.5,100.6c-0.8,0-1.5-0.2-2.1-0.6s-1.1-0.9-1.4-1.5c-0.3-0.7-0.5-1.4-0.5-2.3v-0.4c0-0.8,0.2-1.6,0.5-2.2
			c0.3-0.7,0.8-1.2,1.4-1.6c0.6-0.4,1.2-0.6,1.9-0.6c0.8,0,1.5,0.2,2,0.5s0.9,0.8,1.2,1.4s0.4,1.3,0.4,2.1v1h-5.7l0,0
			c0,0.6,0.1,1.1,0.3,1.5s0.5,0.8,0.8,1s0.8,0.4,1.3,0.4s1-0.1,1.4-0.2c0.4-0.2,0.8-0.4,1.1-0.6l0.6,1c-0.3,0.3-0.7,0.6-1.2,0.8
			C38.8,100.6,38.3,100.6,37.5,100.6z M35.1,95.2h4.1V95c0-0.4-0.1-0.8-0.2-1.1c-0.1-0.3-0.4-0.6-0.7-0.8c-0.3-0.2-0.7-0.3-1.1-0.3
			c-0.4,0-0.7,0.1-1,0.3s-0.5,0.5-0.7,0.8S35.3,94.8,35.1,95.2L35.1,95.2z"/>
		<path class="st0" d="M42,100.4v-1l1.3-0.2v-6.3L42,92.7v-1h2.8l0.1,1.3c0.3-0.5,0.7-0.8,1.1-1.1c0.4-0.3,0.9-0.4,1.5-0.4
			c0.9,0,1.7,0.3,2.2,0.8c0.5,0.6,0.8,1.4,0.8,2.6v4.3l1.3,0.2v1h-4.2v-1l1.3-0.2v-4.3c0-0.8-0.2-1.3-0.5-1.6
			c-0.3-0.3-0.8-0.5-1.4-0.5c-0.5,0-0.9,0.1-1.2,0.3c-0.4,0.2-0.6,0.5-0.8,0.9v5.2l1.3,0.2v1C46.3,100.4,42,100.4,42,100.4z"/>
		<path class="st0" d="M61.7,100.6c-0.6,0-1.1-0.1-1.5-0.3c-0.4-0.2-0.8-0.5-1.1-1l-0.1,1.1h-1.4V89l-1.3-0.2v-1h2.9v4.9
			c0.3-0.4,0.6-0.7,1-0.9c0.4-0.2,0.9-0.3,1.4-0.3c0.7,0,1.3,0.2,1.9,0.6c0.5,0.4,0.9,0.9,1.2,1.7c0.3,0.8,0.4,1.5,0.4,2.5v0.2
			c0,0.8-0.1,1.6-0.4,2.2s-0.7,1.1-1.2,1.5C63.1,100.4,62.6,100.6,61.7,100.6z M61.4,99.4c0.8,0,1.3-0.3,1.7-0.8s0.5-1.2,0.5-2.1
			v-0.2c0-0.7-0.1-1.3-0.2-1.8s-0.4-0.9-0.7-1.2s-0.7-0.4-1.3-0.4c-0.5,0-0.9,0.1-1.2,0.4s-0.6,0.6-0.8,1v3.8c0.2,0.4,0.5,0.7,0.8,1
			S60.9,99.4,61.4,99.4z"/>
		<path class="st0" d="M68.1,104.1c-0.1,0-0.3,0-0.5,0s-0.4-0.1-0.5-0.1l0.2-1.3c0.1,0,0.2,0,0.4,0c0.2,0,0.3,0,0.3,0
			c0.3,0,0.6-0.1,0.8-0.4c0.2-0.3,0.4-0.6,0.6-1.1l0.4-0.9l-3.1-7.4l-0.9-0.1v-1h3.7v1L68.4,93l1.7,4.4l0.4,1.1l0,0l2-5.5l-1.1-0.2
			v-1H75v1l-0.9,0.1l-3.5,9c-0.2,0.4-0.4,0.8-0.6,1.1c-0.2,0.3-0.5,0.6-0.8,0.8C68.9,103.9,68.6,104.1,68.1,104.1z"/>
		<path class="st0" d="M85.5,100.6c-1.2,0-2.2-0.3-3-0.8s-1.4-1.2-1.8-2.1s-0.6-1.9-0.6-3.1v-0.2c0-1.2,0.2-2.2,0.6-3.1
			s1-1.6,1.8-2.1s1.7-0.8,2.8-0.8c0.8,0,1.5,0.1,2.1,0.4c0.6,0.2,1.2,0.5,1.6,0.9v2.6h-1.3l-0.2-1.9c-0.2-0.1-0.4-0.2-0.6-0.3
			c-0.2-0.1-0.5-0.2-0.7-0.2c-0.3,0-0.6-0.1-0.9-0.1c-0.8,0-1.4,0.2-2,0.6c-0.5,0.4-0.9,0.9-1.2,1.6c-0.3,0.7-0.4,1.5-0.4,2.4v0.2
			c0,1,0.1,1.8,0.4,2.5s0.7,1.2,1.3,1.6c0.6,0.4,1.3,0.6,2.1,0.6c0.4,0,0.7,0,1.1-0.1s0.7-0.2,0.9-0.4l0.2-1.6H89v2.6
			c-0.4,0.3-1,0.5-1.6,0.6C86.8,100.5,86.1,100.6,85.5,100.6z"/>
		<path class="st0" d="M90.6,100.4v-1l1.3-0.2v-6.3l-1.3-0.2v-1h2.8l0.1,1.1V93c0.2-0.5,0.6-0.8,0.9-1.1c0.4-0.3,0.8-0.4,1.3-0.4
			c0.2,0,0.3,0,0.5,0s0.3,0.1,0.4,0.1l-0.2,1.5L95.2,93c-0.4,0-0.8,0.1-1.1,0.3c-0.3,0.2-0.5,0.5-0.7,0.9v5l1.3,0.2v1H90.6z"/>
		<path class="st0" d="M101.4,100.6c-0.8,0-1.5-0.2-2.1-0.6s-1.1-0.9-1.4-1.5c-0.3-0.7-0.5-1.4-0.5-2.3v-0.4c0-0.8,0.2-1.6,0.5-2.2
			c0.3-0.7,0.8-1.2,1.4-1.6s1.2-0.6,1.9-0.6c0.8,0,1.5,0.2,2,0.5s0.9,0.8,1.2,1.4c0.3,0.6,0.4,1.3,0.4,2.1v1h-5.7l0,0
			c0,0.6,0.1,1.1,0.3,1.5c0.2,0.4,0.5,0.8,0.8,1s0.8,0.4,1.3,0.4s1-0.1,1.4-0.2c0.4-0.2,0.8-0.4,1.1-0.6l0.6,1
			c-0.3,0.3-0.7,0.6-1.2,0.8C102.6,100.6,102,100.6,101.4,100.6z M99,95.2h4.1V95c0-0.4-0.1-0.8-0.2-1.1s-0.4-0.6-0.7-0.8
			c-0.3-0.2-0.7-0.3-1.1-0.3s-0.7,0.1-1,0.3s-0.5,0.5-0.7,0.8S99,94.8,99,95.2L99,95.2z"/>
		<path class="st0" d="M108.9,100.6c-0.9,0-1.6-0.2-2.1-0.7c-0.5-0.4-0.7-1.1-0.7-1.9c0-0.6,0.2-1,0.5-1.5c0.3-0.4,0.7-0.7,1.3-1
			c0.6-0.2,1.3-0.3,2.1-0.3h1.6v-0.9c0-0.5-0.2-0.9-0.5-1.2s-0.8-0.4-1.4-0.4c-0.4,0-0.7,0-1,0.1s-0.5,0.2-0.7,0.4l-0.2,1.2h-1.2v-2
			c0.4-0.3,0.9-0.6,1.4-0.7c0.5-0.2,1.1-0.2,1.7-0.2c1.1,0,1.9,0.3,2.5,0.8s0.9,1.2,0.9,2.2v4.2c0,0.1,0,0.2,0,0.3
			c0,0.1,0,0.2,0,0.3l0.9,0.1v1h-2.3c0-0.2-0.1-0.5-0.1-0.6c0-0.2,0-0.4-0.1-0.6c-0.3,0.4-0.7,0.7-1.2,1
			C110,100.6,109.5,100.6,108.9,100.6z M109.1,99.4c0.5,0,1-0.1,1.5-0.4c0.4-0.3,0.8-0.6,0.9-0.9v-1.6h-1.6c-0.7,0-1.3,0.2-1.7,0.5
			c-0.4,0.4-0.6,0.7-0.6,1.2c0,0.4,0.1,0.7,0.4,0.9C108.4,99.2,108.6,99.4,109.1,99.4z"/>
		<path class="st0" d="M118.4,100.6c-0.6,0-1.2-0.2-1.5-0.6s-0.6-1-0.6-1.8v-5.3h-1.4v-1.2h1.4v-2.1h1.6v2.1h1.9v1.2h-1.9v5.3
			c0,0.4,0.1,0.7,0.3,0.9c0.2,0.2,0.4,0.3,0.7,0.3c0.2,0,0.4,0,0.6-0.1s0.4-0.1,0.5-0.1l0.2,1c-0.2,0.1-0.5,0.1-0.9,0.2
			C118.9,100.6,118.7,100.6,118.4,100.6z"/>
		<path class="st0" d="M121.2,100.4v-1l1.3-0.2v-6.3l-1.3-0.2v-1h2.9v7.5l1.3,0.2v1H121.2z M122.4,89.6v-1.7h1.7v1.7H122.4z"/>
		<path class="st0" d="M130.2,100.4l-3.1-7.6l-0.9-0.1v-1h3.7v1l-1.1,0.2l1.9,5l0.2,0.7l0,0l0.3-0.7l1.8-5l-1.2-0.2v-1h3.7v1
			l-0.9,0.1l-3,7.6H130.2z"/>
		<path class="st0" d="M136.2,100.4v-1l1.3-0.2v-6.3l-1.3-0.2v-1h2.9v7.5l1.3,0.2v1H136.2z M137.4,89.6v-1.7h1.7v1.7H137.4z"/>
		<path class="st0" d="M144.7,100.6c-0.7,0-1.2-0.2-1.5-0.6c-0.4-0.4-0.6-1-0.6-1.8v-5.3h-1.4v-1.2h1.4v-2.1h1.6v2.1h1.9v1.2h-1.9
			v5.3c0,0.4,0.1,0.7,0.3,0.9s0.4,0.3,0.7,0.3c0.2,0,0.4,0,0.6-0.1c0.2-0.1,0.4-0.1,0.5-0.1l0.2,1c-0.2,0.1-0.5,0.1-0.9,0.2
			C145.2,100.6,144.9,100.6,144.7,100.6z"/>
		<path class="st0" d="M149.4,104.1c-0.1,0-0.3,0-0.5,0s-0.4-0.1-0.5-0.1l0.2-1.3c0.1,0,0.2,0,0.4,0s0.3,0,0.3,0
			c0.3,0,0.6-0.1,0.8-0.4s0.4-0.6,0.6-1.1l0.4-0.9l-3.1-7.4l-0.9-0.1v-1h3.7v1l-1.1,0.2l1.7,4.4l0.4,1.1l0,0l2-5.5l-1.1-0.2v-1h3.6
			v1l-0.9,0.1l-3.5,9c-0.2,0.4-0.4,0.8-0.6,1.1c-0.2,0.3-0.5,0.6-0.8,0.8C150.1,103.9,149.9,104.1,149.4,104.1z"/>
		<path class="st0" d="M165.2,100.6c-0.8,0-1.5-0.1-2-0.4s-1-0.7-1.3-1.2s-0.5-1.1-0.5-1.7s0.2-1.2,0.6-1.7s0.9-1,1.6-1.5l0,0l0,0
			c-0.4-0.5-0.7-1-0.9-1.4s-0.3-0.9-0.3-1.3c0-0.6,0.1-1.1,0.4-1.6s0.6-0.7,1-1c0.4-0.2,1-0.3,1.6-0.3s1.1,0.1,1.5,0.3
			c0.4,0.2,0.8,0.5,1,0.9s0.4,0.8,0.4,1.3s-0.1,1-0.4,1.4c-0.3,0.4-0.7,0.8-1.3,1.2l-0.9,0.6l2.8,3.3c0.2-0.4,0.4-0.7,0.5-1.2
			c0.1-0.4,0.2-0.9,0.2-1.4h1.4c0,0.7-0.1,1.4-0.3,2s-0.5,1.2-0.9,1.6l1.5,1.8l0,0H169l-0.7-0.8c-0.4,0.3-0.9,0.6-1.4,0.7
			C166.2,100.6,165.7,100.6,165.2,100.6z M165.2,99.4c0.4,0,0.8-0.1,1.2-0.2s0.7-0.3,1.1-0.6l-2.9-3.5l-0.3,0.2
			c-0.5,0.4-0.8,0.7-1,1.1c-0.2,0.3-0.2,0.6-0.2,0.9c0,0.6,0.2,1.1,0.6,1.5C164.1,99.2,164.4,99.4,165.2,99.4z M164.9,93.2l1.1-0.8
			c0.3-0.2,0.5-0.4,0.6-0.7c0.1-0.2,0.2-0.5,0.2-0.8s-0.1-0.6-0.4-0.9s-0.6-0.4-1-0.4s-0.8,0.2-1,0.5s-0.4,0.7-0.4,1.1
			c0,0.3,0.1,0.6,0.2,0.9S164.6,92.9,164.9,93.2z"/>
		<path class="st0" d="M175.9,100.4v-1l1.3-0.2v-9.3l-1.3-0.2v-1h4.2v1l-1.3,0.2v9.3l1.3,0.2v1H175.9z"/>
		<path class="st0" d="M181.4,100.4v-1l1.3-0.2v-6.3l-1.3-0.2v-1h2.8l0.1,1.3c0.3-0.5,0.7-0.8,1.1-1.1c0.4-0.3,0.9-0.4,1.5-0.4
			c0.9,0,1.7,0.3,2.2,0.8c0.5,0.6,0.8,1.4,0.8,2.6v4.3l1.3,0.2v1H187v-1l1.3-0.2V95c0-0.8-0.2-1.3-0.5-1.6s-0.8-0.5-1.4-0.5
			c-0.5,0-0.9,0.1-1.2,0.3c-0.4,0.2-0.6,0.5-0.8,0.9v5.2l1.3,0.2v1C185.8,100.5,181.4,100.5,181.4,100.4z"/>
		<path class="st0" d="M192.4,100.4v-1l1.3-0.2v-6.3l-1.3-0.2v-1h2.8l0.1,1.3c0.3-0.5,0.7-0.8,1.1-1.1c0.4-0.3,0.9-0.4,1.5-0.4
			c0.9,0,1.7,0.3,2.2,0.8s0.8,1.4,0.8,2.6v4.3l1.3,0.2v1H198v-1l1.3-0.2V95c0-0.8-0.2-1.3-0.5-1.6s-0.8-0.5-1.4-0.5
			c-0.5,0-0.9,0.1-1.2,0.3c-0.4,0.2-0.6,0.5-0.8,0.9v5.2l1.3,0.2v1C196.7,100.5,192.4,100.5,192.4,100.4z"/>
		<path class="st0" d="M207.2,100.6c-0.8,0-1.5-0.2-2.1-0.6s-1-0.9-1.4-1.6c-0.3-0.7-0.5-1.4-0.5-2.3V96c0-0.9,0.2-1.6,0.5-2.3
			c0.3-0.7,0.8-1.2,1.4-1.6c0.6-0.4,1.3-0.6,2.1-0.6s1.5,0.2,2.1,0.6s1,0.9,1.4,1.6c0.3,0.7,0.5,1.4,0.5,2.3v0.2
			c0,0.9-0.2,1.6-0.5,2.3c-0.3,0.7-0.8,1.2-1.4,1.6C208.7,100.4,207.9,100.6,207.2,100.6z M207.2,99.4c0.5,0,0.9-0.1,1.3-0.4
			c0.3-0.3,0.6-0.7,0.8-1.1s0.3-1,0.3-1.7v-0.1c0-0.6-0.1-1.2-0.3-1.7s-0.4-0.9-0.8-1.1c-0.3-0.3-0.8-0.4-1.3-0.4s-0.9,0.1-1.3,0.4
			c-0.3,0.3-0.6,0.7-0.8,1.1c-0.2,0.5-0.3,1-0.3,1.7v0.2c0,0.6,0.1,1.2,0.3,1.7s0.4,0.9,0.8,1.1C206.2,99.2,206.7,99.4,207.2,99.4z"
			/>
		<path class="st0" d="M215.7,100.4l-3.1-7.6l-0.9-0.1v-1h3.7v1l-1.1,0.2l1.9,5l0.2,0.7l0,0l0.3-0.7l1.8-5l-1.2-0.2v-1h3.7v1
			l-0.9,0.1l-3,7.6H215.7z"/>
		<path class="st0" d="M224.6,100.6c-0.9,0-1.6-0.2-2.1-0.7c-0.5-0.4-0.7-1.1-0.7-1.9c0-0.6,0.2-1,0.5-1.5c0.3-0.4,0.7-0.7,1.3-1
			c0.6-0.2,1.3-0.3,2.1-0.3h1.6v-0.9c0-0.5-0.2-0.9-0.5-1.2s-0.8-0.4-1.4-0.4c-0.4,0-0.7,0-1,0.1s-0.5,0.2-0.7,0.4l-0.2,1.2h-1.2v-2
			c0.4-0.3,0.9-0.6,1.4-0.7s1.1-0.2,1.7-0.2c1.1,0,1.9,0.3,2.5,0.8s0.9,1.2,0.9,2.2v4.2c0,0.1,0,0.2,0,0.3c0,0.1,0,0.2,0,0.3
			l0.9,0.1v1h-2.3c0-0.2-0.1-0.5-0.1-0.6c0-0.2,0-0.4-0.1-0.6c-0.3,0.4-0.7,0.7-1.2,1S225,100.6,224.6,100.6z M224.7,99.4
			c0.5,0,1-0.1,1.5-0.4c0.4-0.3,0.8-0.6,0.9-0.9v-1.6h-1.6c-0.7,0-1.3,0.2-1.7,0.5c-0.4,0.4-0.6,0.7-0.6,1.2c0,0.4,0.1,0.7,0.4,0.9
			C223.9,99.2,224.2,99.4,224.7,99.4z"/>
		<path class="st0" d="M233.9,100.6c-0.6,0-1.2-0.2-1.5-0.6s-0.6-1-0.6-1.8v-5.3h-1.4v-1.2h1.4v-2.1h1.6v2.1h1.9v1.2h-1.9v5.3
			c0,0.4,0.1,0.7,0.3,0.9c0.2,0.2,0.4,0.3,0.7,0.3c0.2,0,0.4,0,0.6-0.1c0.2,0,0.4-0.1,0.5-0.1l0.2,1c-0.2,0.1-0.5,0.1-0.9,0.2
			C234.6,100.6,234.2,100.6,233.9,100.6z"/>
		<path class="st0" d="M236.7,100.4v-1l1.3-0.2v-6.3l-1.3-0.2v-1h2.9v7.5l1.3,0.2v1H236.7z M237.9,89.6v-1.7h1.7v1.7H237.9z"/>
		<path class="st0" d="M246,100.6c-0.8,0-1.5-0.2-2.1-0.6s-1-0.9-1.4-1.6c-0.3-0.7-0.5-1.4-0.5-2.3V96c0-0.9,0.2-1.6,0.5-2.3
			s0.8-1.2,1.4-1.6s1.3-0.6,2.1-0.6s1.5,0.2,2.1,0.6s1,0.9,1.4,1.6c0.3,0.7,0.5,1.4,0.5,2.3v0.2c0,0.9-0.2,1.6-0.5,2.3
			c-0.3,0.7-0.8,1.2-1.4,1.6C247.6,100.4,246.8,100.6,246,100.6z M246,99.4c0.5,0,0.9-0.1,1.3-0.4c0.3-0.3,0.6-0.7,0.8-1.1
			s0.3-1,0.3-1.7v-0.1c0-0.6-0.1-1.2-0.3-1.7s-0.4-0.9-0.8-1.1c-0.3-0.3-0.8-0.4-1.3-0.4s-0.9,0.1-1.3,0.4c-0.3,0.3-0.6,0.7-0.8,1.1
			c-0.2,0.5-0.3,1-0.3,1.7v0.2c0,0.6,0.1,1.2,0.3,1.7s0.4,0.9,0.8,1.1C245.2,99.2,245.6,99.4,246,99.4z"/>
		<path class="st0" d="M251.3,100.4v-1l1.3-0.2v-6.3l-1.3-0.2v-1h2.8l0.1,1.3c0.3-0.5,0.7-0.8,1.1-1.1c0.4-0.3,0.9-0.4,1.5-0.4
			c0.9,0,1.7,0.3,2.2,0.8c0.5,0.6,0.8,1.4,0.8,2.6v4.3l1.3,0.2v1h-4.3v-1l1.3-0.2V95c0-0.8-0.2-1.3-0.5-1.6s-0.8-0.5-1.4-0.5
			c-0.5,0-0.9,0.1-1.2,0.3c-0.4,0.2-0.6,0.5-0.8,0.9v5.2l1.3,0.2v1C255.6,100.5,251.3,100.5,251.3,100.4z"/>
	</g>
</g>
</svg>
